<svg width="166" height="52" viewBox="0 0 166 52" fill="none" xmlns="http://www.w3.org/2000/svg">
<g clip-path="url(#clip0_102_492)">
<path fill-rule="evenodd" clip-rule="evenodd" d="M9.81467 -0.0870361H156.526C159.787 -0.0870361 160.967 0.27818 162.159 0.956437C163.336 1.62374 164.298 2.65546 164.92 3.91729C165.553 5.19555 165.894 6.46076 165.894 9.94335V42.0563C165.894 45.5388 165.553 46.8041 164.92 48.0823C164.298 49.3442 163.336 50.3759 162.159 51.0432C160.967 51.7214 159.787 52.0866 156.539 52.0866H9.80251C6.55441 52.0866 5.37439 51.7214 4.18221 51.0432C3.00534 50.3759 2.04309 49.3442 1.42072 48.0823C0.788134 46.8041 0.44751 45.5388 0.44751 42.0563V9.94335C0.44751 6.46076 0.788134 5.19555 1.42072 3.91729C2.04309 2.65546 3.00534 1.62374 4.18221 0.956437C5.37439 0.27818 6.55441 -0.0870361 9.80251 -0.0870361H9.81467Z" fill="#293145"/>
<path d="M37.3687 26.0389C37.393 23.5998 38.5852 21.3564 40.5194 20.0781C39.9134 19.1514 39.1139 18.3894 38.1846 17.8527C37.2553 17.316 36.2219 17.0195 35.1668 16.9868C32.9284 16.7259 30.7508 18.4216 29.6073 18.4216C28.4394 18.4216 26.6755 17.0129 24.7777 17.052C23.5499 17.0949 22.3534 17.4779 21.3046 18.1636C20.2557 18.8493 19.3903 19.8144 18.7925 20.9651C16.2013 25.7781 18.1356 32.8346 20.6172 36.7215C21.8581 38.6128 23.2936 40.7389 25.2035 40.6606C27.0526 40.5824 27.7582 39.3954 29.9844 39.3954C32.2106 39.3954 32.8554 40.6606 34.7896 40.6215C36.7847 40.5824 38.0377 38.7041 39.2421 36.7867C40.1301 35.4302 40.8236 33.9302 41.2737 32.352C40.1166 31.8269 39.1293 30.9483 38.4349 29.8257C37.7405 28.703 37.3696 27.3861 37.3687 26.0389ZM33.7069 14.4303C34.7947 13.0332 35.3315 11.2364 35.2033 9.42163C33.5366 9.61728 32.0038 10.4651 30.909 11.8086C30.37 12.4654 29.9573 13.2298 29.6942 14.0579C29.4312 14.886 29.3231 15.7617 29.3762 16.6346C30.2067 16.6435 31.0282 16.4497 31.7786 16.0678C32.5289 15.6859 33.1883 15.1259 33.7069 14.4303Z" fill="white"/>
<path d="M62.8549 34.6608H57.1007L55.7139 39.0434H53.2809L58.7309 22.8435H61.2734L66.7234 39.0434H64.2417L62.8549 34.6608ZM57.6968 32.6391H62.2588L60.0082 25.5304H59.9474L57.6968 32.6391ZM78.4992 33.1347C78.4992 36.7999 76.6745 39.1608 73.9008 39.1608C73.2008 39.2008 72.5043 39.0288 71.8912 38.6643C71.2781 38.2999 70.773 37.7577 70.4337 37.0999H70.3851V42.9434H68.1224V27.2261H70.3121V29.1826H70.3486C70.7032 28.5258 71.2176 27.9846 71.8369 27.617C72.4561 27.2494 73.1569 27.0692 73.8643 27.0956C76.6623 27.0956 78.4992 29.4695 78.4992 33.1347ZM76.1757 33.1347C76.1757 30.7478 75.02 29.1695 73.2561 29.1695C71.5408 29.1695 70.3729 30.7739 70.3729 33.1347C70.3729 35.5086 71.5408 37.113 73.2682 37.113C75.02 37.113 76.1757 35.5478 76.1757 33.1347ZM90.6157 33.1347C90.6157 36.7999 88.791 39.1608 86.0295 39.1608C85.3294 39.2008 84.633 39.0288 84.0199 38.6643C83.4067 38.2999 82.9016 37.7577 82.5624 37.0999H82.5016V42.9434H80.251V27.2261H82.4407V29.1826H82.4772C82.8308 28.5278 83.3433 27.9879 83.9603 27.6204C84.5772 27.253 85.2754 27.0716 85.9808 27.0956C88.7788 27.0956 90.6157 29.4695 90.6157 33.1347ZM88.3043 33.1347C88.3043 30.7478 87.1487 29.1695 85.3847 29.1695C83.6573 29.1695 82.5016 30.7739 82.5016 33.1347C82.5016 35.5086 83.6573 37.113 85.3847 37.113C87.1487 37.113 88.3043 35.5478 88.3043 33.1347ZM98.6326 34.5304C98.8029 36.1347 100.251 37.1913 102.246 37.1913C104.156 37.1913 105.53 36.1347 105.53 34.6869C105.53 33.4217 104.691 32.6782 102.732 32.1565L100.786 31.6478C98 30.9304 96.7226 29.5478 96.7226 27.2913C96.7226 24.487 98.9853 22.5696 102.209 22.5696C105.409 22.5696 107.598 24.487 107.671 27.2913H105.384C105.25 25.6739 103.997 24.6826 102.185 24.6826C100.36 24.6826 99.1192 25.6739 99.1192 27.1217C99.1192 28.2565 99.9099 28.9478 101.856 29.4565L103.523 29.8869C106.625 30.6695 107.902 32.013 107.902 34.3739C107.902 37.413 105.652 39.3043 102.075 39.3043C98.7299 39.3043 96.4672 37.4521 96.3212 34.5304H98.6326ZM112.793 24.4348V27.2261H114.885V29.1435H112.793V35.6652C112.793 36.6695 113.206 37.1391 114.131 37.1391C114.374 37.1391 114.618 37.113 114.861 37.0869V38.9912C114.459 39.0825 114.034 39.1217 113.62 39.1086C111.382 39.1086 110.518 38.1956 110.518 35.913V29.1435H108.912V27.2261H110.518V24.4348H112.793ZM116.09 33.1347C116.09 29.4174 118.133 27.0826 121.321 27.0826C124.508 27.0826 126.552 29.4304 126.552 33.1347C126.552 36.8652 124.52 39.1869 121.321 39.1869C118.121 39.1869 116.09 36.8652 116.09 33.1347ZM124.24 33.1347C124.24 30.5913 123.145 29.0913 121.321 29.0913C119.496 29.0913 118.401 30.5913 118.401 33.1347C118.401 35.6913 119.496 37.1782 121.321 37.1782C123.145 37.1782 124.24 35.6913 124.24 33.1347ZM128.413 27.2261H130.566V29.2348H130.615C130.919 27.9435 132.026 27.0565 133.267 27.1087C133.522 27.1087 133.79 27.1348 134.045 27.2V29.4695C133.715 29.3577 133.37 29.3049 133.023 29.313C132.694 29.2973 132.365 29.3587 132.059 29.4929C131.754 29.6271 131.479 29.831 131.255 30.0904C131.03 30.3497 130.861 30.6584 130.759 30.9949C130.657 31.3314 130.624 31.6877 130.663 32.0391V39.0434H128.413V27.2261ZM144.459 35.5739C144.155 37.713 142.208 39.1869 139.714 39.1869C136.515 39.1869 134.532 36.8782 134.532 33.1869C134.532 29.4826 136.527 27.0826 139.629 27.0826C142.67 27.0826 144.592 29.3261 144.592 32.913V33.7347H136.807V33.8913C136.772 34.3258 136.824 34.7633 136.959 35.1748C137.094 35.5863 137.308 35.9624 137.589 36.2781C137.87 36.5938 138.21 36.842 138.587 37.0062C138.963 37.1703 139.369 37.2468 139.775 37.2304C140.87 37.3347 141.904 36.6695 142.318 35.5739H144.459ZM136.819 32.0521H142.33C142.35 31.6613 142.295 31.2703 142.167 30.9035C142.04 30.5366 141.843 30.2019 141.59 29.9203C141.336 29.6387 141.031 29.4162 140.694 29.2669C140.357 29.1175 139.994 29.0444 139.629 29.0522C138.887 29.0522 138.175 29.3682 137.651 29.9308C137.126 30.4934 136.831 31.2565 136.831 32.0521H136.819Z" fill="white"/>
<path d="M57.4167 10.6477C57.8905 10.6127 58.3657 10.6908 58.8079 10.8763C59.2502 11.0619 59.6486 11.3503 59.9744 11.7209C60.3002 12.0914 60.5453 12.5347 60.692 13.019C60.8387 13.5033 60.8835 14.0165 60.823 14.5216C60.823 16.9998 59.57 18.4346 57.4167 18.4346H54.7891V10.6477H57.4167ZM55.9204 17.3259H57.2829C57.6209 17.3468 57.959 17.2871 58.2728 17.151C58.5866 17.0148 58.8683 16.8057 59.0976 16.5386C59.3268 16.2716 59.498 15.9533 59.5986 15.6067C59.6992 15.2602 59.7268 14.894 59.6795 14.5346C59.7268 14.1752 59.6992 13.809 59.5986 13.4625C59.498 13.1159 59.3268 12.7976 59.0976 12.5306C58.8683 12.2635 58.5866 12.0544 58.2728 11.9183C57.959 11.7821 57.6209 11.7224 57.2829 11.7433H55.9204V17.3259ZM62.1003 15.4868C62.076 15.1068 62.1248 14.7255 62.2437 14.3666C62.3626 14.0077 62.549 13.6789 62.7915 13.4005C63.0339 13.1221 63.3271 12.9001 63.6529 12.7484C63.9788 12.5966 64.3302 12.5183 64.6854 12.5183C65.0406 12.5183 65.3921 12.5966 65.7179 12.7484C66.0437 12.9001 66.3369 13.1221 66.5793 13.4005C66.8218 13.6789 67.0082 14.0077 67.1271 14.3666C67.246 14.7255 67.2948 15.1068 67.2705 15.4868C67.2948 15.8668 67.246 16.248 67.1271 16.6069C67.0082 16.9658 66.8218 17.2947 66.5793 17.5731C66.3369 17.8515 66.0437 18.0734 65.7179 18.2252C65.3921 18.377 65.0406 18.4553 64.6854 18.4553C64.3302 18.4553 63.9788 18.377 63.6529 18.2252C63.3271 18.0734 63.0339 17.8515 62.7915 17.5731C62.549 17.2947 62.3626 16.9658 62.2437 16.6069C62.1248 16.248 62.076 15.8668 62.1003 15.4868ZM66.1513 15.4868C66.1513 14.2216 65.6282 13.4781 64.6915 13.4781C63.7426 13.4781 63.2195 14.2216 63.2195 15.4868C63.2195 16.7781 63.7426 17.5085 64.6793 17.5085C65.6282 17.5085 66.1513 16.765 66.1513 15.4868ZM74.1316 18.4346H73.0125L71.8811 14.1042H71.7959L70.6646 18.4346H69.5697L68.0491 12.5651H69.1439L70.1171 17.0389H70.2023L71.3337 12.552H72.3677L73.4991 17.0389H73.5842L74.5574 12.552H75.6401L74.1316 18.4346ZM76.9053 12.5651H77.9515V13.4911H78.0367C78.3165 12.7998 78.9734 12.3824 79.6668 12.4477C79.9332 12.4249 80.2009 12.4669 80.45 12.5705C80.6991 12.6741 80.9232 12.8367 81.1056 13.046C81.2881 13.2554 81.4241 13.5062 81.5035 13.7797C81.583 14.0533 81.6038 14.3425 81.5646 14.6259V18.4346H80.4697V14.9129C80.4697 13.9737 80.1047 13.5042 79.3018 13.5042C79.1204 13.4936 78.9389 13.5254 78.7701 13.5975C78.6012 13.6696 78.449 13.7802 78.324 13.9217C78.199 14.0632 78.1042 14.2321 78.0462 14.4167C77.9882 14.6014 77.9683 14.7974 77.988 14.9911V18.4346H76.9053V12.5651ZM83.292 10.2694H84.3625V18.4346H83.2798L83.292 10.2694ZM85.871 15.4868C85.8467 15.1068 85.8955 14.7255 86.0144 14.3666C86.1333 14.0077 86.3197 13.6789 86.5622 13.4005C86.8046 13.1221 87.0978 12.9001 87.4236 12.7484C87.7495 12.5966 88.1009 12.5183 88.4561 12.5183C88.8113 12.5183 89.1628 12.5966 89.4886 12.7484C89.8144 12.9001 90.1076 13.1221 90.35 13.4005C90.5925 13.6789 90.7789 14.0077 90.8978 14.3666C91.0167 14.7255 91.0655 15.1068 91.0412 15.4868C91.0655 15.8668 91.0167 16.248 90.8978 16.6069C90.7789 16.9658 90.5925 17.2947 90.35 17.5731C90.1076 17.8515 89.8144 18.0734 89.4886 18.2252C89.1628 18.377 88.8113 18.4553 88.4561 18.4553C88.1009 18.4553 87.7495 18.377 87.4236 18.2252C87.0978 18.0734 86.8046 17.8515 86.5622 17.5731C86.3197 17.2947 86.1333 16.9658 86.0144 16.6069C85.8955 16.248 85.8467 15.8668 85.871 15.4868ZM89.922 15.4868C89.922 14.2216 89.3867 13.4781 88.4622 13.4781C87.5133 13.4781 86.9902 14.2216 86.9902 15.4868C86.9902 16.7781 87.5133 17.5085 88.45 17.5085C89.3867 17.5085 89.922 16.765 89.922 15.4868ZM92.1726 16.765C92.1726 15.7216 92.9025 15.1085 94.2163 15.0172L95.7005 14.9259V14.4172C95.7005 13.8042 95.3112 13.452 94.5691 13.452C93.9608 13.452 93.5472 13.6868 93.4377 14.1042H92.3794C92.501 13.0868 93.3769 12.4477 94.6178 12.4477C95.9924 12.4477 96.771 13.1781 96.771 14.4172V18.4346H95.7248V17.5998H95.6396C95.2868 18.2129 94.6664 18.565 93.9973 18.5259C93.7672 18.5514 93.5347 18.5249 93.3147 18.4481C93.0947 18.3713 92.8922 18.2459 92.7202 18.0799C92.5483 17.914 92.4107 17.7112 92.3164 17.4848C92.222 17.2583 92.173 17.0131 92.1726 16.765ZM95.7005 16.2694V15.7737L94.3623 15.865C93.608 15.9172 93.2674 16.2042 93.2674 16.7129C93.2674 17.2346 93.6932 17.5476 94.2771 17.5476C94.4495 17.5674 94.6237 17.5497 94.7895 17.4956C94.9553 17.4415 95.1092 17.3521 95.2421 17.2328C95.375 17.1135 95.484 16.9666 95.5628 16.8011C95.6415 16.6356 95.6884 16.4547 95.7005 16.2694ZM98.1943 15.4868C98.1943 13.6346 99.0824 12.4607 100.469 12.4607C101.163 12.4216 101.82 12.8259 102.148 13.4911H102.221V10.2694H103.316V18.4346H102.27V17.5085H102.184C101.832 18.1607 101.175 18.552 100.469 18.5259C99.0702 18.5259 98.1943 17.352 98.1943 15.4868ZM99.3135 15.4868C99.3135 16.7389 99.8609 17.4824 100.773 17.4824C101.686 17.4824 102.245 16.7259 102.245 15.4998C102.245 14.2737 101.674 13.5042 100.773 13.5042C99.8609 13.5042 99.3135 14.2607 99.3135 15.4868ZM107.78 15.4868C107.756 15.1068 107.805 14.7255 107.924 14.3666C108.043 14.0077 108.229 13.6789 108.472 13.4005C108.714 13.1221 109.007 12.9001 109.333 12.7484C109.659 12.5966 110.01 12.5183 110.366 12.5183C110.721 12.5183 111.072 12.5966 111.398 12.7484C111.724 12.9001 112.017 13.1221 112.259 13.4005C112.502 13.6789 112.688 14.0077 112.807 14.3666C112.926 14.7255 112.975 15.1068 112.951 15.4868C112.975 15.8668 112.926 16.248 112.807 16.6069C112.688 16.9658 112.502 17.2947 112.259 17.5731C112.017 17.8515 111.724 18.0734 111.398 18.2252C111.072 18.377 110.721 18.4553 110.366 18.4553C110.01 18.4553 109.659 18.377 109.333 18.2252C109.007 18.0734 108.714 17.8515 108.472 17.5731C108.229 17.2947 108.043 16.9658 107.924 16.6069C107.805 16.248 107.756 15.8668 107.78 15.4868ZM111.831 15.4868C111.831 14.2216 111.296 13.4781 110.372 13.4781C109.423 13.4781 108.9 14.2216 108.9 15.4868C108.9 16.7781 109.423 17.5085 110.359 17.5085C111.296 17.5085 111.831 16.765 111.831 15.4868ZM114.398 12.5651H115.432V13.4911H115.517C115.797 12.7998 116.454 12.3824 117.16 12.4477C117.425 12.427 117.691 12.4705 117.939 12.5751C118.187 12.6796 118.409 12.8424 118.59 13.0515C118.771 13.2606 118.906 13.5107 118.985 13.7832C119.064 14.0557 119.084 14.3437 119.045 14.6259V18.4346H117.975V14.9129C117.975 13.9737 117.586 13.5042 116.783 13.5042C116.602 13.4955 116.422 13.5288 116.255 13.6018C116.087 13.6747 115.937 13.7856 115.813 13.9269C115.689 14.0681 115.596 14.2364 115.538 14.42C115.481 14.6037 115.462 14.7986 115.481 14.9911V18.4346H114.386V12.5651H114.398ZM125.164 11.0911V12.5911H126.344V13.5564H125.164V16.5824C125.164 17.1955 125.396 17.4694 125.931 17.4694L126.344 17.4433V18.4085C126.15 18.4476 125.955 18.4607 125.761 18.4607C124.544 18.4607 124.082 18.0042 124.082 16.8824V13.5564H123.206V12.5911H124.082V11.0911H125.164ZM127.816 10.2694H128.899V13.5042H128.984C129.276 12.8129 129.945 12.3824 130.651 12.4607C130.915 12.4449 131.179 12.4917 131.425 12.5979C131.67 12.704 131.891 12.8669 132.071 13.0749C132.251 13.2829 132.386 13.5309 132.467 13.8012C132.547 14.0716 132.571 14.3576 132.537 14.639V18.4215H131.454V14.9259C131.454 13.9868 131.04 13.5172 130.286 13.5172C130.1 13.4992 129.912 13.5253 129.736 13.5937C129.56 13.662 129.4 13.771 129.268 13.9128C129.136 14.0547 129.034 14.2259 128.97 14.4145C128.907 14.6031 128.882 14.8044 128.899 15.0042V18.4346H127.816V10.2694ZM138.838 16.8433C138.69 17.3789 138.372 17.8419 137.938 18.1517C137.505 18.4615 136.984 18.5985 136.466 18.5389C136.106 18.548 135.748 18.4732 135.417 18.3199C135.087 18.1666 134.791 17.9383 134.551 17.6507C134.31 17.3632 134.131 17.0231 134.025 16.6541C133.918 16.285 133.888 15.8957 133.936 15.5129C133.889 15.1282 133.919 14.7372 134.025 14.3662C134.131 13.9952 134.31 13.653 134.55 13.3625C134.789 13.0719 135.085 12.84 135.415 12.6821C135.746 12.5243 136.104 12.4444 136.466 12.4477C137.986 12.4477 138.899 13.5564 138.899 15.4085V15.7998H135.043V15.8781C135.026 16.0937 135.051 16.3108 135.117 16.5153C135.183 16.7199 135.288 16.9074 135.425 17.0658C135.563 17.2243 135.729 17.3501 135.915 17.4354C136.1 17.5206 136.301 17.5633 136.502 17.5607C137.025 17.6259 137.536 17.3389 137.804 16.8433H138.838ZM135.043 14.952H137.804C137.818 14.7556 137.793 14.5583 137.731 14.3727C137.67 14.1871 137.573 14.0172 137.448 13.8737C137.322 13.7302 137.17 13.6163 137.001 13.5393C136.832 13.4622 136.65 13.4236 136.466 13.4259C136.278 13.4224 136.091 13.4594 135.917 13.5349C135.743 13.6103 135.585 13.7226 135.452 13.865C135.319 14.0074 135.215 14.1771 135.144 14.3638C135.074 14.5506 135.039 14.7506 135.043 14.952Z" fill="white"/>
</g>
<defs>
<clipPath id="clip0_102_492">
<rect width="166" height="52" fill="white"/>
</clipPath>
</defs>
</svg>
