<svg width="165" height="52" viewBox="0 0 165 52" fill="none" xmlns="http://www.w3.org/2000/svg">
<g clip-path="url(#clip0_102_479)">
<path fill-rule="evenodd" clip-rule="evenodd" d="M9.0167 -0.0870361H155.728C158.989 -0.0870361 160.169 0.27818 161.361 0.956437C162.538 1.62374 163.5 2.65546 164.122 3.91729C164.755 5.19555 165.096 6.46076 165.096 9.94335V42.0563C165.096 45.5388 164.755 46.8041 164.122 48.0823C163.5 49.3442 162.538 50.3759 161.361 51.0432C160.169 51.7214 158.989 52.0866 155.741 52.0866H9.00454C5.75644 52.0866 4.57642 51.7214 3.38424 51.0432C2.20737 50.3759 1.24511 49.3442 0.622748 48.0823C-0.00983971 46.8041 -0.350464 45.5388 -0.350464 42.0563V9.94335C-0.350464 6.46076 -0.00983971 5.19555 0.622748 3.91729C1.24511 2.65546 2.20737 1.62374 3.38424 0.956437C4.57642 0.27818 5.75644 -0.0870361 9.00454 -0.0870361H9.0167Z" fill="#293145"/>
<path fill-rule="evenodd" clip-rule="evenodd" d="M18.8215 38.7432L18.9674 38.7823C18.9181 38.7725 18.8693 38.7595 18.8215 38.7432ZM39.6239 23.8737C40.1713 24.1997 40.5119 24.6302 40.6214 25.0737L40.6457 25.2432C40.5971 25.7389 40.2443 26.2345 39.6117 26.6128L20.3908 38.3127C20.0015 38.5605 19.6244 38.6649 19.2959 38.6649C18.9553 38.6649 18.6633 38.5475 18.42 38.3258L18.347 38.2475C18.0282 37.8351 17.8673 37.3083 17.8969 36.7736V13.7128C17.8969 13.0085 18.0915 12.4737 18.42 12.1476C18.6633 11.9259 18.9553 11.8085 19.2959 11.8085C19.6244 11.8085 20.0015 11.9259 20.3908 12.1607L39.6117 23.8737H39.6239ZM19.2837 11.652H19.454H19.2837ZM130.96 38.2084H133.222V21.9041H130.96V38.2084ZM151.397 27.7736L148.794 34.8432H148.721L146.02 27.7736H143.575L147.626 37.6606L145.315 43.1518H147.687L153.928 27.7736H151.397ZM138.526 36.3562C137.784 36.3562 136.75 35.9649 136.75 34.9736C136.75 33.7084 138.04 33.2258 139.147 33.2258C140.157 33.2258 140.619 33.4606 141.227 33.7736C141.145 34.4816 140.826 35.1336 140.329 35.6085C139.832 36.0834 139.192 36.3491 138.526 36.3562ZM138.806 27.4215C137.152 27.4215 135.461 28.2041 134.755 29.9128L136.763 30.8258C137.2 29.9128 138.003 29.6258 138.831 29.6258C140.011 29.6258 141.203 30.3693 141.227 31.7128V31.8823C140.496 31.4675 139.682 31.2525 138.855 31.2562C136.69 31.2562 134.475 32.5345 134.475 34.9214C134.475 37.1127 136.264 38.5214 138.247 38.5214C139.779 38.5214 140.619 37.7779 141.154 36.9171H141.227V38.1823H143.417V31.9215C143.417 29.0389 141.397 27.4215 138.794 27.4215H138.806ZM124.768 29.7693H121.544V24.1606H124.768C126.471 24.1606 127.444 25.6737 127.444 26.965C127.444 28.2302 126.471 29.7562 124.768 29.7562V29.7693ZM124.719 21.9041H119.269V38.2084H121.544V32.0258H124.707C127.225 32.0258 129.695 30.0693 129.695 26.965C129.695 23.8606 127.225 21.9041 124.707 21.9041H124.719ZM95.0482 36.3562C93.4911 36.3562 92.1773 34.9475 92.1773 33.0171C92.1773 31.0606 93.4911 29.6258 95.0482 29.6258C96.6054 29.6258 97.8219 31.0606 97.8219 33.0171C97.8219 34.9475 96.6054 36.3562 95.0482 36.3562ZM97.6638 28.6867H97.5786C97.2327 28.2842 96.8107 27.9655 96.3408 27.7519C95.8709 27.5382 95.3639 27.4344 94.8536 27.4476C93.5144 27.5018 92.2478 28.1142 91.3231 29.1543C90.3985 30.1944 89.8888 31.5803 89.9024 33.0171C89.8921 34.4491 90.4041 35.8288 91.329 36.862C92.2539 37.8951 93.5187 38.4999 94.8536 38.5475C95.3663 38.5617 95.8757 38.4558 96.3463 38.2373C96.8169 38.0188 97.2375 37.6929 97.5786 37.2823H97.6638V38.0779C97.6638 40.204 96.6054 41.3388 94.9023 41.3388C94.3329 41.3271 93.7798 41.1334 93.3138 40.7825C92.8478 40.4316 92.4902 39.9395 92.2868 39.3692L90.316 40.2432C90.6874 41.2191 91.3226 42.0536 92.1399 42.6394C92.9572 43.2251 93.9192 43.5353 94.9023 43.5301C97.5664 43.5301 99.817 41.8344 99.817 37.7519V27.7867H97.6638V28.6997V28.6867ZM101.386 38.2084H103.661V21.9041H101.386V38.2084ZM107.007 32.8214C106.982 32.418 107.033 32.0133 107.156 31.6312C107.279 31.249 107.472 30.897 107.723 30.5957C107.975 30.2945 108.28 30.0501 108.62 29.8768C108.961 29.7035 109.331 29.6049 109.707 29.5867C110.62 29.5867 111.386 30.0693 111.629 30.7606L107.007 32.8345V32.8214ZM114.062 30.9823C113.637 29.7432 112.323 27.4606 109.634 27.4606C106.97 27.4606 104.756 29.691 104.756 32.991C104.756 36.1084 106.946 38.5475 109.89 38.5475C112.262 38.5475 113.637 36.9823 114.208 36.0823L112.444 34.8301C112.179 35.3002 111.803 35.6881 111.355 35.9556C110.908 36.2232 110.402 36.3612 109.89 36.3562C108.734 36.3562 107.907 35.7953 107.384 34.6736L114.306 31.6084L114.062 30.9823ZM58.9543 29.1562V31.5041H64.1974C64.1218 32.6066 63.7018 33.6497 63.0053 34.4649C62.4781 35.0408 61.844 35.4916 61.1441 35.7882C60.4442 36.0848 59.694 36.2205 58.9421 36.1866C58.1797 36.185 57.4252 36.0212 56.7222 35.7049C56.0192 35.3885 55.3817 34.9258 54.8466 34.3436C54.3115 33.7614 53.8893 33.0711 53.6046 32.3128C53.32 31.5545 53.1783 30.7432 53.188 29.9258C53.1737 28.7121 53.4929 27.5208 54.1058 26.5003C54.7187 25.4798 55.5982 24.6753 56.6346 24.1871C57.6711 23.6989 58.8186 23.5486 59.9342 23.755C61.0497 23.9614 62.084 24.5152 62.9079 25.3476L64.4529 23.6911C63.7279 22.9222 62.867 22.3161 61.9207 21.9085C60.9744 21.5009 59.9618 21.2998 58.9421 21.3172C56.8013 21.3169 54.7464 22.2197 53.2213 23.8305C51.6962 25.4413 50.8234 27.6307 50.7915 29.9258C50.8234 32.2209 51.6962 34.4103 53.2213 36.0211C54.7464 37.6319 56.8013 38.5347 58.9421 38.5345C61.3386 38.5345 63.1391 37.6997 64.5502 36.1214C65.8292 34.623 66.5104 32.6473 66.448 30.6171C66.448 30.0693 66.4115 29.5736 66.3263 29.1562H58.9421H58.9543ZM72.4211 36.3562C70.8518 36.3562 69.5014 34.9736 69.5014 32.991C69.5014 30.9954 70.8518 29.6389 72.4211 29.6389C74.0026 29.6389 75.3407 30.9954 75.3407 32.991C75.3407 34.9736 74.0026 36.3562 72.4211 36.3562ZM72.4211 27.4476C71.7378 27.4353 71.0592 27.5701 70.4254 27.844C69.7916 28.1179 69.2155 28.5254 68.7312 29.0422C68.2468 29.5591 67.8641 30.1749 67.6057 30.8532C67.3473 31.5314 67.2183 32.2584 67.2266 32.991C67.2167 33.7247 67.3444 34.4531 67.6021 35.1329C67.8598 35.8127 68.2423 36.43 68.7268 36.9483C69.2113 37.4665 69.7879 37.8752 70.4226 38.1499C71.0572 38.4246 71.7368 38.5598 72.4211 38.5475C73.1054 38.5598 73.785 38.4246 74.4196 38.1499C75.0542 37.8752 75.6309 37.4665 76.1154 36.9483C76.5999 36.43 76.9823 35.8127 77.2401 35.1329C77.4978 34.4531 77.6255 33.7247 77.6156 32.991C77.6238 32.2584 77.4949 31.5314 77.2365 30.8532C76.978 30.1749 76.5953 29.5591 76.111 29.0422C75.6266 28.5254 75.0505 28.1179 74.4167 27.844C73.7829 27.5701 73.1043 27.4353 72.4211 27.4476ZM83.759 36.3562C82.1775 36.3562 80.8394 34.9736 80.8394 32.991C80.8394 30.9954 82.1775 29.6389 83.759 29.6389C85.3161 29.6389 86.6786 30.9954 86.6786 32.991C86.6786 34.9736 85.3161 36.3562 83.759 36.3562ZM83.759 27.4476C83.0757 27.4353 82.3971 27.5701 81.7633 27.844C81.1295 28.1179 80.5534 28.5254 80.0691 29.0422C79.5848 29.5591 79.2021 30.1749 78.9436 30.8532C78.6852 31.5314 78.5563 32.2584 78.5645 32.991C78.5546 33.7247 78.6823 34.4531 78.94 35.1329C79.1977 35.8127 79.5802 36.43 80.0647 36.9483C80.5492 37.4665 81.1259 37.8752 81.7605 38.1499C82.3951 38.4246 83.0747 38.5598 83.759 38.5475C84.4433 38.5598 85.1229 38.4246 85.7575 38.1499C86.3921 37.8752 86.9688 37.4665 87.4533 36.9483C87.9378 36.43 88.3203 35.8127 88.578 35.1329C88.8357 34.4531 88.9634 33.7247 88.9535 32.991C88.9617 32.2584 88.8328 31.5314 88.5744 30.8532C88.3159 30.1749 87.9332 29.5591 87.4489 29.0422C86.9646 28.5254 86.3885 28.1179 85.7547 27.844C85.1209 27.5701 84.4422 27.4353 83.759 27.4476Z" fill="white"/>
<path fill-rule="evenodd" clip-rule="evenodd" d="M57.4947 13.126C57.4947 14.1042 57.2271 14.8868 56.6797 15.4738C56.0714 16.1651 55.2564 16.5173 54.271 16.5173C53.3221 16.5173 52.507 16.1651 51.8379 15.4607C51.5164 15.121 51.2631 14.7143 51.0937 14.2656C50.9242 13.817 50.8422 13.336 50.8526 12.8521C50.8526 11.8086 51.181 10.9216 51.8501 10.2173C52.507 9.51294 53.3099 9.16077 54.271 9.16077C54.7332 9.16077 55.1834 9.26511 55.6091 9.46076C56.0471 9.65642 56.3877 9.91728 56.6432 10.2434L56.0592 10.8564C55.8398 10.5809 55.5647 10.3625 55.2549 10.2179C54.9451 10.0732 54.6086 10.0061 54.271 10.0216C53.5776 10.0216 52.9815 10.2825 52.4705 10.8042C51.9718 11.326 51.7163 12.0042 51.7163 12.839C51.7163 13.6738 51.9596 14.352 52.4705 14.8738C52.9815 15.3955 53.5654 15.6564 54.271 15.6564C55.0009 15.6564 55.6091 15.3955 56.0957 14.8738C56.412 14.5216 56.6067 14.052 56.6553 13.439H54.271V12.5912H57.4461C57.4826 12.7738 57.4947 12.9564 57.4947 13.1129" fill="white"/>
<path fill-rule="evenodd" clip-rule="evenodd" d="M57.4945 13.126H57.385C57.385 14.0913 57.1174 14.8217 56.6065 15.3956C55.9982 16.0608 55.2318 16.3999 54.2708 16.3999C53.3462 16.3999 52.5676 16.0608 51.9229 15.3826C51.6074 15.0528 51.3592 14.6566 51.1938 14.2188C51.0284 13.781 50.9494 13.3112 50.9618 12.8391C50.9618 11.8217 51.2781 10.9869 51.935 10.2956C52.2394 9.96466 52.6035 9.70373 53.0051 9.5288C53.4067 9.35386 53.8374 9.26861 54.2708 9.27824C54.7209 9.27824 55.1588 9.36954 55.5724 9.56519C55.986 9.76084 56.3023 10.0087 56.5578 10.3217L56.643 10.2435L56.5578 10.1652L55.986 10.7782L56.059 10.8565L56.1442 10.7913C55.6941 10.2043 55.0493 9.90432 54.2708 9.90432C53.5408 9.90432 52.9204 10.1782 52.3973 10.7261C51.8742 11.2608 51.6066 11.9782 51.6066 12.8391C51.6066 13.7 51.8742 14.4043 52.3973 14.9521C52.9204 15.4999 53.553 15.7739 54.2708 15.7739C55.025 15.7739 55.6697 15.4999 56.1807 14.9521C56.5213 14.5869 56.716 14.0782 56.7646 13.4521V13.3217H54.3924V12.7087H57.458V12.5913L57.3485 12.6174C57.385 12.7869 57.3972 12.9565 57.3972 13.126H57.6162C57.6162 12.9434 57.604 12.7608 57.5675 12.5782L57.5553 12.4739H54.1491V13.5565H56.643V13.4391H56.5213C56.4848 14.026 56.3023 14.4695 56.0104 14.7826C55.5359 15.2913 54.9642 15.5391 54.2586 15.5391C53.5895 15.5391 53.0177 15.2782 52.5311 14.7826C52.0445 14.2869 51.8012 13.6478 51.8012 12.8391C51.8012 12.0304 52.0445 11.4043 52.5311 10.8826C53.0177 10.3869 53.5895 10.1391 54.2586 10.1391C54.9885 10.1391 55.5481 10.4 55.9617 10.9348L56.0469 11.0391L56.7038 10.3217L56.7768 10.2565L56.7159 10.1652C56.4245 9.80462 56.0577 9.52305 55.6454 9.34346C55.2106 9.14546 54.7431 9.04343 54.2708 9.04346C53.2975 9.04346 52.446 9.40867 51.7769 10.1391C51.4422 10.4872 51.1777 10.9053 50.9998 11.3675C50.822 11.8297 50.7345 12.3261 50.7429 12.826C50.7429 13.8956 51.0835 14.8086 51.7769 15.5391C52.1022 15.8916 52.4911 16.1694 52.9199 16.3556C53.3487 16.5417 53.8083 16.6322 54.2708 16.6217C55.2805 16.6217 56.1199 16.2565 56.7524 15.5391L56.6795 15.4608L56.7524 15.5521C57.3242 14.9391 57.604 14.1173 57.604 13.113H57.4945V13.126ZM62.5431 10.1782H59.5504V12.4217H62.2511V13.2565H59.5504V15.4999H62.5431V16.3608H58.711V9.31737H62.5431V10.1782Z" fill="white"/>
<path fill-rule="evenodd" clip-rule="evenodd" d="M62.5431 10.1782V10.0608H59.441V12.5391H62.1416V13.1391H59.441V15.6173H62.4336V16.2434H58.8205V9.43473H62.4336V10.1782H62.5431V10.0608V10.1913H62.6526V9.19995H58.6016V16.4782H62.6526V15.3825H59.6599V13.3738H62.3606V12.3043H59.6599V10.2956H62.6526V10.1782H62.5309H62.5431ZM66.0953 16.3608H65.2559V10.1782H63.4311V9.31734H67.9322V10.1782H66.1075V16.3608" fill="white"/>
<path fill-rule="evenodd" clip-rule="evenodd" d="M66.0955 16.3608V16.2434H65.3656V10.0608H63.5408V9.43473H67.823V10.0608H65.9982V16.3608H66.0955V16.2434V16.3738H66.2172V10.2956H68.0419V9.19995H63.3097V10.2956H65.1466V16.4782H66.205V16.3608H66.0955ZM71.2049 16.3608H72.0564V9.31734H71.2049V16.3608Z" fill="white"/>
<path fill-rule="evenodd" clip-rule="evenodd" d="M71.2047 16.3608H71.3142V9.44778H71.9346V16.2434H71.2047V16.3738H71.3142H71.1925V16.4782H72.1657V9.19995H71.0952V16.4782H71.2047V16.3608ZM75.791 16.3608H74.9394V10.1782H73.1146V9.31734H77.6157V10.1782H75.791V16.3608Z" fill="white"/>
<path fill-rule="evenodd" clip-rule="evenodd" d="M75.7907 16.3608V16.2434H75.0608V10.0609H73.2239V9.43478H77.506V10.0609H75.6812V16.3608H75.7907V16.2434V16.3739H75.9002V10.2956H77.725V9.2H73.0049V10.2956H74.8297V16.4782H75.9002V16.3608H75.7785H75.7907ZM81.9706 14.8608C82.4572 15.3826 83.0655 15.6434 83.7589 15.6434C84.4645 15.6434 85.0606 15.3826 85.5472 14.8608C86.0338 14.3391 86.2771 13.6608 86.2771 12.8391C86.2771 12.0174 86.0338 11.3522 85.5472 10.8174C85.0606 10.2956 84.4645 10.0348 83.7589 10.0348C83.0533 10.0348 82.4572 10.2956 81.9706 10.8174C81.484 11.3391 81.2407 12.0174 81.2407 12.8391C81.2407 13.6608 81.484 14.3391 81.9706 14.8608ZM86.1676 15.4478C85.5228 16.1652 84.7199 16.5174 83.7589 16.5174C82.7978 16.5174 81.9949 16.1652 81.3502 15.4478C81.0331 15.1051 80.7836 14.6976 80.6164 14.2495C80.4492 13.8013 80.3678 13.3217 80.377 12.8391C80.3672 12.3576 80.4476 11.8789 80.6135 11.4313C80.7794 10.9837 81.0273 10.5764 81.3427 10.2334C81.658 9.89044 82.0344 9.6188 82.4494 9.43456C82.8644 9.25033 83.3097 9.15726 83.7589 9.16087C84.2081 9.15726 84.6533 9.25033 85.0684 9.43456C85.4834 9.6188 85.8597 9.89044 86.1751 10.2334C86.4904 10.5764 86.7384 10.9837 86.9043 11.4313C87.0701 11.8789 87.1506 12.3576 87.1408 12.8391C87.1408 13.8695 86.8123 14.7435 86.1676 15.4478Z" fill="white"/>
<path fill-rule="evenodd" clip-rule="evenodd" d="M81.9708 14.8608L81.8978 14.9391C82.4087 15.4869 83.0291 15.7738 83.7591 15.7738C84.489 15.7738 85.1216 15.4869 85.6203 14.9391C86.1313 14.3912 86.3867 13.6869 86.3867 12.8521C86.3867 11.9912 86.1313 11.2869 85.6203 10.7391C85.3805 10.4699 85.0914 10.2567 84.7711 10.1131C84.4508 9.96943 84.1062 9.89835 83.7591 9.9043C83.0291 9.9043 82.4087 10.1913 81.8978 10.7391C81.6444 11.0155 81.4458 11.344 81.3141 11.705C81.1824 12.0659 81.1202 12.4517 81.1314 12.8391C81.1314 13.6869 81.3869 14.4043 81.8978 14.9391L82.0559 14.7825C81.8212 14.5271 81.6375 14.223 81.5162 13.8888C81.3948 13.5547 81.3384 13.1974 81.3504 12.8391C81.3504 12.0565 81.5937 11.4043 82.0559 10.8956C82.2762 10.651 82.5411 10.4576 82.8341 10.3274C83.1271 10.1973 83.442 10.1332 83.7591 10.1391C84.4403 10.1391 84.9999 10.3999 85.4622 10.8956C85.9366 11.4173 86.1678 12.0434 86.1678 12.8521C86.1678 13.6347 85.9245 14.2738 85.4622 14.7825C84.9999 15.2912 84.4403 15.5391 83.7591 15.5391C83.442 15.545 83.1271 15.4809 82.8341 15.3507C82.5411 15.2206 82.2762 15.0272 82.0559 14.7825L81.9708 14.8608ZM86.1678 15.4478L86.0948 15.3695C85.4622 16.0608 84.6958 16.3999 83.7591 16.413C83.3253 16.4148 82.8955 16.3235 82.4952 16.1444C82.0949 15.9653 81.7321 15.702 81.4282 15.3701C81.1243 15.0382 80.8855 14.6444 80.7259 14.2119C80.5663 13.7795 80.489 13.3171 80.4988 12.8521C80.4874 12.386 80.5634 11.9223 80.7223 11.4883C80.8812 11.0543 81.1197 10.6589 81.4237 10.3256C81.7278 9.99232 82.0912 9.72787 82.4923 9.54795C82.8935 9.36803 83.3242 9.27631 83.7591 9.27821C84.6958 9.27821 85.4622 9.61734 86.0826 10.3217C86.7152 11.013 87.0315 11.8478 87.0315 12.8391C87.0315 13.8434 86.7152 14.6782 86.0948 15.3695L86.2529 15.5391C86.9098 14.8086 87.2505 13.8956 87.2505 12.8391C87.2602 12.3421 87.177 11.8482 87.0056 11.3864C86.8342 10.9245 86.5782 10.5043 86.2527 10.1504C85.9271 9.7965 85.5387 9.51621 85.1104 9.32608C84.6821 9.13594 84.2226 9.03983 83.7591 9.04343C83.2965 9.04158 82.8383 9.13898 82.4114 9.3299C81.9845 9.52081 81.5976 9.80138 81.2734 10.1551C80.9492 10.5088 80.6942 10.9285 80.5236 11.3894C80.353 11.8504 80.2701 12.3432 80.2798 12.8391C80.2798 13.8956 80.6083 14.7956 81.2774 15.5391C81.9343 16.2695 82.7737 16.6347 83.7591 16.6347C84.7444 16.6347 85.5838 16.2695 86.2529 15.5391L86.1678 15.4478ZM88.3332 16.3608V9.31734H89.355L92.5423 14.7956H92.5788L92.5423 13.4391V9.31734H93.3939V16.3608H92.5058L89.1604 10.6217H89.1239L89.1604 11.9782V16.3608H88.321" fill="white"/>
<path fill-rule="evenodd" clip-rule="evenodd" d="M88.3331 16.3608H88.4304V9.44778H89.282L92.4814 14.926H92.6882L92.6517 13.4391V9.43473H93.2721V16.2434H92.5665L89.2211 10.5043H89.0143L89.0508 11.9782V16.2434H88.3209V16.3738H88.4426H88.3209V16.4782H89.2698V11.9782L89.2333 10.6086H89.1238V10.7391H89.1603V10.6086L89.0752 10.6739L92.4449 16.4782H93.4911V9.19995H92.4327V13.4391L92.4692 14.7956H92.5787V14.6782H92.5422V14.8086L92.6395 14.7304L89.4158 9.19995H88.2114V16.4782H88.3331V16.3608Z" fill="white"/>
</g>
<defs>
<clipPath id="clip0_102_479">
<rect width="165" height="52" fill="white"/>
</clipPath>
</defs>
</svg>
