<svg width="408" height="344" viewBox="0 0 408 344" fill="none" xmlns="http://www.w3.org/2000/svg">
<g clip-path="url(#clip0_102_312)">
<path d="M458 308.4H-42V308.65H458V308.4Z" fill="#EBEBEB"/>
<path d="M407.9 324.49H374.78V324.74H407.9V324.49Z" fill="#EBEBEB"/>
<path d="M289.22 327.21H280.53V327.46H289.22V327.21Z" fill="#EBEBEB"/>
<path d="M373.78 315.21H354.59V315.46H373.78V315.21Z" fill="#EBEBEB"/>
<path d="M53.65 316.89H10.46V317.14H53.65V316.89Z" fill="#EBEBEB"/>
<path d="M68.8901 316.89H62.5601V317.14H68.8901V316.89Z" fill="#EBEBEB"/>
<path d="M183.15 321.11H89.47V321.36H183.15V321.11Z" fill="#EBEBEB"/>
<path d="M88.9999 305.14H19.9299C27.4199 298.26 45.0499 298.68 45.0499 298.68C45.0499 298.68 32.8199 285.55 37.3299 277.12C41.8399 268.69 53.9199 287.17 53.9199 287.17C53.9199 287.17 38.7299 259.68 44.3799 252.83C50.0299 245.98 65.2199 282.93 65.2199 282.93C65.2199 282.93 55.9899 243.82 61.5399 242.71C67.0899 241.6 72.8899 279.8 72.8899 279.8C72.8899 279.8 70.8899 244.88 75.5599 245.88C80.2299 246.88 77.9999 292.44 77.9999 292.44C77.9999 292.44 82.6999 269.19 84.6999 276.61C86.6999 284.03 82.6999 299.92 82.6999 299.92C84.2156 299.832 85.7085 300.321 86.8776 301.29C88.0467 302.258 88.8051 303.634 88.9999 305.14Z" fill="#E0E0E0"/>
<path d="M125.24 305.14H214.93C205.21 296.21 182.31 296.76 182.31 296.76C182.31 296.76 198.19 279.69 192.31 268.76C186.43 257.83 170.78 281.76 170.78 281.76C170.78 281.76 190.5 246.06 183.16 237.16C175.82 228.26 156.11 276.26 156.11 276.26C156.11 276.26 168.11 225.47 160.88 224.03C153.65 222.59 146.15 272.19 146.15 272.19C146.15 272.19 148.74 226.85 142.67 228.14C136.6 229.43 139.55 288.61 139.55 288.61C139.55 288.61 133.45 258.42 130.84 268.05C128.23 277.68 133.45 298.32 133.45 298.32C127.47 298.44 125.74 302.55 125.24 305.14Z" fill="#E0E0E0"/>
<path d="M207.48 305.14H276.55C269.06 298.26 251.43 298.68 251.43 298.68C251.43 298.68 263.66 285.55 259.15 277.12C254.64 268.69 242.56 287.17 242.56 287.17C242.56 287.17 257.75 259.68 252.1 252.83C246.45 245.98 231.26 282.93 231.26 282.93C231.26 282.93 240.49 243.82 234.94 242.71C229.39 241.6 223.59 279.8 223.59 279.8C223.59 279.8 225.59 244.88 220.92 245.88C216.25 246.88 218.51 292.44 218.51 292.44C218.51 292.44 213.81 269.19 211.81 276.61C209.81 284.03 213.81 299.92 213.81 299.92C212.289 299.824 210.789 300.31 209.613 301.279C208.438 302.248 207.675 303.629 207.48 305.14Z" fill="#E0E0E0"/>
<path d="M72.59 305.14C69.53 258.14 62.16 137.87 63.2 86.99L58.29 86.66C58.29 86.66 53.39 239.94 56.07 305.14H72.59Z" fill="#E0E0E0"/>
<path d="M61.89 108.01L74.5 97.76L75.76 91.4L83.33 79.85L84.96 79.26L77.49 92.32L77.19 96.7L88.54 94.62L93.29 85.85L98.3 81.92L99.05 83.22L94.78 87.03L91.28 96.39L75.74 100.3L59.53 119.95L61.89 108.01Z" fill="#E0E0E0"/>
<path d="M59.42 98.48L58.81 102.78L45.18 89.73L36.78 88.07L30.3 83.6L30.74 83.17L36.9 87.09L43.72 87.41L37.26 79.38L30.9 74.75L31.33 74.48L37.71 78.61L48.21 89.24L47.17 79.52L44.74 75.39L44.5 74.25L47.56 78.75L55.54 76.12L56.21 76.62L48.02 79.53L49.5 90.25L59.42 98.48Z" fill="#E0E0E0"/>
<path d="M104.79 81.74C105.1 80 102.34 78.74 99.3599 78.55C97.1649 78.4073 94.9866 78.0727 92.8499 77.55C93.1299 76.93 92.9299 76.18 93.3299 75.1C94.1999 72.74 93.7299 71.15 91.1199 69.1C88.5099 67.05 85.8799 67.45 80.1199 68.1C74.3599 68.75 75.1999 66.18 70.0399 63.71C64.8799 61.24 46.9099 62.27 43.5999 64.57C41.5999 65.95 33.8499 65.14 31.6999 68.52C29.5499 71.9 16.8399 71 18.5199 74C20.1999 77 22.2299 77.07 21.8899 82C21.5499 86.93 26.0199 85.28 30.4799 87.13C34.9399 88.98 34.3399 85.51 37.2599 85.29C40.1799 85.07 39.3699 84.77 42.3699 83.38C45.3699 81.99 44.9499 83.74 49.7099 86.13C52.3299 87.45 53.2999 85.85 54.1099 84.13C54.5999 85.24 54.0499 86.86 55.0299 88.74C55.8199 90.24 58.9699 90.58 61.9699 90.3C65.2599 96.54 66.6699 91.3 70.7899 91.78C75.1399 92.25 81.6799 88.78 84.7399 88.45C87.7999 88.12 88.0099 87.3 91.1699 89.76C94.3299 92.22 107.98 87.42 109.27 84.95C110.56 82.48 104.48 83.48 104.79 81.74Z" fill="#E0E0E0"/>
<path d="M161 305.14C158.1 259.19 153 170.49 153.77 130.91L149.57 130.63C149.57 130.63 145.92 244.51 147.29 305.14H161Z" fill="#E0E0E0"/>
<path d="M152.62 148.89L163.4 140.12L164.48 134.68L170.95 124.81L172.34 124.3L165.96 135.46L165.7 139.22L175.41 137.43L179.47 129.94L183.76 126.57L184.4 127.68L180.75 130.94L177.75 138.95L164.46 142.29L150.59 159.09L152.62 148.89Z" fill="#E0E0E0"/>
<path d="M150.5 140.74L149.98 144.41L138.32 133.25L131.14 131.83L125.6 128.01L125.98 127.64L131.24 130.99L137.07 131.27L131.55 124.4L126.11 120.44L126.48 120.21L131.94 123.74L140.92 132.83L140.03 124.52L137.94 120.98L137.74 120.01L140.36 123.86L147.19 121.61L147.76 122.04L140.76 124.53L142.02 133.7L150.5 140.74Z" fill="#E0E0E0"/>
<path d="M189.31 126.42C189.57 124.93 187.21 123.87 184.67 123.69C182.788 123.563 180.92 123.269 179.09 122.81C179.33 122.28 179.16 121.63 179.5 120.71C180.25 118.71 179.85 117.34 177.62 115.58C175.39 113.82 173.13 114.17 168.24 114.74C163.35 115.31 164.04 113.1 159.62 110.99C155.2 108.88 139.84 109.76 137.01 111.72C135.31 112.9 128.67 112.22 126.83 115.11C124.99 118 114.09 117.26 115.53 119.77C116.97 122.28 118.69 122.4 118.41 126.6C118.13 130.8 121.93 129.4 125.75 130.98C129.57 132.56 129.06 129.6 131.55 129.41C134.04 129.22 133.36 128.97 135.92 127.78C138.48 126.59 138.13 128.08 142.2 130.13C144.44 131.26 145.27 129.89 145.97 128.46C146.38 129.41 145.91 130.8 146.75 132.4C147.42 133.69 150.12 133.98 152.68 133.74C155.49 139.08 156.68 134.62 160.23 135.01C163.94 135.41 169.54 132.47 172.16 132.16C174.78 131.85 174.95 131.16 177.66 133.28C180.37 135.4 192.04 131.28 193.14 129.16C194.24 127.04 189 127.91 189.31 126.42Z" fill="#E0E0E0"/>
<path d="M127.82 259.31C126.89 252.73 109.38 117.44 105.41 33.5H98.8501C98.8501 33.5 102.54 203.09 113.53 264.91L127.82 259.31Z" fill="#E6E6E6"/>
<path d="M44.9199 305.14H219.05C200.16 294.84 155.72 295.48 155.72 295.48C155.72 295.48 186.55 275.81 175.18 263.21C163.81 250.61 133.37 278.21 133.37 278.21C133.37 278.21 171.65 237.07 157.37 226.81C143.09 216.55 104.84 271.87 104.84 271.87C104.84 271.87 128.09 213.33 114.11 211.67C100.13 210.01 85.4999 267.18 85.4999 267.18C85.4999 267.18 90.4999 214.92 78.7499 216.41C66.9999 217.9 72.6799 286.1 72.6799 286.1C72.6799 286.1 60.8399 251.31 55.7799 262.4C50.7199 273.49 60.8599 297.29 60.8599 297.29C49.2299 297.42 45.8799 302.16 44.9199 305.14Z" fill="#F0F0F0"/>
<path d="M105.57 61.59L121.43 46.82L122.53 38.24L131.57 22.18L133.68 21.25L124.91 39.3V45.16L139.83 41.37L145.37 29.28L151.68 23.58L152.79 25.24L147.45 30.7L143.64 43.48L123.31 50.09L103.49 77.69L105.57 61.59Z" fill="#E6E6E6"/>
<path d="M101.41 49.14L100.99 54.9L81.6701 38.77L70.3401 37.31L61.3101 31.94L61.8701 31.33L70.4101 35.99L79.5201 35.82L70.1901 25.7L61.3101 20.11L61.8701 19.71L70.7301 24.64L85.6601 37.84L83.4001 24.99L79.7901 19.71L79.3701 18.22L83.8601 23.94L94.2401 19.71L95.1701 20.32L84.5401 24.94L87.4701 39.07L101.41 49.14Z" fill="#E6E6E6"/>
<path d="M160.3 22.76C160.55 20.42 156.77 19.01 152.79 19.01C149.853 18.9995 146.922 18.7386 144.03 18.23C144.34 17.37 144.03 16.38 144.44 14.91C145.39 11.7 144.63 9.62 140.96 7.13C137.29 4.64 133.83 5.4 126.28 6.81C118.73 8.22 119.57 4.7 112.47 1.88C105.37 -0.940003 81.5599 2.05 77.3599 5.4C74.8399 7.4 64.4299 7.04 61.8699 11.74C59.3099 16.44 42.2699 16.43 44.7699 20.18C47.2699 23.93 49.9999 23.94 49.9999 30.51C49.9999 37.08 55.7799 34.51 61.8899 36.51C67.9999 38.51 66.8899 34.01 70.7499 33.45C74.6099 32.89 73.5099 32.57 77.3799 30.45C81.2499 28.33 80.8399 30.69 87.3799 33.45C90.9899 34.97 92.1399 32.76 93.0699 30.45C93.8099 31.89 93.2399 34.1 94.7099 36.51C95.8899 38.44 100.12 38.6 104.08 37.96C109.02 45.96 110.43 38.96 115.96 39.14C121.78 39.37 130.18 34.21 134.23 33.45C138.28 32.69 138.47 31.63 142.91 34.61C147.35 37.59 165.07 29.99 166.56 26.61C168.05 23.23 160.05 25.11 160.3 22.76Z" fill="#F0F0F0"/>
<path d="M384 32.08C384 30.2845 383.287 28.5625 382.017 27.2929C380.747 26.0233 379.025 25.31 377.23 25.31C376.572 25.3095 375.919 25.4072 375.29 25.6C375.587 23.5643 375.442 21.4885 374.866 19.5136C374.29 17.5386 373.296 15.7108 371.95 14.1542C370.605 12.5975 368.941 11.3486 367.071 10.492C365.2 9.63546 363.167 9.19141 361.11 9.19001C360.224 9.19202 359.34 9.27571 358.47 9.44001C357.059 7.11698 354.931 5.31613 352.406 4.30944C349.882 3.30275 347.098 3.14489 344.476 3.85972C341.854 4.57455 339.535 6.12324 337.871 8.27188C336.207 10.4205 335.287 13.0524 335.25 15.77H335.04C333.495 15.7245 331.957 15.9895 330.517 16.5493C329.076 17.109 327.763 17.9521 326.654 19.0286C325.545 20.1052 324.664 21.3933 324.062 22.8166C323.46 24.24 323.15 25.7696 323.15 27.315C323.15 28.8604 323.46 30.39 324.062 31.8134C324.664 33.2367 325.545 34.5248 326.654 35.6014C327.763 36.6779 329.076 37.521 330.517 38.0808C331.957 38.6405 333.495 38.9055 335.04 38.86H377.42C379.184 38.8105 380.859 38.074 382.088 36.8076C383.317 35.5411 384.003 33.8448 384 32.08Z" fill="#F5F5F5"/>
<path d="M237.92 95.28C237.92 94.3914 237.745 93.5116 237.404 92.6908C237.064 91.8699 236.565 91.1243 235.936 90.4964C235.308 89.8686 234.561 89.3708 233.74 89.0317C232.919 88.6926 232.038 88.5187 231.15 88.52C230.493 88.5204 229.84 88.6147 229.21 88.8C229.507 86.7618 229.362 84.6834 228.784 82.7063C228.206 80.7293 227.209 78.8999 225.861 77.3428C224.512 75.7857 222.844 74.5373 220.97 73.6826C219.096 72.828 217.06 72.3871 215 72.39C214.114 72.392 213.23 72.4757 212.36 72.64C210.939 70.3314 208.809 68.5457 206.287 67.5508C203.766 66.5559 200.99 66.4055 198.376 67.1221C195.761 67.8387 193.45 69.3838 191.788 71.5254C190.127 73.667 189.205 76.2897 189.16 79H189C187.455 78.9545 185.917 79.2195 184.477 79.7793C183.036 80.339 181.723 81.1821 180.614 82.2587C179.505 83.3352 178.624 84.6233 178.022 86.0466C177.42 87.47 177.11 88.9996 177.11 90.545C177.11 92.0904 177.42 93.62 178.022 95.0434C178.624 96.4667 179.505 97.7548 180.614 98.8314C181.723 99.9079 183.036 100.751 184.477 101.311C185.917 101.87 187.455 102.135 189 102.09H231.38C233.143 102.033 234.814 101.288 236.036 100.016C237.258 98.7436 237.934 97.044 237.92 95.28Z" fill="#F5F5F5"/>
<path d="M395.15 178.69C395.15 176.895 394.437 175.173 393.167 173.903C391.897 172.633 390.175 171.92 388.38 171.92C387.722 171.92 387.069 172.017 386.44 172.21C386.737 170.174 386.592 168.098 386.016 166.124C385.44 164.149 384.445 162.321 383.1 160.764C381.755 159.208 380.091 157.959 378.221 157.102C376.35 156.245 374.317 155.801 372.26 155.8C371.374 155.802 370.49 155.886 369.62 156.05C368.209 153.727 366.081 151.926 363.556 150.919C361.032 149.913 358.248 149.755 355.626 150.47C353.004 151.185 350.685 152.733 349.021 154.882C347.357 157.031 346.437 159.662 346.4 162.38H346.19C343.129 162.38 340.194 163.596 338.03 165.76C335.866 167.924 334.65 170.859 334.65 173.92C334.65 176.981 335.866 179.916 338.03 182.08C340.194 184.244 343.129 185.46 346.19 185.46H388.57C390.332 185.411 392.006 184.675 393.235 183.411C394.463 182.147 395.151 180.453 395.15 178.69Z" fill="#F5F5F5"/>
<path d="M56.81 148.15C56.8074 147.066 56.3756 146.027 55.6092 145.261C54.8427 144.494 53.804 144.063 52.72 144.06C52.3201 144.063 51.9227 144.124 51.54 144.24C51.719 143.012 51.6322 141.76 51.2856 140.569C50.9391 139.377 50.3408 138.274 49.5312 137.333C48.7216 136.393 47.7196 135.637 46.5929 135.117C45.4661 134.598 44.2409 134.326 43 134.32C42.4664 134.319 41.934 134.369 41.41 134.47C40.5494 133.083 39.2638 132.012 37.7448 131.416C36.2258 130.819 34.5548 130.73 32.9808 131.16C31.4067 131.591 30.014 132.519 29.0101 133.805C28.0062 135.092 27.445 136.668 27.41 138.3H27.28C25.4235 138.3 23.643 139.037 22.3303 140.35C21.0175 141.663 20.28 143.443 20.28 145.3C20.28 147.157 21.0175 148.937 22.3303 150.25C23.643 151.562 25.4235 152.3 27.28 152.3H52.83C53.9061 152.271 54.9273 151.819 55.6724 151.042C56.4174 150.266 56.8262 149.226 56.81 148.15Z" fill="#F5F5F5"/>
<path d="M273.73 19.73C273.73 19.0928 273.581 18.4643 273.296 17.8948C273.01 17.3253 272.595 16.8304 272.084 16.4496C271.573 16.0688 270.98 15.8127 270.353 15.7017C269.725 15.5906 269.081 15.6277 268.47 15.81C268.649 14.5796 268.562 13.325 268.213 12.1314C267.865 10.9377 267.264 9.83298 266.451 8.89207C265.638 7.95116 264.633 7.1961 263.502 6.67811C262.372 6.16013 261.143 5.89135 259.9 5.89C259.363 5.89389 258.828 5.94407 258.3 6.04C257.439 4.6535 256.154 3.58222 254.635 2.98584C253.116 2.38945 251.445 2.29989 249.871 2.7305C248.297 3.16112 246.904 4.08884 245.9 5.37541C244.896 6.66198 244.335 8.2385 244.3 9.87H244.18C242.323 9.87 240.543 10.6075 239.23 11.9202C237.917 13.233 237.18 15.0135 237.18 16.87C237.18 18.7265 237.917 20.507 239.23 21.8197C240.543 23.1325 242.323 23.87 244.18 23.87H269.8C270.866 23.8309 271.875 23.3756 272.609 22.6017C273.344 21.8278 273.746 20.7969 273.73 19.73Z" fill="#F5F5F5"/>
<path d="M208 353.56C315.083 353.56 401.89 348.492 401.89 342.24C401.89 335.988 315.083 330.92 208 330.92C100.918 330.92 14.1101 335.988 14.1101 342.24C14.1101 348.492 100.918 353.56 208 353.56Z" fill="#F5F5F5"/>
<path d="M330.25 326C330.25 326 327 325.83 326.68 317C326.36 308.17 332.08 305.74 336.48 306.83C336.48 306.83 335.84 300.5 338.69 300.74C341.54 300.98 341.35 305.19 341.35 305.19C341.35 305.19 342.35 296.19 346.22 296.19C350.09 296.19 346.22 306.8 346.22 306.8C346.22 306.8 351.61 304.21 353.59 306.8C355.57 309.39 351.12 312.42 351.12 312.42C351.12 312.42 358.12 314.7 355.18 321.94C355.18 321.94 360.05 322.7 361.41 325.94C361.41 325.94 361.02 319.39 362.78 319.83C364.54 320.27 364.14 326.01 364.14 326.01C364.14 326.01 367.06 319.71 369.59 321.93C372.12 324.15 368.43 329.5 368.43 329.5C368.43 329.5 373.3 327.14 374.07 330.27C374.84 333.4 371.35 334.57 371.35 334.57C371.35 334.57 376.41 333.4 376.41 339.21C376.41 339.21 386.15 338.28 388.49 343.5H330.49L330.25 326Z" fill="#0F9AFE"/>
<path opacity="0.4" d="M330.25 326C330.25 326 327 325.83 326.68 317C326.36 308.17 332.08 305.74 336.48 306.83C336.48 306.83 335.84 300.5 338.69 300.74C341.54 300.98 341.35 305.19 341.35 305.19C341.35 305.19 342.35 296.19 346.22 296.19C350.09 296.19 346.22 306.8 346.22 306.8C346.22 306.8 351.61 304.21 353.59 306.8C355.57 309.39 351.12 312.42 351.12 312.42C351.12 312.42 358.12 314.7 355.18 321.94C355.18 321.94 360.05 322.7 361.41 325.94C361.41 325.94 361.02 319.39 362.78 319.83C364.54 320.27 364.14 326.01 364.14 326.01C364.14 326.01 367.06 319.71 369.59 321.93C372.12 324.15 368.43 329.5 368.43 329.5C368.43 329.5 373.3 327.14 374.07 330.27C374.84 333.4 371.35 334.57 371.35 334.57C371.35 334.57 376.41 333.4 376.41 339.21C376.41 339.21 386.15 338.28 388.49 343.5H330.49L330.25 326Z" fill="white"/>
<path d="M300.61 235C299.21 258 291.61 343 291.61 343L346.52 343.51L331.08 189.92L355.72 182.4L360.89 167.47L381.7 155.7L391.87 140.08L387.94 139.08L376.71 153.5L363.61 156.35L369.22 143.06H363L347.4 173.84L331.4 177.12L329.94 121.12C313.86 128.63 308.72 116.12 308.72 116.12C308.72 116.12 304.56 203.78 302.22 210.4C299.851 209.081 297.645 207.487 295.65 205.65C290.224 200.82 285.51 195.244 281.65 189.09L280.65 187.44H275.65L300.61 235Z" fill="#0F9AFE"/>
<g opacity="0.2">
<path opacity="0.2" d="M300.61 235C299.21 258 291.61 343 291.61 343L346.52 343.51L331.08 189.92L355.72 182.4L360.89 167.47L381.7 155.7L391.87 140.08L387.94 139.08L376.71 153.5L363.61 156.35L369.22 143.06H363L347.4 173.84L331.4 177.12L329.94 121.12C313.86 128.63 308.72 116.12 308.72 116.12C308.72 116.12 304.56 203.78 302.22 210.4C299.851 209.081 297.645 207.487 295.65 205.65C290.224 200.82 285.51 195.244 281.65 189.09L280.65 187.44H275.65L300.61 235Z" fill="black"/>
</g>
<path opacity="0.1" d="M358.49 163.32L351.8 176.22L330.87 181.52C330.87 181.52 330.94 178.23 331.28 174.01L331.37 177.17L347.37 173.89L363 143.11H369.24L363.63 156.4L376.73 153.55L387.96 139.13L388.51 139.26L379.86 152.35L358.49 163.32Z" fill="black"/>
<path d="M328.36 267.56L333.3 343.39L324.59 343.31V283.46L328.36 267.56Z" fill="#0F9AFE"/>
<path d="M300.61 235L275.61 187.49H280.61L281.61 189.14C285.47 195.294 290.184 200.87 295.61 205.7C297.605 207.537 299.811 209.131 302.18 210.45C304.52 203.83 308.68 116.17 308.68 116.17C309.488 117.884 310.662 119.4 312.121 120.61C313.579 121.819 315.286 122.694 317.12 123.17C317.353 151.483 317.59 179.797 317.83 208.11C319.6 204.11 321.14 200.22 321.29 196.03C321.82 207.63 322.53 220.1 322.48 231.55L312.86 267.04L311 343.18L291.64 343C291.64 343 299.21 258 300.61 235Z" fill="#0F9AFE"/>
<path d="M238.81 86.66C230.81 89.52 225.28 97.99 225.53 106.5C225.761 110.762 227.183 114.873 229.635 118.366C232.087 121.86 235.47 124.595 239.4 126.26C243.372 127.823 247.676 128.35 251.907 127.792C256.139 127.234 260.159 125.609 263.59 123.07C263.94 131.24 269.52 140.12 277.31 142.59C281.245 143.769 285.443 143.743 289.363 142.517C293.284 141.291 296.748 138.92 299.31 135.71C320.31 148.9 393.81 153.79 406.73 97.62C409.39 86.02 402.93 73.74 393.46 66.53C383.99 59.32 371.95 56.37 360.14 54.92C348.93 37.07 324.07 27.32 303.14 30.12C282.21 32.92 263.68 48.73 257.57 68.9C236.28 69 238.5 88.09 238.81 86.66Z" fill="#0F9AFE"/>
<g opacity="0.2">
<path opacity="0.2" d="M238.81 86.66C230.81 89.52 225.28 97.99 225.53 106.5C225.761 110.762 227.183 114.873 229.635 118.366C232.087 121.86 235.47 124.595 239.4 126.26C243.372 127.823 247.676 128.35 251.907 127.792C256.139 127.234 260.159 125.609 263.59 123.07C263.94 131.24 269.52 140.12 277.31 142.59C281.245 143.769 285.443 143.743 289.363 142.517C293.284 141.291 296.748 138.92 299.31 135.71C320.31 148.9 393.81 153.79 406.73 97.62C409.39 86.02 402.93 73.74 393.46 66.53C383.99 59.32 371.95 56.37 360.14 54.92C348.93 37.07 324.07 27.32 303.14 30.12C282.21 32.92 263.68 48.73 257.57 68.9C236.28 69 238.5 88.09 238.81 86.66Z" fill="black"/>
</g>
<path d="M264.74 197.15C265.935 198.92 267.609 200.314 269.567 201.167C271.526 202.02 273.686 202.297 275.796 201.967C277.906 201.636 279.879 200.712 281.482 199.301C283.086 197.89 284.254 196.051 284.85 194C289.85 197.5 297.51 196.64 302.55 193.23C305.092 191.509 307.049 189.055 308.162 186.195C309.275 183.334 309.49 180.202 308.778 177.216C308.067 174.231 306.464 171.532 304.181 169.48C301.898 167.428 299.045 166.12 296 165.73C295.758 162.944 294.87 160.252 293.407 157.869C291.944 155.486 289.945 153.476 287.57 152C285.081 150.475 282.283 149.524 279.38 149.218C276.477 148.912 273.542 149.258 270.79 150.23C267.569 149.704 264.269 149.954 261.163 150.957C258.057 151.96 255.235 153.689 252.93 156C249.56 159.27 247.32 163.91 247.71 168.59C248.1 173.27 251.52 177.76 256.13 178.65C255.306 180.345 254.838 182.192 254.755 184.075C254.673 185.959 254.977 187.839 255.65 189.6C257.14 193.08 261.16 195.82 264.74 197.15Z" fill="#0F9AFE"/>
<path opacity="0.2" d="M264.74 197.15C265.935 198.92 267.609 200.314 269.567 201.167C271.526 202.02 273.686 202.297 275.796 201.967C277.906 201.636 279.879 200.712 281.482 199.301C283.086 197.89 284.254 196.051 284.85 194C289.85 197.5 297.51 196.64 302.55 193.23C305.092 191.509 307.049 189.055 308.162 186.195C309.275 183.334 309.49 180.202 308.778 177.216C308.067 174.231 306.464 171.532 304.181 169.48C301.898 167.428 299.045 166.12 296 165.73C295.758 162.944 294.87 160.252 293.407 157.869C291.944 155.486 289.945 153.476 287.57 152C285.081 150.475 282.283 149.524 279.38 149.218C276.477 148.912 273.542 149.258 270.79 150.23C267.569 149.704 264.269 149.954 261.163 150.957C258.057 151.96 255.235 153.689 252.93 156C249.56 159.27 247.32 163.91 247.71 168.59C248.1 173.27 251.52 177.76 256.13 178.65C255.306 180.345 254.838 182.192 254.755 184.075C254.673 185.959 254.977 187.839 255.65 189.6C257.14 193.08 261.16 195.82 264.74 197.15Z" fill="black"/>
<path d="M370.56 112.23C368.542 111.533 366.366 111.426 364.289 111.921C362.212 112.416 360.319 113.492 358.831 115.024C357.343 116.556 356.323 118.48 355.889 120.571C355.455 122.661 355.625 124.833 356.38 126.83C350.3 127.02 344.67 132.33 342.69 138.08C341.689 140.978 341.595 144.113 342.419 147.066C343.243 150.02 344.947 152.653 347.303 154.614C349.66 156.576 352.558 157.773 355.612 158.048C358.666 158.322 361.732 157.66 364.4 156.15C366.27 158.232 368.599 159.849 371.203 160.873C373.807 161.897 376.613 162.3 379.4 162.05C382.307 161.774 385.116 160.853 387.623 159.355C390.129 157.857 392.27 155.819 393.89 153.39C396.782 151.881 399.273 149.705 401.158 147.043C403.043 144.381 404.267 141.309 404.73 138.08C405.46 133.45 404.47 128.39 401.34 124.88C398.21 121.37 392.79 119.88 388.57 121.88C388.206 120.037 387.469 118.289 386.404 116.741C385.34 115.193 383.971 113.879 382.38 112.88C379.09 110.93 374.22 111.15 370.56 112.23Z" fill="#0F9AFE"/>
<path opacity="0.1" d="M370.56 112.23C368.542 111.533 366.366 111.426 364.289 111.921C362.212 112.416 360.319 113.492 358.831 115.024C357.343 116.556 356.323 118.48 355.889 120.571C355.455 122.661 355.625 124.833 356.38 126.83C350.3 127.02 344.67 132.33 342.69 138.08C341.689 140.978 341.595 144.113 342.419 147.066C343.243 150.02 344.947 152.653 347.303 154.614C349.66 156.576 352.558 157.773 355.612 158.048C358.666 158.322 361.732 157.66 364.4 156.15C366.27 158.232 368.599 159.849 371.203 160.873C373.807 161.897 376.613 162.3 379.4 162.05C382.307 161.774 385.116 160.853 387.623 159.355C390.129 157.857 392.27 155.819 393.89 153.39C396.782 151.881 399.273 149.705 401.158 147.043C403.043 144.381 404.267 141.309 404.73 138.08C405.46 133.45 404.47 128.39 401.34 124.88C398.21 121.37 392.79 119.88 388.57 121.88C388.206 120.037 387.469 118.289 386.404 116.741C385.34 115.193 383.971 113.879 382.38 112.88C379.09 110.93 374.22 111.15 370.56 112.23Z" fill="black"/>
<path d="M333.45 341.29C333.45 341.29 313.28 328.22 317.11 326C320.94 323.78 334.38 336.85 334.38 336.85C334.38 336.85 319.52 315.11 323.19 310.75C326.86 306.39 336.75 328.47 336.75 328.47C336.75 328.47 330.03 303.23 334.75 300.47C339.47 297.71 341.22 325.76 341.22 325.76C341.22 325.76 343.07 295.36 351.77 295.76C360.47 296.16 347.77 325.76 347.77 325.76C347.77 325.76 360.04 308.17 364.39 313.16C368.74 318.15 350.54 332.16 350.54 332.16C350.54 332.16 364.15 325.77 365.06 330.51C365.97 335.25 350.06 340.3 350.06 340.3C350.06 340.3 355.17 341.77 356.36 343.49H329.18C329.18 343.49 328.74 342.2 333.45 341.29Z" fill="#0F9AFE"/>
<path opacity="0.6" d="M333.45 341.29C333.45 341.29 313.28 328.22 317.11 326C320.94 323.78 334.38 336.85 334.38 336.85C334.38 336.85 319.52 315.11 323.19 310.75C326.86 306.39 336.75 328.47 336.75 328.47C336.75 328.47 330.03 303.23 334.75 300.47C339.47 297.71 341.22 325.76 341.22 325.76C341.22 325.76 343.07 295.36 351.77 295.76C360.47 296.16 347.77 325.76 347.77 325.76C347.77 325.76 360.04 308.17 364.39 313.16C368.74 318.15 350.54 332.16 350.54 332.16C350.54 332.16 364.15 325.77 365.06 330.51C365.97 335.25 350.06 340.3 350.06 340.3C350.06 340.3 355.17 341.77 356.36 343.49H329.18C329.18 343.49 328.74 342.2 333.45 341.29Z" fill="white"/>
<path d="M72.6698 290.63C72.5998 290.27 65.8398 255.2 59.2398 250.53C52.8298 246.01 47.2398 252.22 47.0398 252.53L46.2898 251.88C46.3498 251.8 52.6798 244.73 59.8098 249.77C66.7498 254.66 73.3698 289.03 73.6498 290.49L72.6698 290.63Z" fill="#0F9AFE"/>
<path d="M70.16 293.52C70.16 293.28 67.66 269.17 59.89 261.77C58.01 259.98 56.17 259.28 54.42 259.69C50.26 260.64 47.69 267.37 47.67 267.44L46.73 267.09C46.84 266.79 49.51 259.79 54.19 258.71C56.29 258.23 58.44 259.01 60.58 261.04C68.58 268.7 71.06 292.42 71.16 293.42L70.16 293.52Z" fill="#0F9AFE"/>
<path d="M65.5 254.37C65.5 254.37 70.02 253.46 70.89 257.37C71.76 261.28 63.37 273.68 63.37 273.68C63.37 273.68 55.75 272.21 55.75 262.19C55.75 252.17 64 252.14 65.5 254.37Z" fill="#0F9AFE"/>
<path opacity="0.2" d="M65.5 254.37C65.5 254.37 70.02 253.46 70.89 257.37C71.76 261.28 63.37 273.68 63.37 273.68C63.37 273.68 55.75 272.21 55.75 262.19C55.75 252.17 64 252.14 65.5 254.37Z" fill="white"/>
<path d="M53.8298 261.93C53.8298 261.93 55.6498 259.93 53.2598 259.44C50.8698 258.95 39.8398 261 41.4498 272C41.4498 272 54.6898 272.11 55.6298 267.67C56.5698 263.23 53.8298 261.93 53.8298 261.93Z" fill="#0F9AFE"/>
<path opacity="0.2" d="M53.8298 261.93C53.8298 261.93 55.6498 259.93 53.2598 259.44C50.8698 258.95 39.8398 261 41.4498 272C41.4498 272 54.6898 272.11 55.6298 267.67C56.5698 263.23 53.8298 261.93 53.8298 261.93Z" fill="white"/>
<path d="M70.83 243.08C70.83 243.08 70.32 241.08 72.1 241.6C73.88 242.12 80.65 247.46 75.59 254.32C75.59 254.32 66.59 249.62 67.59 246.32C68.59 243.02 70.83 243.08 70.83 243.08Z" fill="#0F9AFE"/>
<path opacity="0.2" d="M70.83 243.08C70.83 243.08 70.32 241.08 72.1 241.6C73.88 242.12 80.65 247.46 75.59 254.32C75.59 254.32 66.59 249.62 67.59 246.32C68.59 243.02 70.83 243.08 70.83 243.08Z" fill="white"/>
<path d="M237.18 297.82L236.18 297.55C236.3 297.14 247.84 256.07 268.71 245.01L269.18 245.89C248.72 256.76 237.29 297.41 237.18 297.82Z" fill="#0F9AFE"/>
<path d="M237.37 293.18L236.46 292.76C236.67 292.33 256.58 248.81 249.72 234.99L250.61 234.55C257.69 248.79 238.2 291.38 237.37 293.18Z" fill="#0F9AFE"/>
<path d="M236.59 296.33L235.59 296.04C236.27 293.78 252.26 240.67 262.49 234.14L263.03 234.98C253.15 241.31 236.75 295.78 236.59 296.33Z" fill="#0F9AFE"/>
<path d="M253.32 236.7C253.32 236.7 256.32 237.49 256.75 235.7C257.18 233.91 248 225.19 238.75 229.98C238.75 229.98 240.15 238.64 246.07 240.98C251.99 243.32 253.32 236.7 253.32 236.7Z" fill="#0F9AFE"/>
<path opacity="0.2" d="M253.32 236.7C253.32 236.7 256.32 237.49 256.75 235.7C257.18 233.91 248 225.19 238.75 229.98C238.75 229.98 240.15 238.64 246.07 240.98C251.99 243.32 253.32 236.7 253.32 236.7Z" fill="white"/>
<path d="M260.29 234.51C260.29 234.51 257.21 234.77 257.1 232.89C256.99 231.01 267.55 224.06 275.79 230.39C275.79 230.39 272.89 238.67 266.65 239.98C260.41 241.29 260.29 234.51 260.29 234.51Z" fill="#0F9AFE"/>
<path opacity="0.2" d="M260.29 234.51C260.29 234.51 257.21 234.77 257.1 232.89C256.99 231.01 267.55 224.06 275.79 230.39C275.79 230.39 272.89 238.67 266.65 239.98C260.41 241.29 260.29 234.51 260.29 234.51Z" fill="white"/>
<path d="M270.06 242.82C270.06 242.82 268.7 240.47 271.13 240.51C273.56 240.55 283.95 244.79 280.08 255.2C280.08 255.2 267.08 252.55 267.08 248.02C267.08 243.49 270.06 242.82 270.06 242.82Z" fill="#0F9AFE"/>
<path opacity="0.2" d="M270.06 242.82C270.06 242.82 268.7 240.47 271.13 240.51C273.56 240.55 283.95 244.79 280.08 255.2C280.08 255.2 267.08 252.55 267.08 248.02C267.08 243.49 270.06 242.82 270.06 242.82Z" fill="white"/>
<path d="M260.41 248.7C260.41 248.7 260.98 246.7 262.26 248.06C263.54 249.42 266.73 257.4 258.93 260.82C258.93 260.82 253.48 252.26 255.98 249.82C258.48 247.38 260.41 248.7 260.41 248.7Z" fill="#0F9AFE"/>
<path opacity="0.2" d="M260.41 248.7C260.41 248.7 260.98 246.7 262.26 248.06C263.54 249.42 266.73 257.4 258.93 260.82C258.93 260.82 253.48 252.26 255.98 249.82C258.48 247.38 260.41 248.7 260.41 248.7Z" fill="white"/>
<path d="M49.9298 249.38C49.9298 249.38 50.9298 247.54 49.0598 247.63C47.1898 247.72 39.3298 251.2 42.5398 259.09C42.5398 259.09 52.4198 256.76 52.3098 253.29C52.1998 249.82 49.9298 249.38 49.9298 249.38Z" fill="#0F9AFE"/>
<path opacity="0.2" d="M49.9298 249.38C49.9298 249.38 50.9298 247.54 49.0598 247.63C47.1898 247.72 39.3298 251.2 42.5398 259.09C42.5398 259.09 52.4198 256.76 52.3098 253.29C52.1998 249.82 49.9298 249.38 49.9298 249.38Z" fill="white"/>
<path d="M225.68 317.53C225.68 317.53 219.08 317.27 218.43 303.96C217.78 290.65 229.43 287.1 238.34 288.73C238.34 288.73 237.03 279.25 242.83 279.6C248.63 279.95 248.23 286.28 248.23 286.28C248.23 286.28 250.23 272.84 258.12 272.83C266.01 272.82 258.12 288.73 258.12 288.73C258.12 288.73 269.07 284.85 273.12 288.73C277.17 292.61 268.12 297.15 268.12 297.15C268.12 297.15 282.31 300.56 276.38 311.42C276.38 311.42 286.27 312.56 289.04 317.42C289.04 317.42 288.25 307.61 291.81 308.27C295.37 308.93 294.57 317.53 294.57 317.53C294.57 317.53 300.51 308.08 305.65 311.42C310.79 314.76 303.28 322.76 303.28 322.76C303.28 322.76 313.17 319.22 314.75 323.91C316.33 328.6 309.21 330.36 309.21 330.36C309.21 330.36 319.5 328.6 319.5 337.31C319.5 337.31 339.28 335.91 344.03 343.73H226.08L225.68 317.53Z" fill="#0F9AFE"/>
<path opacity="0.4" d="M225.68 317.53C225.68 317.53 219.08 317.27 218.43 303.96C217.78 290.65 229.43 287.1 238.34 288.73C238.34 288.73 237.03 279.25 242.83 279.6C248.63 279.95 248.23 286.28 248.23 286.28C248.23 286.28 250.23 272.84 258.12 272.83C266.01 272.82 258.12 288.73 258.12 288.73C258.12 288.73 269.07 284.85 273.12 288.73C277.17 292.61 268.12 297.15 268.12 297.15C268.12 297.15 282.31 300.56 276.38 311.42C276.38 311.42 286.27 312.56 289.04 317.42C289.04 317.42 288.25 307.61 291.81 308.27C295.37 308.93 294.57 317.53 294.57 317.53C294.57 317.53 300.51 308.08 305.65 311.42C310.79 314.76 303.28 322.76 303.28 322.76C303.28 322.76 313.17 319.22 314.75 323.91C316.33 328.6 309.21 330.36 309.21 330.36C309.21 330.36 319.5 328.6 319.5 337.31C319.5 337.31 339.28 335.91 344.03 343.73H226.08L225.68 317.53Z" fill="white"/>
<path d="M88.0599 317.53C88.0599 317.53 92.9299 317.27 93.4099 303.96C93.8899 290.65 85.3199 287.1 78.7199 288.73C78.7199 288.73 79.7199 279.25 75.4099 279.6C71.0999 279.95 71.4099 286.28 71.4099 286.28C71.4099 286.28 69.9499 272.84 64.1099 272.83C58.2699 272.82 64.1099 288.73 64.1099 288.73C64.1099 288.73 56.0399 284.85 53.1099 288.73C50.1799 292.61 56.8199 297.15 56.8199 297.15C56.8199 297.15 46.3499 300.56 50.7299 311.42C50.7299 311.42 43.4299 312.56 41.3899 317.42C41.3899 317.42 41.9699 307.61 39.3899 308.27C36.8099 308.93 37.3899 317.53 37.3899 317.53C37.3899 317.53 33.0199 308.08 29.2199 311.42C25.4199 314.76 30.9699 322.76 30.9699 322.76C30.9699 322.76 23.6799 319.22 22.5099 323.91C21.3399 328.6 26.5999 330.36 26.5999 330.36C26.5999 330.36 19.0099 328.6 19.0099 337.31C19.0099 337.31 4.41991 335.91 0.909912 343.73H87.9099L88.0599 317.53Z" fill="#0F9AFE"/>
<path opacity="0.4" d="M88.0599 317.53C88.0599 317.53 92.9299 317.27 93.4099 303.96C93.8899 290.65 85.3199 287.1 78.7199 288.73C78.7199 288.73 79.7199 279.25 75.4099 279.6C71.0999 279.95 71.4099 286.28 71.4099 286.28C71.4099 286.28 69.9499 272.84 64.1099 272.83C58.2699 272.82 64.1099 288.73 64.1099 288.73C64.1099 288.73 56.0399 284.85 53.1099 288.73C50.1799 292.61 56.8199 297.15 56.8199 297.15C56.8199 297.15 46.3499 300.56 50.7299 311.42C50.7299 311.42 43.4299 312.56 41.3899 317.42C41.3899 317.42 41.9699 307.61 39.3899 308.27C36.8099 308.93 37.3899 317.53 37.3899 317.53C37.3899 317.53 33.0199 308.08 29.2199 311.42C25.4199 314.76 30.9699 322.76 30.9699 322.76C30.9699 322.76 23.6799 319.22 22.5099 323.91C21.3399 328.6 26.5999 330.36 26.5999 330.36C26.5999 330.36 19.0099 328.6 19.0099 337.31C19.0099 337.31 4.41991 335.91 0.909912 343.73H87.9099L88.0599 317.53Z" fill="white"/>
<path d="M44.64 341.51C44.64 341.51 64.8 328.44 61 326.24C57.2 324.04 43.7 337.08 43.7 337.08C43.7 337.08 58.56 315.34 54.89 310.98C51.22 306.62 41.33 328.7 41.33 328.7C41.33 328.7 48.05 303.46 43.33 300.7C38.61 297.94 36.84 326 36.84 326C36.84 326 35 295.59 26.29 296C17.58 296.41 30.29 326 30.29 326C30.29 326 18 308.39 13.64 313.39C9.27996 318.39 27.48 332.39 27.48 332.39C27.48 332.39 13.87 326 13 330.76C12.13 335.52 28 340.55 28 340.55C28 340.55 22.88 342.02 21.7 343.73H48.91C48.91 343.73 49.34 342.43 44.64 341.51Z" fill="#0F9AFE"/>
<path opacity="0.6" d="M44.64 341.51C44.64 341.51 64.8 328.44 61 326.24C57.2 324.04 43.7 337.08 43.7 337.08C43.7 337.08 58.56 315.34 54.89 310.98C51.22 306.62 41.33 328.7 41.33 328.7C41.33 328.7 48.05 303.46 43.33 300.7C38.61 297.94 36.84 326 36.84 326C36.84 326 35 295.59 26.29 296C17.58 296.41 30.29 326 30.29 326C30.29 326 18 308.39 13.64 313.39C9.27996 318.39 27.48 332.39 27.48 332.39C27.48 332.39 13.87 326 13 330.76C12.13 335.52 28 340.55 28 340.55C28 340.55 22.88 342.02 21.7 343.73H48.91C48.91 343.73 49.34 342.43 44.64 341.51Z" fill="white"/>
<path d="M54.73 343.73C54.73 343.73 77.93 258.36 82.15 255.2C86.37 252.04 110.44 243.13 110.44 243.13C110.44 243.13 168.99 252.91 177.79 251.94C186.59 250.97 214.87 245.53 218.93 251.94C222.99 258.35 239 296.87 239 296.87L261.49 306.36L275.74 343.73H54.73Z" fill="#0F9AFE"/>
<path opacity="0.6" d="M275.74 343.73H54.74C54.74 343.73 77.83 258.73 82.13 255.21C83.6313 254.227 85.2137 253.374 86.86 252.66C95.22 248.77 110.42 243.15 110.42 243.15C110.42 243.15 168.97 252.93 177.77 251.96C186.57 250.99 214.85 245.54 218.91 251.96C219.77 253.33 221.18 256.15 222.86 259.75C229.08 273 239 296.86 239 296.86L261.49 306.36L275.74 343.73Z" fill="white"/>
<path opacity="0.1" d="M222.88 259.73L214.15 268.37L191.4 263L165.66 268.35L167.31 278.3L157.94 289.46L161.27 278.3L154 266.05C154 266.05 124.38 267.85 116.65 266.05C111.8 264.92 97.1299 257.78 86.9099 252.64C95.2699 248.75 110.47 243.13 110.47 243.13C110.47 243.13 169.02 252.91 177.82 251.94C186.62 250.97 214.9 245.52 218.96 251.94C219.79 253.31 221.2 256.13 222.88 259.73Z" fill="black"/>
<path opacity="0.1" d="M275.74 343.73H54.74C54.74 343.73 77.83 258.73 82.13 255.21L67.89 321.45L75.01 332.45L92.51 319.17L106 326.61L124.62 322.85L126.47 313.85L152.85 296.5L136.29 311.84L142.12 329.34L167.47 333.71H195.47L207 326L203.14 310.3L197.31 301.2L226.86 301.13L214.28 308.92L218.92 322.75L233.15 329.35L249.69 319.14L256.43 338.62L275.74 343.73Z" fill="black"/>
<path d="M246.2 343.73H282.83C282.83 343.73 275.54 332.57 272.43 333.99C268.38 335.83 265.38 325.72 260.9 328.11C259.32 328.96 260.1 331.66 259.1 332.75C257.46 334.55 255.37 334.2 253.39 335.19C249.5 337.13 248.12 339.69 246.2 343.73Z" fill="#0F9AFE"/>
<path opacity="0.2" d="M246.2 343.73H282.83C282.83 343.73 275.54 332.57 272.43 333.99C268.38 335.83 265.38 325.72 260.9 328.11C259.32 328.96 260.1 331.66 259.1 332.75C257.46 334.55 255.37 334.2 253.39 335.19C249.5 337.13 248.12 339.69 246.2 343.73Z" fill="black"/>
<path d="M278.83 340.62C278.83 340.62 276.42 326.67 278.08 324.62C279.74 322.57 280.03 332.23 280.03 332.23C280.03 332.23 285.61 312.07 289.18 311.97C292.75 311.87 285 329.46 285 329.46C285 329.46 300.26 304.52 304.69 306.84C309.12 309.16 288.69 331.27 288.69 331.27C288.69 331.27 299.85 321.66 302.31 324.38C304.77 327.1 289.92 335.38 289.92 335.38C289.92 335.38 296.47 333.91 296.46 336.09C296.45 338.27 285.38 341.86 278.83 340.62Z" fill="#0F9AFE"/>
<path opacity="0.2" d="M278.83 340.62C278.83 340.62 276.42 326.67 278.08 324.62C279.74 322.57 280.03 332.23 280.03 332.23C280.03 332.23 285.61 312.07 289.18 311.97C292.75 311.87 285 329.46 285 329.46C285 329.46 300.26 304.52 304.69 306.84C309.12 309.16 288.69 331.27 288.69 331.27C288.69 331.27 299.85 321.66 302.31 324.38C304.77 327.1 289.92 335.38 289.92 335.38C289.92 335.38 296.47 333.91 296.46 336.09C296.45 338.27 285.38 341.86 278.83 340.62Z" fill="white"/>
<path d="M276.63 338.63C276.63 338.63 265.16 336.55 264.05 334.69C262.94 332.83 270.48 335.33 270.48 335.33C270.48 335.33 256.48 325.33 257.39 322.53C258.3 319.73 269.72 330.74 269.72 330.74C269.72 330.74 254.72 311.9 257.79 309.12C260.86 306.34 272.18 328.38 272.18 328.38C272.18 328.38 267.9 317.03 270.69 315.89C273.48 314.75 275.69 328.59 275.69 328.59C275.69 328.59 276.4 323.11 278.08 323.73C279.76 324.35 279.44 333.91 276.63 338.63Z" fill="#0F9AFE"/>
<path opacity="0.2" d="M276.63 338.63C276.63 338.63 265.16 336.55 264.05 334.69C262.94 332.83 270.48 335.33 270.48 335.33C270.48 335.33 256.48 325.33 257.39 322.53C258.3 319.73 269.72 330.74 269.72 330.74C269.72 330.74 254.72 311.9 257.79 309.12C260.86 306.34 272.18 328.38 272.18 328.38C272.18 328.38 267.9 317.03 270.69 315.89C273.48 314.75 275.69 328.59 275.69 328.59C275.69 328.59 276.4 323.11 278.08 323.73C279.76 324.35 279.44 333.91 276.63 338.63Z" fill="white"/>
<path d="M275.77 337.1C275.77 337.1 264.69 326.01 264.89 323.1C265.09 320.19 271.51 328.74 271.51 328.74C271.51 328.74 263.7 306.93 266.87 304.56C270.04 302.19 274.19 323.1 274.19 323.1C274.19 323.1 272.09 290.78 277.59 290.1C283.09 289.42 278.71 322.4 278.71 322.4C278.71 322.4 282.71 306.59 286.65 307.47C290.59 308.35 282.45 325.34 282.45 325.34C282.45 325.34 287.45 319.83 288.82 321.81C290.19 323.79 282.49 334 275.77 337.1Z" fill="#0F9AFE"/>
<path opacity="0.1" d="M275.77 337.1C275.77 337.1 264.69 326.01 264.89 323.1C265.09 320.19 271.51 328.74 271.51 328.74C271.51 328.74 263.7 306.93 266.87 304.56C270.04 302.19 274.19 323.1 274.19 323.1C274.19 323.1 272.09 290.78 277.59 290.1C283.09 289.42 278.71 322.4 278.71 322.4C278.71 322.4 282.71 306.59 286.65 307.47C290.59 308.35 282.45 325.34 282.45 325.34C282.45 325.34 287.45 319.83 288.82 321.81C290.19 323.79 282.49 334 275.77 337.1Z" fill="white"/>
<path d="M262.34 343.73H291.53C291.53 343.73 285.72 334.84 283.24 335.97C280.02 337.44 277.63 329.38 274.06 331.29C272.8 331.96 273.41 334.11 272.62 334.98C271.31 336.42 269.62 336.14 268.07 336.93C265 338.47 263.87 340.51 262.34 343.73Z" fill="#0F9AFE"/>
<path d="M79.9999 343.73H43.3999C43.3999 343.73 50.6999 332.57 53.8099 333.99C57.8099 335.83 60.8099 325.72 65.3299 328.11C66.9099 328.96 66.1399 331.66 67.1399 332.75C68.7799 334.55 70.8699 334.2 72.8499 335.19C76.7399 337.13 78.1199 339.69 79.9999 343.73Z" fill="#0F9AFE"/>
<path opacity="0.2" d="M79.9999 343.73H43.3999C43.3999 343.73 50.6999 332.57 53.8099 333.99C57.8099 335.83 60.8099 325.72 65.3299 328.11C66.9099 328.96 66.1399 331.66 67.1399 332.75C68.7799 334.55 70.8699 334.2 72.8499 335.19C76.7399 337.13 78.1199 339.69 79.9999 343.73Z" fill="black"/>
<path d="M47.4098 340.62C47.4098 340.62 49.8098 326.67 48.1498 324.62C46.4898 322.57 46.1498 332.23 46.1498 332.23C46.1498 332.23 40.6198 312.07 37.0498 312C33.4798 311.93 41.2898 329.49 41.2898 329.49C41.2898 329.49 25.9998 304.52 21.5898 306.84C17.1798 309.16 37.5898 331.27 37.5898 331.27C37.5898 331.27 26.4198 321.66 23.9598 324.38C21.4998 327.1 36.3598 335.38 36.3598 335.38C36.3598 335.38 29.8098 333.91 29.8198 336.09C29.8298 338.27 40.8498 341.86 47.4098 340.62Z" fill="#0F9AFE"/>
<path opacity="0.2" d="M47.4098 340.62C47.4098 340.62 49.8098 326.67 48.1498 324.62C46.4898 322.57 46.1498 332.23 46.1498 332.23C46.1498 332.23 40.6198 312.07 37.0498 312C33.4798 311.93 41.2898 329.49 41.2898 329.49C41.2898 329.49 25.9998 304.52 21.5898 306.84C17.1798 309.16 37.5898 331.27 37.5898 331.27C37.5898 331.27 26.4198 321.66 23.9598 324.38C21.4998 327.1 36.3598 335.38 36.3598 335.38C36.3598 335.38 29.8098 333.91 29.8198 336.09C29.8298 338.27 40.8498 341.86 47.4098 340.62Z" fill="white"/>
<path d="M58.65 341.28C58.65 341.28 67.38 333.55 67.37 331.38C67.36 329.21 62.2 335.27 62.2 335.27C62.2 335.27 69 319.44 66.76 317.54C64.52 315.64 60.47 331 60.47 331C60.47 331 63.47 307.12 59.47 306.33C55.47 305.54 57.15 330.25 57.15 330.25C57.15 330.25 54.92 318.33 51.95 318.81C48.98 319.29 54.24 332.26 54.24 332.26C54.24 332.26 50.79 327.94 49.67 329.35C48.55 330.76 53.81 338.69 58.65 341.28Z" fill="#0F9AFE"/>
<path opacity="0.2" d="M58.65 341.28C58.65 341.28 67.38 333.55 67.37 331.38C67.36 329.21 62.2 335.27 62.2 335.27C62.2 335.27 69 319.44 66.76 317.54C64.52 315.64 60.47 331 60.47 331C60.47 331 63.47 307.12 59.47 306.33C55.47 305.54 57.15 330.25 57.15 330.25C57.15 330.25 54.92 318.33 51.95 318.81C48.98 319.29 54.24 332.26 54.24 332.26C54.24 332.26 50.79 327.94 49.67 329.35C48.55 330.76 53.81 338.69 58.65 341.28Z" fill="white"/>
<path d="M63.9 343.73H34.7C34.7 343.73 40.52 334.84 43 335.97C46.22 337.44 48.61 329.38 52.18 331.29C53.44 331.96 52.82 334.11 53.61 334.98C54.92 336.42 56.61 336.14 58.17 336.93C61.27 338.47 62.37 340.51 63.9 343.73Z" fill="#0F9AFE"/>
<path d="M132.87 152C132.87 152 99.2499 146.76 92.8699 149.51C86.4899 152.26 84.3399 162.15 84.3399 162.15C84.3399 162.15 83.1899 164.15 86.6699 164.41C86.6699 164.41 72.4399 199.86 76.9399 206.65C81.4399 213.44 126.76 216.16 132.94 212.83C139.12 209.5 153.79 154.53 132.87 152Z" fill="#263238"/>
<path d="M152.67 185.82C152.67 185.82 157.12 196.15 158.12 197.59C159.12 199.03 181.27 209.21 181.27 209.21C183.065 208.959 184.885 208.959 186.68 209.21C189.41 209.64 193.17 210.79 193.51 211.21C193.85 211.63 189.4 218.1 189.4 218.1C189.4 218.1 180.55 218.65 179.4 215.15C179.4 215.15 157.21 206.91 154.63 204.75C152.05 202.59 144.87 189.83 144.87 189.83L152.67 185.82Z" fill="#E4897B"/>
<path d="M146.3 163.2C150.46 165.68 156.97 192.38 158.37 195.55C159.77 198.72 176.77 206.43 176.77 206.43L169.23 213.65C169.23 213.65 152 206 149.86 203.86C147.72 201.72 139.12 179.53 139.12 179.53L146.3 163.2Z" fill="#0F9AFE"/>
<path d="M144.92 224.22C144.92 224.22 215.04 214.15 218.74 229.53C222.65 245.8 166.35 256.77 132.74 257.92C99.1299 259.07 89.4099 251.68 94.8099 210.1L140.21 209.99L144.92 224.22Z" fill="#263238"/>
<path opacity="0.2" d="M144.92 224.22C144.92 224.22 215.04 214.15 218.74 229.53C222.65 245.8 166.35 256.77 132.74 257.92C99.1299 259.07 89.4099 251.68 94.8099 210.1L140.21 209.99L144.92 224.22Z" fill="black"/>
<path d="M208.25 248.06C208.214 248.087 208.17 248.101 208.125 248.101C208.08 248.101 208.036 248.087 208 248.06C207.967 248.038 207.943 248.004 207.932 247.966C207.921 247.928 207.924 247.886 207.94 247.85C208.05 247.48 209.16 244.24 210.29 243.9C210.409 243.872 210.534 243.875 210.652 243.91C210.769 243.945 210.876 244.011 210.96 244.1C211.117 244.23 211.237 244.399 211.308 244.591C211.378 244.782 211.396 244.989 211.36 245.19C211.179 245.795 210.811 246.326 210.31 246.71C209.67 247.228 208.98 247.68 208.25 248.06ZM208.53 247.44C209.579 246.98 210.43 246.161 210.93 245.13C210.959 244.993 210.949 244.85 210.899 244.719C210.849 244.588 210.763 244.473 210.65 244.39C210.618 244.351 210.576 244.323 210.527 244.308C210.479 244.294 210.428 244.295 210.38 244.31C210.286 244.35 210.198 244.404 210.12 244.47C209.417 245.357 208.878 246.363 208.53 247.44Z" fill="#0F9AFE"/>
<path d="M208.19 248.11C208.153 248.121 208.113 248.122 208.076 248.111C208.039 248.101 208.005 248.079 207.98 248.05C207.87 247.95 206.32 245.99 206.57 244.67C206.638 244.34 206.832 244.05 207.11 243.86C207.227 243.744 207.38 243.672 207.544 243.656C207.708 243.64 207.872 243.68 208.01 243.77C208.82 244.35 208.72 246.97 208.32 247.97V248.07L208.19 248.11ZM207.3 244.26C207.162 244.383 207.067 244.548 207.03 244.73C206.87 245.57 207.65 246.83 208.03 247.43C208.29 246.31 208.21 244.43 207.73 244.14C207.68 244.14 207.58 244.03 207.34 244.2L207.26 244.26H207.3Z" fill="#0F9AFE"/>
<path d="M183.96 256.3L198.66 256.31L205.71 256.32L206.55 248.89L200.03 248.02L184.09 245.89L183.96 256.3Z" fill="#E4897B"/>
<path d="M205 248L203.21 256.47C203.188 256.581 203.189 256.695 203.212 256.806C203.235 256.917 203.28 257.022 203.345 257.115C203.409 257.208 203.491 257.288 203.587 257.349C203.682 257.41 203.788 257.451 203.9 257.47L208.12 258.23C208.12 258.23 213.73 259.66 215.31 258.65C219.91 255.71 224.31 237.06 222.47 235.65C221.79 235.15 220.6 235.91 220.01 236.52C218.12 238.45 214.09 243.83 212.49 245.43C210.63 247.29 207.32 247.34 205.87 247.27C205.66 247.263 205.456 247.334 205.295 247.468C205.135 247.603 205.029 247.792 205 248Z" fill="#263238"/>
<path opacity="0.2" d="M183.96 256.3L198.66 256.31L200.03 248.02L184.09 245.89L183.96 256.3Z" fill="black"/>
<path d="M128.45 223.71V225.57C128.452 226.189 128.692 226.783 129.12 227.23C129.548 227.677 130.132 227.942 130.75 227.97H199.14C199.776 227.949 200.382 227.691 200.839 227.247C201.296 226.804 201.571 226.206 201.61 225.57V223.71H128.45Z" fill="#263238"/>
<path opacity="0.2" d="M128.45 223.71V225.57C128.452 226.189 128.692 226.783 129.12 227.23C129.548 227.677 130.132 227.942 130.75 227.97H199.14C199.776 227.949 200.382 227.691 200.839 227.247C201.296 226.804 201.571 226.206 201.61 225.57V223.71H128.45Z" fill="white"/>
<path opacity="0.2" d="M154 223.71V225.57C154.004 226.19 154.247 226.784 154.676 227.231C155.106 227.677 155.691 227.942 156.31 227.97H199.17C199.806 227.949 200.412 227.691 200.869 227.247C201.326 226.804 201.601 226.206 201.64 225.57V223.71H154Z" fill="white"/>
<path d="M156.28 226.26H201.46C202.185 226.224 202.884 225.975 203.469 225.545C204.054 225.115 204.5 224.522 204.75 223.84L215.11 191.34C215.231 191.059 215.278 190.753 215.248 190.449C215.217 190.145 215.11 189.853 214.936 189.602C214.762 189.351 214.527 189.149 214.253 189.014C213.979 188.878 213.675 188.815 213.37 188.83H168.19C167.458 188.883 166.757 189.148 166.174 189.594C165.592 190.04 165.152 190.647 164.91 191.34L154.55 223.8C154.429 224.077 154.382 224.38 154.412 224.681C154.442 224.981 154.55 225.269 154.723 225.516C154.897 225.763 155.132 225.962 155.404 226.092C155.677 226.222 155.979 226.28 156.28 226.26Z" fill="#263238"/>
<path opacity="0.2" d="M156.28 226.26H201.46C202.185 226.224 202.884 225.975 203.469 225.545C204.054 225.115 204.5 224.522 204.75 223.84L215.11 191.34C215.231 191.059 215.278 190.753 215.248 190.449C215.217 190.145 215.11 189.853 214.936 189.602C214.762 189.351 214.527 189.149 214.253 189.014C213.979 188.878 213.675 188.815 213.37 188.83H168.19C167.458 188.883 166.757 189.148 166.174 189.594C165.592 190.04 165.152 190.647 164.91 191.34L154.55 223.8C154.429 224.077 154.382 224.38 154.412 224.681C154.442 224.981 154.55 225.269 154.723 225.516C154.897 225.763 155.132 225.962 155.404 226.092C155.677 226.222 155.979 226.28 156.28 226.26Z" fill="white"/>
<path opacity="0.2" d="M158 226.26H201.48C202.205 226.224 202.904 225.975 203.489 225.545C204.074 225.115 204.519 224.522 204.77 223.84L215.13 191.34C215.251 191.059 215.298 190.753 215.268 190.449C215.237 190.145 215.13 189.853 214.956 189.602C214.782 189.351 214.547 189.149 214.273 189.014C213.999 188.878 213.695 188.815 213.39 188.83H169.89C169.158 188.883 168.457 189.148 167.874 189.594C167.292 190.04 166.852 190.647 166.61 191.34L156.25 223.8C156.128 224.079 156.08 224.384 156.112 224.686C156.143 224.989 156.252 225.278 156.428 225.526C156.604 225.773 156.842 225.971 157.117 226.1C157.393 226.229 157.697 226.284 158 226.26Z" fill="white"/>
<path opacity="0.2" d="M184.42 209C183.86 211.16 184.94 212.92 186.83 212.92C188.72 212.92 190.69 211.16 191.25 209C191.81 206.84 190.73 205.08 188.85 205.08C186.97 205.08 185 206.87 184.42 209Z" fill="white"/>
<path opacity="0.2" d="M205 248L203.21 256.47C203.188 256.581 203.189 256.695 203.212 256.806C203.235 256.917 203.28 257.022 203.345 257.115C203.409 257.208 203.491 257.288 203.587 257.349C203.682 257.41 203.788 257.451 203.9 257.47L208.12 258.23C208.12 258.23 213.73 259.66 215.31 258.65C219.91 255.71 224.31 237.06 222.47 235.65C221.79 235.15 220.6 235.91 220.01 236.52C218.12 238.45 214.09 243.83 212.49 245.43C210.63 247.29 207.32 247.34 205.87 247.27C205.66 247.263 205.456 247.334 205.295 247.468C205.135 247.603 205.029 247.792 205 248Z" fill="white"/>
<path d="M108.26 215.99L94.0798 216.17L94.3498 211.56L108.26 211.26V215.99Z" fill="black"/>
<path d="M136.24 210.65L140.48 210.56L142 215.54L136.24 215.62V210.65Z" fill="black"/>
<path d="M134.43 210.69V215.64L110.44 215.96V211.21L134.43 210.69Z" fill="black"/>
<path d="M120.61 214.78L120.54 212.85C120.512 212.354 120.68 211.867 121.007 211.493C121.334 211.119 121.795 210.888 122.29 210.85L126.63 210.67C126.871 210.661 127.112 210.702 127.338 210.789C127.563 210.877 127.768 211.01 127.94 211.18C128.303 211.541 128.515 212.028 128.53 212.54L128.6 214.46C128.625 214.957 128.455 215.444 128.126 215.818C127.797 216.191 127.336 216.422 126.84 216.46L122.51 216.64H122.43C121.946 216.622 121.487 216.419 121.149 216.073C120.81 215.727 120.617 215.264 120.61 214.78ZM126.81 215.65C127.097 215.622 127.362 215.483 127.549 215.263C127.736 215.043 127.829 214.758 127.81 214.47L127.74 212.55C127.725 212.252 127.601 211.971 127.39 211.76C127.291 211.659 127.173 211.581 127.042 211.529C126.911 211.477 126.77 211.454 126.63 211.46L122.29 211.64C122.001 211.665 121.735 211.804 121.547 212.025C121.36 212.245 121.268 212.531 121.29 212.82L121.36 214.75C121.36 214.895 121.389 215.038 121.445 215.172C121.501 215.305 121.583 215.426 121.686 215.528C121.789 215.629 121.912 215.709 122.047 215.763C122.181 215.816 122.325 215.843 122.47 215.84L126.81 215.65Z" fill="white"/>
<path d="M121.35 214.15H123.53C123.662 214.147 123.787 214.094 123.881 214.001C123.974 213.908 124.027 213.782 124.03 213.65C124.03 213.517 123.977 213.39 123.883 213.296C123.79 213.203 123.662 213.15 123.53 213.15H121.35C121.217 213.15 121.09 213.203 120.996 213.296C120.903 213.39 120.85 213.517 120.85 213.65C120.852 213.782 120.906 213.908 120.999 214.001C121.092 214.094 121.218 214.147 121.35 214.15Z" fill="white"/>
<path d="M146.3 163.2C146.3 163.2 140.83 197.79 143.12 210.2L92.53 211.67C92.53 211.67 98.53 175.94 106.48 162.46C106.48 162.42 119.69 140.36 146.3 163.2Z" fill="#0F9AFE"/>
<path opacity="0.6" d="M146.3 163.2C146.3 163.2 140.83 197.79 143.12 210.2L92.53 211.67C92.53 211.67 98.53 175.94 106.48 162.46C106.48 162.42 119.69 140.36 146.3 163.2Z" fill="white"/>
<path d="M116.62 155.5C116.62 155.5 125.01 163.7 129.86 162.36C134.71 161.02 136.53 158.55 136.53 158.55C136.53 158.55 132.63 156.84 133.06 155.91C133.11 155.81 133.23 155.62 133.4 155.34C134.85 153.14 139.99 146.12 139.99 146.12L128.99 139.93C128.99 139.93 128.09 142.06 126.99 144.6C125.5 147.98 123.64 152.07 122.99 152.83C121.85 154.17 116.62 155.5 116.62 155.5Z" fill="#E4897B"/>
<path opacity="0.2" d="M126.94 144.6C127.63 148.5 129.33 153.09 133.4 155.34C134.85 153.14 139.99 146.12 139.99 146.12L128.99 139.93C128.99 139.93 128.05 142.06 126.94 144.6Z" fill="black"/>
<path d="M124.73 137C124.116 138.94 123.816 140.965 123.84 143C124.05 145.48 121.29 146.31 120.94 144.81C120.94 144.81 120.99 148.46 123.36 147.91C123.36 147.91 123.36 150.44 125.48 150.48C127.283 147.993 128.218 144.981 128.14 141.91C127.81 137.1 124.73 137 124.73 137Z" fill="#263238"/>
<path d="M143.74 124.84C140.14 126.33 140.74 134.69 146.74 141.84C150.41 138.68 152.08 131.38 151.21 128.5C149.81 123.89 146.87 123.55 143.74 124.84Z" fill="#263238"/>
<path d="M149 145.19C148.677 146.145 148.296 147.08 147.86 147.99C144.31 155.22 134.1 156.63 129.58 149.48L129.53 149.41C126.53 144.59 127.66 140.1 128.91 132.31C129.184 130.499 129.916 128.789 131.035 127.339C132.155 125.89 133.625 124.75 135.308 124.028C136.991 123.305 138.83 123.023 140.652 123.209C142.474 123.395 144.218 124.042 145.72 125.09C151.61 129.24 151.26 138.54 149 145.19Z" fill="#E4897B"/>
<path d="M139.88 137C139.74 137.63 139.96 138.21 140.36 138.3C140.76 138.39 141.21 137.96 141.36 137.3C141.51 136.64 141.29 136.09 140.88 136C140.47 135.91 140.06 136.42 139.88 137Z" fill="#263238"/>
<path d="M147 138.63C146.86 139.25 147.08 139.83 147.49 139.92C147.9 140.01 148.34 139.59 148.49 138.92C148.64 138.25 148.41 137.71 148 137.62C147.59 137.53 147.12 138 147 138.63Z" fill="#263238"/>
<path d="M144.59 138.4C144.911 140.472 145.513 142.491 146.38 144.4C145.885 144.609 145.349 144.707 144.812 144.686C144.274 144.665 143.748 144.527 143.27 144.28L144.59 138.4Z" fill="#DE5753"/>
<path d="M138.44 134.35C138.358 134.34 138.282 134.305 138.22 134.25C138.15 134.177 138.111 134.081 138.111 133.98C138.111 133.879 138.15 133.783 138.22 133.71C138.666 133.312 139.202 133.028 139.782 132.881C140.362 132.735 140.968 132.731 141.55 132.87C141.596 132.882 141.639 132.902 141.677 132.931C141.715 132.959 141.747 132.995 141.772 133.036C141.796 133.077 141.812 133.122 141.818 133.169C141.825 133.216 141.822 133.264 141.81 133.31C141.78 133.405 141.714 133.485 141.627 133.534C141.539 133.582 141.437 133.595 141.34 133.57C140.88 133.466 140.402 133.475 139.946 133.595C139.49 133.715 139.069 133.943 138.72 134.26C138.682 134.293 138.637 134.318 138.589 134.333C138.541 134.349 138.49 134.354 138.44 134.35Z" fill="#263238"/>
<path d="M150.75 137C150.681 136.98 150.618 136.944 150.567 136.893C150.516 136.842 150.479 136.779 150.46 136.71C150.364 136.249 150.162 135.817 149.868 135.448C149.574 135.08 149.198 134.786 148.77 134.59C148.676 134.556 148.6 134.487 148.557 134.397C148.514 134.307 148.508 134.204 148.54 134.11C148.574 134.016 148.643 133.94 148.733 133.897C148.823 133.854 148.926 133.848 149.02 133.88C149.568 134.117 150.051 134.483 150.429 134.946C150.807 135.408 151.068 135.955 151.19 136.54C151.202 136.587 151.204 136.636 151.197 136.685C151.19 136.733 151.174 136.779 151.149 136.821C151.123 136.863 151.09 136.899 151.051 136.928C151.012 136.957 150.967 136.978 150.92 136.99C150.865 137.005 150.807 137.008 150.75 137Z" fill="#263238"/>
<path d="M141.79 148.12C140.729 148.016 139.718 147.618 138.87 146.972C138.022 146.325 137.371 145.456 136.99 144.46C136.971 144.39 136.981 144.315 137.016 144.252C137.052 144.188 137.11 144.141 137.18 144.12C137.251 144.101 137.328 144.11 137.393 144.145C137.458 144.181 137.507 144.24 137.53 144.31C137.53 144.42 138.35 146.96 141.88 147.57C141.951 147.585 142.015 147.626 142.058 147.685C142.1 147.744 142.119 147.818 142.11 147.89C142.098 147.963 142.057 148.028 141.997 148.071C141.937 148.114 141.863 148.132 141.79 148.12Z" fill="#263238"/>
<path d="M150.51 131.07C150.51 131.07 152.83 129.29 152.74 127.21C152.66 125.896 152.243 124.625 151.528 123.52C150.813 122.414 149.825 121.512 148.66 120.9C146.449 119.62 143.945 118.931 141.39 118.9C132.53 118.38 127.71 121.04 126.19 125.77C125.25 127.45 125.27 130.57 126.11 133.49C126.115 133.506 126.115 133.524 126.11 133.54C126.564 135.206 127.35 136.764 128.42 138.12C133.82 133.44 135.83 130.12 134.98 127.92C135.16 127.87 137.84 125.47 139.03 125.41C140.75 125.32 143.92 126.95 146.49 128.48C147.9 129.31 149.35 127.98 149.35 127.98L150.51 131.07Z" fill="#263238"/>
<path d="M123.85 137.67C123.906 138.652 124.154 139.612 124.581 140.498C125.009 141.383 125.606 142.176 126.34 142.83C128.34 144.55 130.44 143.05 130.83 140.6C131.19 138.39 130.59 134.82 128.15 134.04C125.71 133.26 123.71 135.24 123.85 137.67Z" fill="#E4897B"/>
<path d="M123.84 142.93C123.84 142.93 127.12 130.18 135.23 125.43C143.34 120.68 151.75 124 151.75 124C151.662 122.721 151.478 121.451 151.2 120.2C150.96 119.8 146.94 118.42 146.94 118.42C146.94 118.42 144.65 115.05 141.47 113.97C138.29 112.89 128.79 112.58 125.47 115.35C122.15 118.12 119.96 123.76 121.36 123.86C122.76 123.96 123.83 123.96 123.83 123.96C123.83 123.96 121.21 133.01 122.33 134.37C122.34 134.36 120.4 140.66 123.84 142.93Z" fill="#0F9AFE"/>
<path d="M140.11 259.74C140.136 259.705 140.171 259.677 140.212 259.659C140.252 259.641 140.296 259.635 140.34 259.64C140.379 259.645 140.415 259.664 140.44 259.693C140.466 259.723 140.48 259.761 140.48 259.8C140.56 260.18 141.08 263.56 140.24 264.39C140.148 264.47 140.037 264.524 139.918 264.549C139.799 264.573 139.676 264.567 139.56 264.53C139.36 264.489 139.175 264.395 139.023 264.258C138.872 264.12 138.76 263.945 138.7 263.75C138.579 263.132 138.656 262.492 138.92 261.92C139.241 261.155 139.64 260.424 140.11 259.74ZM140.11 260.43C139.412 261.331 139.058 262.451 139.11 263.59C139.147 263.725 139.223 263.845 139.328 263.938C139.432 264.03 139.562 264.09 139.7 264.11C139.745 264.13 139.795 264.136 139.843 264.127C139.891 264.118 139.936 264.095 139.97 264.06C140.042 263.986 140.096 263.897 140.13 263.8C140.338 262.687 140.342 261.545 140.14 260.43H140.11Z" fill="#0F9AFE"/>
<path d="M162.49 243.19L148.55 247.82L141.85 250.05L143.4 257.36L149.87 256.13L165.66 253.11L162.49 243.19Z" fill="#E4897B"/>
<path d="M145.21 257.74L144.21 249.14C144.198 249.023 144.162 248.909 144.104 248.807C144.047 248.704 143.969 248.614 143.875 248.543C143.781 248.472 143.674 248.421 143.559 248.393C143.445 248.365 143.326 248.36 143.21 248.38L139 249C139 249 133.23 249.42 132.05 250.87C128.61 255.12 130.3 274.21 132.52 274.93C133.33 275.19 134.21 274.09 134.58 273.33C135.76 270.9 137.89 264.52 138.89 262.5C140.07 260.15 143.19 259.05 144.59 258.66C144.786 258.606 144.957 258.484 145.071 258.315C145.185 258.146 145.234 257.942 145.21 257.74Z" fill="#263238"/>
<path d="M140.14 259.68C140.171 259.656 140.21 259.642 140.25 259.642C140.29 259.642 140.328 259.656 140.36 259.68C140.49 259.68 142.78 260.68 143.17 262.01C143.225 262.174 143.245 262.348 143.228 262.521C143.21 262.693 143.157 262.86 143.07 263.01C143.019 263.164 142.917 263.297 142.78 263.386C142.644 263.475 142.482 263.515 142.32 263.5C141.32 263.37 140.2 261 140.09 259.94V259.83C140.086 259.803 140.089 259.775 140.098 259.749C140.106 259.723 140.121 259.7 140.14 259.68ZM142.72 262.68C142.78 262.505 142.78 262.315 142.72 262.14C142.48 261.32 141.2 260.57 140.55 260.24C140.84 261.35 141.77 262.94 142.35 263.01C142.41 263.01 142.53 263.01 142.66 262.77L142.71 262.68H142.72Z" fill="#0F9AFE"/>
<path opacity="0.2" d="M162.49 243.19L148.55 247.82L149.87 256.13L165.66 253.11L162.49 243.19Z" fill="black"/>
<path d="M152.29 257.42L156.27 257.79L153.89 244.04L149.32 246.44L152.29 257.42Z" fill="#0F9AFE"/>
<path opacity="0.6" d="M152.29 257.42L156.27 257.79L153.89 244.04L149.32 246.44L152.29 257.42Z" fill="white"/>
<path opacity="0.2" d="M145.21 257.74L144.21 249.14C144.198 249.023 144.162 248.909 144.104 248.807C144.047 248.704 143.969 248.614 143.875 248.543C143.781 248.472 143.674 248.421 143.559 248.393C143.445 248.365 143.326 248.36 143.21 248.38L139 249C139 249 133.23 249.42 132.05 250.87C128.61 255.12 130.3 274.21 132.52 274.93C133.33 275.19 134.21 274.09 134.58 273.33C135.76 270.9 137.89 264.52 138.89 262.5C140.07 260.15 143.19 259.05 144.59 258.66C144.786 258.606 144.957 258.484 145.071 258.315C145.185 258.146 145.234 257.942 145.21 257.74Z" fill="white"/>
<path d="M197.32 246.94C197.32 246.94 132.08 221.6 112.11 225.83C92.14 230.06 92.03 240.52 102.11 250.27C112.19 260.02 127.37 256.27 127.37 256.27C127.37 256.27 115.48 249.15 116.31 244.75C117.14 240.35 124.7 250.41 124.7 250.41C124.7 250.41 164.12 260.05 196.7 257.51L197.32 246.94Z" fill="#263238"/>
<path d="M198.11 245.88L194.45 244.2L192.34 257.93L197.44 257.1L198.11 245.88Z" fill="#0F9AFE"/>
<path opacity="0.6" d="M198.11 245.88L194.45 244.2L192.34 257.93L197.44 257.1L198.11 245.88Z" fill="white"/>
<path d="M112.48 152.84C112.48 152.84 121.31 176.84 120.85 182.23C120.39 187.62 102.2 228 102.2 228L87.2 234C87.2 234 90.2899 174.69 112.48 152.84Z" fill="#0F9AFE"/>
<path opacity="0.2" d="M112.48 152.84C112.48 152.84 121.31 176.84 120.85 182.23C120.39 187.62 102.2 228 102.2 228L87.2 234C87.2 234 90.2899 174.69 112.48 152.84Z" fill="black"/>
<path d="M144.35 222.51C144.35 222.51 139.63 211.32 138.12 205.12C136.61 198.92 141.89 167.07 139.05 156.38L146.3 163.2L143.23 203L144.35 222.51Z" fill="#0F9AFE"/>
<path opacity="0.2" d="M144.35 222.51C144.35 222.51 139.63 211.32 138.12 205.12C136.61 198.92 141.89 167.07 139.05 156.38L146.3 163.2L143.23 203L144.35 222.51Z" fill="black"/>
<path d="M90.8201 205.12C90.8201 205.12 122.11 211.12 117.16 153.96L112.07 153.52C112.07 153.52 115.17 175.24 109.46 189.45C103.75 203.66 90.29 203 90.29 203L90.8201 205.12Z" fill="#263238"/>
<path d="M120.67 179.72L110.17 155.34L107 159.53C107 159.53 106.44 153.62 108.28 151.9C110.12 150.18 115.28 152.33 117.28 152.84C119.28 153.35 120.67 179.72 120.67 179.72Z" fill="#0F9AFE"/>
<path d="M137.22 156.76C137.22 156.76 141.27 168.76 140.61 187.54C139.95 206.32 143.33 204.76 143.33 204.76L143.81 202.99C143.81 202.99 141.92 202.77 142.07 196.44C142.22 190.11 143.07 164.56 140.61 157.85L137.22 156.76Z" fill="#263238"/>
<path d="M139.34 179C139.34 179 140.34 161 135.28 155.73C135.28 155.73 139.07 154.31 140.61 155.73C142.15 157.15 142.53 170.86 139.51 179.73" fill="#0F9AFE"/>
<path d="M113.93 186.36C113.93 186.36 118.51 196.99 119.54 198.47C120.57 199.95 143.36 210.47 143.36 210.47C145.208 210.213 147.082 210.213 148.93 210.47C151.74 210.91 155.61 212.09 155.93 212.54C156.25 212.99 151.7 219.63 151.7 219.63C151.7 219.63 142.59 220.19 141.46 216.63C141.46 216.63 118.62 208.15 115.97 205.93C113.32 203.71 106 190.49 106 190.49L113.93 186.36Z" fill="#E4897B"/>
<path d="M108.26 162.51C113.14 162.51 119.99 192.3 121.26 196.34C122.53 200.38 142.77 209 142.77 209L136.34 216.61C136.34 216.61 114.46 208.71 111.89 205.08C109.32 201.45 101.53 180.78 101.17 176C100.81 171.22 105 162.5 108.26 162.51Z" fill="#0F9AFE"/>
</g>
<defs>
<clipPath id="clip0_102_312">
<rect width="408" height="344" fill="white"/>
</clipPath>
</defs>
</svg>
