<svg width="408" height="343" viewBox="0 0 408 343" fill="none" xmlns="http://www.w3.org/2000/svg">
<g clip-path="url(#clip0_102_312)">
<path d="M458 307.4H-42V307.65H458V307.4Z" fill="#EBEBEB"/>
<path d="M407.9 323.49H374.78V323.74H407.9V323.49Z" fill="#EBEBEB"/>
<path d="M289.22 326.21H280.53V326.46H289.22V326.21Z" fill="#EBEBEB"/>
<path d="M373.78 314.21H354.59V314.46H373.78V314.21Z" fill="#EBEBEB"/>
<path d="M53.65 315.89H10.46V316.14H53.65V315.89Z" fill="#EBEBEB"/>
<path d="M68.8901 315.89H62.5601V316.14H68.8901V315.89Z" fill="#EBEBEB"/>
<path d="M183.15 320.11H89.47V320.36H183.15V320.11Z" fill="#EBEBEB"/>
<path d="M195 262.8H1.90996C0.397309 262.797 -1.05248 262.195 -2.12115 261.124C-3.18983 260.053 -3.79004 258.603 -3.79004 257.09V-14.34C-3.77687 -15.844 -3.17085 -17.282 -2.1036 -18.3418C-1.03635 -19.4015 0.405931 -19.9974 1.90996 -20H195C196.514 -20 197.967 -19.3984 199.038 -18.3276C200.108 -17.2567 200.71 -15.8044 200.71 -14.29V257.09C200.71 258.604 200.108 260.057 199.038 261.128C197.967 262.198 196.514 262.8 195 262.8ZM1.90996 -19.8C0.463613 -19.7974 -0.922591 -19.2209 -1.94438 -18.1973C-2.96616 -17.1736 -3.54004 -15.7864 -3.54004 -14.34V257.09C-3.54004 258.536 -2.96616 259.924 -1.94438 260.947C-0.922591 261.971 0.463613 262.547 1.90996 262.55H195C196.447 262.547 197.834 261.971 198.858 260.948C199.881 259.924 200.457 258.537 200.46 257.09V-14.34C200.457 -15.7873 199.881 -17.1745 198.858 -18.1979C197.834 -19.2213 196.447 -19.7974 195 -19.8H1.90996Z" fill="#EBEBEB"/>
<path d="M411.31 262.8H218.21C216.696 262.797 215.246 262.195 214.175 261.125C213.105 260.054 212.503 258.604 212.5 257.09V-14.34C212.516 -15.8449 213.124 -17.2829 214.193 -18.3424C215.262 -19.4019 216.705 -19.9975 218.21 -20H411.31C412.812 -19.9948 414.252 -19.3978 415.317 -18.3383C416.382 -17.2788 416.987 -15.8422 417 -14.34V257.09C417 258.601 416.401 260.05 415.335 261.121C414.268 262.191 412.821 262.795 411.31 262.8ZM218.21 -19.8C216.763 -19.7974 215.375 -19.2213 214.352 -18.1979C213.329 -17.1745 212.753 -15.7873 212.75 -14.34V257.09C212.753 258.537 213.329 259.924 214.352 260.948C215.375 261.971 216.763 262.547 218.21 262.55H411.31C412.757 262.547 414.145 261.971 415.168 260.948C416.191 259.924 416.767 258.537 416.77 257.09V-14.34C416.767 -15.7873 416.191 -17.1745 415.168 -18.1979C414.145 -19.2213 412.757 -19.7974 411.31 -19.8H218.21Z" fill="#EBEBEB"/>
<path d="M88.9999 304.14H19.9299C27.4199 297.26 45.0499 297.68 45.0499 297.68C45.0499 297.68 32.8199 284.55 37.3299 276.12C41.8399 267.69 53.9199 286.17 53.9199 286.17C53.9199 286.17 38.7299 258.68 44.3799 251.83C50.0299 244.98 65.2199 281.93 65.2199 281.93C65.2199 281.93 55.9899 242.82 61.5399 241.71C67.0899 240.6 72.8899 278.8 72.8899 278.8C72.8899 278.8 70.8899 243.88 75.5599 244.88C80.2299 245.88 77.9999 291.44 77.9999 291.44C77.9999 291.44 82.6999 268.19 84.6999 275.61C86.6999 283.03 82.6999 298.92 82.6999 298.92C84.2156 298.832 85.7085 299.321 86.8776 300.29C88.0467 301.258 88.8051 302.634 88.9999 304.14Z" fill="#E0E0E0"/>
<path d="M125.24 304.14H214.93C205.21 295.21 182.31 295.76 182.31 295.76C182.31 295.76 198.19 278.69 192.31 267.76C186.43 256.83 170.78 280.76 170.78 280.76C170.78 280.76 190.5 245.06 183.16 236.16C175.82 227.26 156.11 275.26 156.11 275.26C156.11 275.26 168.11 224.47 160.88 223.03C153.65 221.59 146.15 271.19 146.15 271.19C146.15 271.19 148.74 225.85 142.67 227.14C136.6 228.43 139.55 287.61 139.55 287.61C139.55 287.61 133.45 257.42 130.84 267.05C128.23 276.68 133.45 297.32 133.45 297.32C127.47 297.44 125.74 301.55 125.24 304.14Z" fill="#E0E0E0"/>
<path d="M207.48 304.14H276.55C269.06 297.26 251.43 297.68 251.43 297.68C251.43 297.68 263.66 284.55 259.15 276.12C254.64 267.69 242.56 286.17 242.56 286.17C242.56 286.17 257.75 258.68 252.1 251.83C246.45 244.98 231.26 281.93 231.26 281.93C231.26 281.93 240.49 242.82 234.94 241.71C229.39 240.6 223.59 278.8 223.59 278.8C223.59 278.8 225.59 243.88 220.92 244.88C216.25 245.88 218.51 291.44 218.51 291.44C218.51 291.44 213.81 268.19 211.81 275.61C209.81 283.03 213.81 298.92 213.81 298.92C212.289 298.824 210.789 299.31 209.613 300.279C208.438 301.248 207.675 302.629 207.48 304.14Z" fill="#E0E0E0"/>
<path d="M72.59 304.14C69.53 257.14 62.16 136.87 63.2 85.99L58.29 85.66C58.29 85.66 53.39 238.94 56.07 304.14H72.59Z" fill="#E0E0E0"/>
<path d="M61.89 107.01L74.5 96.76L75.76 90.4L83.33 78.85L84.96 78.26L77.49 91.32L77.19 95.7L88.54 93.62L93.29 84.85L98.3 80.92L99.05 82.22L94.78 86.03L91.28 95.39L75.74 99.3L59.53 118.95L61.89 107.01Z" fill="#E0E0E0"/>
<path d="M59.42 97.48L58.81 101.78L45.18 88.73L36.78 87.07L30.3 82.6L30.74 82.17L36.9 86.09L43.72 86.41L37.26 78.38L30.9 73.75L31.33 73.48L37.71 77.61L48.21 88.24L47.17 78.52L44.74 74.39L44.5 73.25L47.56 77.75L55.54 75.12L56.21 75.62L48.02 78.53L49.5 89.25L59.42 97.48Z" fill="#E0E0E0"/>
<path d="M104.79 80.74C105.1 79 102.34 77.74 99.3599 77.55C97.1649 77.4073 94.9866 77.0727 92.8499 76.55C93.1299 75.93 92.9299 75.18 93.3299 74.1C94.1999 71.74 93.7299 70.15 91.1199 68.1C88.5099 66.05 85.8799 66.45 80.1199 67.1C74.3599 67.75 75.1999 65.18 70.0399 62.71C64.8799 60.24 46.9099 61.27 43.5999 63.57C41.5999 64.95 33.8499 64.14 31.6999 67.52C29.5499 70.9 16.8399 70 18.5199 73C20.1999 76 22.2299 76.07 21.8899 81C21.5499 85.93 26.0199 84.28 30.4799 86.13C34.9399 87.98 34.3399 84.51 37.2599 84.29C40.1799 84.07 39.3699 83.77 42.3699 82.38C45.3699 80.99 44.9499 82.74 49.7099 85.13C52.3299 86.45 53.2999 84.85 54.1099 83.13C54.5999 84.24 54.0499 85.86 55.0299 87.74C55.8199 89.24 58.9699 89.58 61.9699 89.3C65.2599 95.54 66.6699 90.3 70.7899 90.78C75.1399 91.25 81.6799 87.78 84.7399 87.45C87.7999 87.12 88.0099 86.3 91.1699 88.76C94.3299 91.22 107.98 86.42 109.27 83.95C110.56 81.48 104.48 82.48 104.79 80.74Z" fill="#E0E0E0"/>
<path d="M161 304.14C158.1 258.19 153 169.49 153.77 129.91L149.57 129.63C149.57 129.63 145.92 243.51 147.29 304.14H161Z" fill="#E0E0E0"/>
<path d="M152.62 147.89L163.4 139.12L164.48 133.68L170.95 123.81L172.34 123.3L165.96 134.46L165.7 138.22L175.41 136.43L179.47 128.94L183.76 125.57L184.4 126.68L180.75 129.94L177.75 137.95L164.46 141.29L150.59 158.09L152.62 147.89Z" fill="#E0E0E0"/>
<path d="M150.5 139.74L149.98 143.41L138.32 132.25L131.14 130.83L125.6 127.01L125.98 126.64L131.24 129.99L137.07 130.27L131.55 123.4L126.11 119.44L126.48 119.21L131.94 122.74L140.92 131.83L140.03 123.52L137.94 119.98L137.74 119.01L140.36 122.86L147.19 120.61L147.76 121.04L140.76 123.53L142.02 132.7L150.5 139.74Z" fill="#E0E0E0"/>
<path d="M189.31 125.42C189.57 123.93 187.21 122.87 184.67 122.69C182.788 122.563 180.92 122.269 179.09 121.81C179.33 121.28 179.16 120.63 179.5 119.71C180.25 117.71 179.85 116.34 177.62 114.58C175.39 112.82 173.13 113.17 168.24 113.74C163.35 114.31 164.04 112.1 159.62 109.99C155.2 107.88 139.84 108.76 137.01 110.72C135.31 111.9 128.67 111.22 126.83 114.11C124.99 117 114.09 116.26 115.53 118.77C116.97 121.28 118.69 121.4 118.41 125.6C118.13 129.8 121.93 128.4 125.75 129.98C129.57 131.56 129.06 128.6 131.55 128.41C134.04 128.22 133.36 127.97 135.92 126.78C138.48 125.59 138.13 127.08 142.2 129.13C144.44 130.26 145.27 128.89 145.97 127.46C146.38 128.41 145.91 129.8 146.75 131.4C147.42 132.69 150.12 132.98 152.68 132.74C155.49 138.08 156.68 133.62 160.23 134.01C163.94 134.41 169.54 131.47 172.16 131.16C174.78 130.85 174.95 130.16 177.66 132.28C180.37 134.4 192.04 130.28 193.14 128.16C194.24 126.04 189 126.91 189.31 125.42Z" fill="#E0E0E0"/>
<path d="M127.82 258.31C126.89 251.73 109.38 116.44 105.41 32.5H98.8501C98.8501 32.5 102.54 202.09 113.53 263.91L127.82 258.31Z" fill="#E6E6E6"/>
<path d="M44.9199 304.14H219.05C200.16 293.84 155.72 294.48 155.72 294.48C155.72 294.48 186.55 274.81 175.18 262.21C163.81 249.61 133.37 277.21 133.37 277.21C133.37 277.21 171.65 236.07 157.37 225.81C143.09 215.55 104.84 270.87 104.84 270.87C104.84 270.87 128.09 212.33 114.11 210.67C100.13 209.01 85.4999 266.18 85.4999 266.18C85.4999 266.18 90.4999 213.92 78.7499 215.41C66.9999 216.9 72.6799 285.1 72.6799 285.1C72.6799 285.1 60.8399 250.31 55.7799 261.4C50.7199 272.49 60.8599 296.29 60.8599 296.29C49.2299 296.42 45.8799 301.16 44.9199 304.14Z" fill="#F0F0F0"/>
<path d="M105.57 60.59L121.43 45.82L122.53 37.24L131.57 21.18L133.68 20.25L124.91 38.3V44.16L139.83 40.37L145.37 28.28L151.68 22.58L152.79 24.24L147.45 29.7L143.64 42.48L123.31 49.09L103.49 76.69L105.57 60.59Z" fill="#E6E6E6"/>
<path d="M101.41 48.14L100.99 53.9L81.6701 37.77L70.3401 36.31L61.3101 30.94L61.8701 30.33L70.4101 34.99L79.5201 34.82L70.1901 24.7L61.3101 19.11L61.8701 18.71L70.7301 23.64L85.6601 36.84L83.4001 23.99L79.7901 18.71L79.3701 17.22L83.8601 22.94L94.2401 18.71L95.1701 19.32L84.5401 23.94L87.4701 38.07L101.41 48.14Z" fill="#E6E6E6"/>
<path d="M160.3 21.76C160.55 19.42 156.77 18.01 152.79 18.01C149.853 17.9995 146.922 17.7386 144.03 17.23C144.34 16.37 144.03 15.38 144.44 13.91C145.39 10.7 144.63 8.62 140.96 6.13C137.29 3.64 133.83 4.4 126.28 5.81C118.73 7.22 119.57 3.7 112.47 0.879997C105.37 -1.94 81.5599 1.05 77.3599 4.4C74.8399 6.4 64.4299 6.04 61.8699 10.74C59.3099 15.44 42.2699 15.43 44.7699 19.18C47.2699 22.93 49.9999 22.94 49.9999 29.51C49.9999 36.08 55.7799 33.51 61.8899 35.51C67.9999 37.51 66.8899 33.01 70.7499 32.45C74.6099 31.89 73.5099 31.57 77.3799 29.45C81.2499 27.33 80.8399 29.69 87.3799 32.45C90.9899 33.97 92.1399 31.76 93.0699 29.45C93.8099 30.89 93.2399 33.1 94.7099 35.51C95.8899 37.44 100.12 37.6 104.08 36.96C109.02 44.96 110.43 37.96 115.96 38.14C121.78 38.37 130.18 33.21 134.23 32.45C138.28 31.69 138.47 30.63 142.91 33.61C147.35 36.59 165.07 28.99 166.56 25.61C168.05 22.23 160.05 24.11 160.3 21.76Z" fill="#F0F0F0"/>
<path d="M384 31.08C384 29.2845 383.287 27.5625 382.017 26.2929C380.747 25.0233 379.025 24.31 377.23 24.31C376.572 24.3095 375.919 24.4072 375.29 24.6C375.587 22.5643 375.442 20.4885 374.866 18.5136C374.29 16.5386 373.296 14.7108 371.95 13.1542C370.605 11.5975 368.941 10.3486 367.071 9.49201C365.2 8.63546 363.167 8.19141 361.11 8.19001C360.224 8.19202 359.34 8.27571 358.47 8.44001C357.059 6.11698 354.931 4.31613 352.406 3.30944C349.882 2.30275 347.098 2.14489 344.476 2.85972C341.854 3.57455 339.535 5.12324 337.871 7.27188C336.207 9.42051 335.287 12.0524 335.25 14.77H335.04C333.495 14.7245 331.957 14.9895 330.517 15.5493C329.076 16.109 327.763 16.9521 326.654 18.0286C325.545 19.1052 324.664 20.3933 324.062 21.8166C323.46 23.24 323.15 24.7696 323.15 26.315C323.15 27.8604 323.46 29.39 324.062 30.8134C324.664 32.2367 325.545 33.5248 326.654 34.6014C327.763 35.6779 329.076 36.521 330.517 37.0808C331.957 37.6405 333.495 37.9055 335.04 37.86H377.42C379.184 37.8105 380.859 37.074 382.088 35.8076C383.317 34.5411 384.003 32.8448 384 31.08Z" fill="#F5F5F5"/>
<path d="M237.92 94.28C237.92 93.3914 237.745 92.5116 237.404 91.6908C237.064 90.8699 236.565 90.1243 235.936 89.4964C235.308 88.8686 234.561 88.3708 233.74 88.0317C232.919 87.6926 232.038 87.5187 231.15 87.52C230.493 87.5204 229.84 87.6147 229.21 87.8C229.507 85.7618 229.362 83.6834 228.784 81.7063C228.206 79.7293 227.209 77.8999 225.861 76.3428C224.512 74.7857 222.844 73.5373 220.97 72.6826C219.096 71.828 217.06 71.3871 215 71.39C214.114 71.392 213.23 71.4757 212.36 71.64C210.939 69.3314 208.809 67.5457 206.287 66.5508C203.766 65.5559 200.99 65.4055 198.376 66.1221C195.761 66.8387 193.45 68.3838 191.788 70.5254C190.127 72.667 189.205 75.2897 189.16 78H189C187.455 77.9545 185.917 78.2195 184.477 78.7793C183.036 79.339 181.723 80.1821 180.614 81.2587C179.505 82.3352 178.624 83.6233 178.022 85.0466C177.42 86.47 177.11 87.9996 177.11 89.545C177.11 91.0904 177.42 92.62 178.022 94.0434C178.624 95.4667 179.505 96.7548 180.614 97.8314C181.723 98.9079 183.036 99.751 184.477 100.311C185.917 100.87 187.455 101.135 189 101.09H231.38C233.143 101.033 234.814 100.288 236.036 99.016C237.258 97.7436 237.934 96.044 237.92 94.28Z" fill="#F5F5F5"/>
<path d="M395.15 177.69C395.15 175.894 394.437 174.173 393.167 172.903C391.897 171.633 390.175 170.92 388.38 170.92C387.722 170.919 387.069 171.017 386.44 171.21C386.737 169.174 386.592 167.098 386.016 165.124C385.44 163.149 384.445 161.321 383.1 159.764C381.755 158.208 380.091 156.959 378.221 156.102C376.35 155.245 374.317 154.801 372.26 154.8C371.374 154.802 370.49 154.886 369.62 155.05C368.209 152.727 366.081 150.926 363.556 149.919C361.032 148.913 358.248 148.755 355.626 149.47C353.004 150.185 350.685 151.733 349.021 153.882C347.357 156.031 346.437 158.662 346.4 161.38H346.19C343.129 161.38 340.194 162.596 338.03 164.76C335.866 166.924 334.65 169.859 334.65 172.92C334.65 175.981 335.866 178.916 338.03 181.08C340.194 183.244 343.129 184.46 346.19 184.46H388.57C390.332 184.411 392.006 183.675 393.235 182.411C394.463 181.147 395.151 179.453 395.15 177.69Z" fill="#F5F5F5"/>
<path d="M56.81 147.15C56.8074 146.066 56.3756 145.027 55.6092 144.261C54.8427 143.494 53.804 143.063 52.72 143.06C52.3201 143.063 51.9227 143.124 51.54 143.24C51.719 142.012 51.6322 140.76 51.2856 139.569C50.9391 138.377 50.3408 137.274 49.5312 136.333C48.7216 135.393 47.7196 134.637 46.5929 134.117C45.4661 133.598 44.2409 133.326 43 133.32C42.4664 133.319 41.934 133.369 41.41 133.47C40.5494 132.084 39.2638 131.012 37.7448 130.416C36.2258 129.819 34.5548 129.73 32.9808 130.161C31.4067 130.591 30.014 131.519 29.0101 132.805C28.0062 134.092 27.445 135.669 27.41 137.3H27.28C25.4235 137.3 23.643 138.037 22.3303 139.35C21.0175 140.663 20.28 142.443 20.28 144.3C20.28 146.157 21.0175 147.937 22.3303 149.25C23.643 150.562 25.4235 151.3 27.28 151.3H52.83C53.9061 151.271 54.9273 150.819 55.6724 150.042C56.4174 149.266 56.8262 148.226 56.81 147.15Z" fill="#F5F5F5"/>
<path d="M273.73 18.73C273.73 18.0928 273.581 17.4643 273.296 16.8948C273.01 16.3253 272.595 15.8304 272.084 15.4496C271.573 15.0688 270.98 14.8127 270.353 14.7017C269.725 14.5906 269.081 14.6277 268.47 14.81C268.649 13.5796 268.562 12.325 268.213 11.1314C267.865 9.93774 267.264 8.83298 266.451 7.89207C265.638 6.95116 264.633 6.1961 263.502 5.67811C262.372 5.16013 261.143 4.89135 259.9 4.89C259.363 4.89389 258.828 4.94407 258.3 5.04C257.439 3.6535 256.154 2.58222 254.635 1.98584C253.116 1.38945 251.445 1.29989 249.871 1.7305C248.297 2.16112 246.904 3.08884 245.9 4.37541C244.896 5.66198 244.335 7.2385 244.3 8.87H244.18C242.323 8.87 240.543 9.60749 239.23 10.9202C237.917 12.233 237.18 14.0135 237.18 15.87C237.18 17.7265 237.917 19.507 239.23 20.8197C240.543 22.1325 242.323 22.87 244.18 22.87H269.8C270.866 22.8309 271.875 22.3756 272.609 21.6017C273.344 20.8278 273.746 19.7969 273.73 18.73Z" fill="#F5F5F5"/>
<path d="M208 352.56C315.083 352.56 401.89 347.492 401.89 341.24C401.89 334.988 315.083 329.92 208 329.92C100.918 329.92 14.1101 334.988 14.1101 341.24C14.1101 347.492 100.918 352.56 208 352.56Z" fill="#F5F5F5"/>
<path d="M330.25 325C330.25 325 327 324.83 326.68 316C326.36 307.17 332.08 304.74 336.48 305.83C336.48 305.83 335.84 299.5 338.69 299.74C341.54 299.98 341.35 304.19 341.35 304.19C341.35 304.19 342.35 295.19 346.22 295.19C350.09 295.19 346.22 305.8 346.22 305.8C346.22 305.8 351.61 303.21 353.59 305.8C355.57 308.39 351.12 311.42 351.12 311.42C351.12 311.42 358.12 313.7 355.18 320.94C355.18 320.94 360.05 321.7 361.41 324.94C361.41 324.94 361.02 318.39 362.78 318.83C364.54 319.27 364.14 325.01 364.14 325.01C364.14 325.01 367.06 318.71 369.59 320.93C372.12 323.15 368.43 328.5 368.43 328.5C368.43 328.5 373.3 326.14 374.07 329.27C374.84 332.4 371.35 333.57 371.35 333.57C371.35 333.57 376.41 332.4 376.41 338.21C376.41 338.21 386.15 337.28 388.49 342.5H330.49L330.25 325Z" fill="#0F9AFE"/>
<path opacity="0.4" d="M330.25 325C330.25 325 327 324.83 326.68 316C326.36 307.17 332.08 304.74 336.48 305.83C336.48 305.83 335.84 299.5 338.69 299.74C341.54 299.98 341.35 304.19 341.35 304.19C341.35 304.19 342.35 295.19 346.22 295.19C350.09 295.19 346.22 305.8 346.22 305.8C346.22 305.8 351.61 303.21 353.59 305.8C355.57 308.39 351.12 311.42 351.12 311.42C351.12 311.42 358.12 313.7 355.18 320.94C355.18 320.94 360.05 321.7 361.41 324.94C361.41 324.94 361.02 318.39 362.78 318.83C364.54 319.27 364.14 325.01 364.14 325.01C364.14 325.01 367.06 318.71 369.59 320.93C372.12 323.15 368.43 328.5 368.43 328.5C368.43 328.5 373.3 326.14 374.07 329.27C374.84 332.4 371.35 333.57 371.35 333.57C371.35 333.57 376.41 332.4 376.41 338.21C376.41 338.21 386.15 337.28 388.49 342.5H330.49L330.25 325Z" fill="white"/>
<path d="M300.61 234C299.21 257 291.61 342 291.61 342L346.52 342.51L331.08 188.92L355.72 181.4L360.89 166.47L381.7 154.7L391.87 139.08L387.94 138.08L376.71 152.5L363.61 155.35L369.22 142.06H363L347.4 172.84L331.4 176.12L329.94 120.12C313.86 127.63 308.72 115.12 308.72 115.12C308.72 115.12 304.56 202.78 302.22 209.4C299.851 208.081 297.645 206.487 295.65 204.65C290.224 199.82 285.51 194.244 281.65 188.09L280.65 186.44H275.65L300.61 234Z" fill="#0F9AFE"/>
<g opacity="0.2">
<path opacity="0.2" d="M300.61 234C299.21 257 291.61 342 291.61 342L346.52 342.51L331.08 188.92L355.72 181.4L360.89 166.47L381.7 154.7L391.87 139.08L387.94 138.08L376.71 152.5L363.61 155.35L369.22 142.06H363L347.4 172.84L331.4 176.12L329.94 120.12C313.86 127.63 308.72 115.12 308.72 115.12C308.72 115.12 304.56 202.78 302.22 209.4C299.851 208.081 297.645 206.487 295.65 204.65C290.224 199.82 285.51 194.244 281.65 188.09L280.65 186.44H275.65L300.61 234Z" fill="black"/>
</g>
<path opacity="0.1" d="M358.49 162.32L351.8 175.22L330.87 180.52C330.87 180.52 330.94 177.23 331.28 173.01L331.37 176.17L347.37 172.89L363 142.11H369.24L363.63 155.4L376.73 152.55L387.96 138.13L388.51 138.26L379.86 151.35L358.49 162.32Z" fill="black"/>
<path d="M328.36 266.56L333.3 342.39L324.59 342.31V282.46L328.36 266.56Z" fill="#0F9AFE"/>
<path d="M300.61 234L275.61 186.49H280.61L281.61 188.14C285.47 194.294 290.184 199.87 295.61 204.7C297.605 206.537 299.811 208.131 302.18 209.45C304.52 202.83 308.68 115.17 308.68 115.17C309.488 116.884 310.662 118.4 312.121 119.61C313.579 120.819 315.286 121.694 317.12 122.17C317.353 150.483 317.59 178.797 317.83 207.11C319.6 203.11 321.14 199.22 321.29 195.03C321.82 206.63 322.53 219.1 322.48 230.55L312.86 266.04L311 342.18L291.64 342C291.64 342 299.21 257 300.61 234Z" fill="#0F9AFE"/>
<path d="M238.81 85.66C230.81 88.52 225.28 96.99 225.53 105.5C225.761 109.762 227.183 113.873 229.635 117.366C232.087 120.86 235.47 123.595 239.4 125.26C243.372 126.823 247.676 127.35 251.907 126.792C256.139 126.234 260.159 124.609 263.59 122.07C263.94 130.24 269.52 139.12 277.31 141.59C281.245 142.769 285.443 142.743 289.363 141.517C293.284 140.291 296.748 137.92 299.31 134.71C320.31 147.9 393.81 152.79 406.73 96.62C409.39 85.02 402.93 72.74 393.46 65.53C383.99 58.32 371.95 55.37 360.14 53.92C348.93 36.07 324.07 26.32 303.14 29.12C282.21 31.92 263.68 47.73 257.57 67.9C236.28 68 238.5 87.09 238.81 85.66Z" fill="#0F9AFE"/>
<g opacity="0.2">
<path opacity="0.2" d="M238.81 85.66C230.81 88.52 225.28 96.99 225.53 105.5C225.761 109.762 227.183 113.873 229.635 117.366C232.087 120.86 235.47 123.595 239.4 125.26C243.372 126.823 247.676 127.35 251.907 126.792C256.139 126.234 260.159 124.609 263.59 122.07C263.94 130.24 269.52 139.12 277.31 141.59C281.245 142.769 285.443 142.743 289.363 141.517C293.284 140.291 296.748 137.92 299.31 134.71C320.31 147.9 393.81 152.79 406.73 96.62C409.39 85.02 402.93 72.74 393.46 65.53C383.99 58.32 371.95 55.37 360.14 53.92C348.93 36.07 324.07 26.32 303.14 29.12C282.21 31.92 263.68 47.73 257.57 67.9C236.28 68 238.5 87.09 238.81 85.66Z" fill="black"/>
</g>
<path d="M264.74 196.15C265.935 197.92 267.609 199.314 269.567 200.167C271.526 201.02 273.686 201.297 275.796 200.967C277.906 200.636 279.879 199.712 281.482 198.301C283.086 196.89 284.254 195.051 284.85 193C289.85 196.5 297.51 195.64 302.55 192.23C305.092 190.509 307.049 188.055 308.162 185.195C309.275 182.334 309.49 179.202 308.778 176.216C308.067 173.231 306.464 170.532 304.181 168.48C301.898 166.428 299.045 165.12 296 164.73C295.758 161.944 294.87 159.252 293.407 156.869C291.944 154.486 289.945 152.476 287.57 151C285.081 149.475 282.283 148.524 279.38 148.218C276.477 147.912 273.542 148.258 270.79 149.23C267.569 148.704 264.269 148.954 261.163 149.957C258.057 150.96 255.235 152.689 252.93 155C249.56 158.27 247.32 162.91 247.71 167.59C248.1 172.27 251.52 176.76 256.13 177.65C255.306 179.345 254.838 181.192 254.755 183.075C254.673 184.959 254.977 186.839 255.65 188.6C257.14 192.08 261.16 194.82 264.74 196.15Z" fill="#0F9AFE"/>
<path opacity="0.2" d="M264.74 196.15C265.935 197.92 267.609 199.314 269.567 200.167C271.526 201.02 273.686 201.297 275.796 200.967C277.906 200.636 279.879 199.712 281.482 198.301C283.086 196.89 284.254 195.051 284.85 193C289.85 196.5 297.51 195.64 302.55 192.23C305.092 190.509 307.049 188.055 308.162 185.195C309.275 182.334 309.49 179.202 308.778 176.216C308.067 173.231 306.464 170.532 304.181 168.48C301.898 166.428 299.045 165.12 296 164.73C295.758 161.944 294.87 159.252 293.407 156.869C291.944 154.486 289.945 152.476 287.57 151C285.081 149.475 282.283 148.524 279.38 148.218C276.477 147.912 273.542 148.258 270.79 149.23C267.569 148.704 264.269 148.954 261.163 149.957C258.057 150.96 255.235 152.689 252.93 155C249.56 158.27 247.32 162.91 247.71 167.59C248.1 172.27 251.52 176.76 256.13 177.65C255.306 179.345 254.838 181.192 254.755 183.075C254.673 184.959 254.977 186.839 255.65 188.6C257.14 192.08 261.16 194.82 264.74 196.15Z" fill="black"/>
<path d="M370.56 111.23C368.542 110.533 366.366 110.426 364.289 110.921C362.212 111.416 360.319 112.492 358.831 114.024C357.343 115.556 356.323 117.48 355.889 119.571C355.455 121.661 355.625 123.833 356.38 125.83C350.3 126.02 344.67 131.33 342.69 137.08C341.689 139.978 341.595 143.113 342.419 146.066C343.243 149.02 344.947 151.653 347.303 153.614C349.66 155.576 352.558 156.773 355.612 157.048C358.666 157.322 361.732 156.66 364.4 155.15C366.27 157.232 368.599 158.849 371.203 159.873C373.807 160.897 376.613 161.3 379.4 161.05C382.307 160.774 385.116 159.853 387.623 158.355C390.129 156.857 392.27 154.819 393.89 152.39C396.782 150.881 399.273 148.705 401.158 146.043C403.043 143.381 404.267 140.309 404.73 137.08C405.46 132.45 404.47 127.39 401.34 123.88C398.21 120.37 392.79 118.88 388.57 120.88C388.206 119.037 387.469 117.289 386.404 115.741C385.34 114.193 383.971 112.879 382.38 111.88C379.09 109.93 374.22 110.15 370.56 111.23Z" fill="#0F9AFE"/>
<path opacity="0.1" d="M370.56 111.23C368.542 110.533 366.366 110.426 364.289 110.921C362.212 111.416 360.319 112.492 358.831 114.024C357.343 115.556 356.323 117.48 355.889 119.571C355.455 121.661 355.625 123.833 356.38 125.83C350.3 126.02 344.67 131.33 342.69 137.08C341.689 139.978 341.595 143.113 342.419 146.066C343.243 149.02 344.947 151.653 347.303 153.614C349.66 155.576 352.558 156.773 355.612 157.048C358.666 157.322 361.732 156.66 364.4 155.15C366.27 157.232 368.599 158.849 371.203 159.873C373.807 160.897 376.613 161.3 379.4 161.05C382.307 160.774 385.116 159.853 387.623 158.355C390.129 156.857 392.27 154.819 393.89 152.39C396.782 150.881 399.273 148.705 401.158 146.043C403.043 143.381 404.267 140.309 404.73 137.08C405.46 132.45 404.47 127.39 401.34 123.88C398.21 120.37 392.79 118.88 388.57 120.88C388.206 119.037 387.469 117.289 386.404 115.741C385.34 114.193 383.971 112.879 382.38 111.88C379.09 109.93 374.22 110.15 370.56 111.23Z" fill="black"/>
<path d="M333.45 340.29C333.45 340.29 313.28 327.22 317.11 325C320.94 322.78 334.38 335.85 334.38 335.85C334.38 335.85 319.52 314.11 323.19 309.75C326.86 305.39 336.75 327.47 336.75 327.47C336.75 327.47 330.03 302.23 334.75 299.47C339.47 296.71 341.22 324.76 341.22 324.76C341.22 324.76 343.07 294.36 351.77 294.76C360.47 295.16 347.77 324.76 347.77 324.76C347.77 324.76 360.04 307.17 364.39 312.16C368.74 317.15 350.54 331.16 350.54 331.16C350.54 331.16 364.15 324.77 365.06 329.51C365.97 334.25 350.06 339.3 350.06 339.3C350.06 339.3 355.17 340.77 356.36 342.49H329.18C329.18 342.49 328.74 341.2 333.45 340.29Z" fill="#0F9AFE"/>
<path opacity="0.6" d="M333.45 340.29C333.45 340.29 313.28 327.22 317.11 325C320.94 322.78 334.38 335.85 334.38 335.85C334.38 335.85 319.52 314.11 323.19 309.75C326.86 305.39 336.75 327.47 336.75 327.47C336.75 327.47 330.03 302.23 334.75 299.47C339.47 296.71 341.22 324.76 341.22 324.76C341.22 324.76 343.07 294.36 351.77 294.76C360.47 295.16 347.77 324.76 347.77 324.76C347.77 324.76 360.04 307.17 364.39 312.16C368.74 317.15 350.54 331.16 350.54 331.16C350.54 331.16 364.15 324.77 365.06 329.51C365.97 334.25 350.06 339.3 350.06 339.3C350.06 339.3 355.17 340.77 356.36 342.49H329.18C329.18 342.49 328.74 341.2 333.45 340.29Z" fill="white"/>
<path d="M72.6698 289.63C72.5998 289.27 65.8398 254.2 59.2398 249.53C52.8298 245.01 47.2398 251.22 47.0398 251.53L46.2898 250.88C46.3498 250.8 52.6798 243.73 59.8098 248.77C66.7498 253.66 73.3698 288.03 73.6498 289.49L72.6698 289.63Z" fill="#0F9AFE"/>
<path d="M70.16 292.52C70.16 292.28 67.66 268.17 59.89 260.77C58.01 258.98 56.17 258.28 54.42 258.69C50.26 259.64 47.69 266.37 47.67 266.44L46.73 266.09C46.84 265.79 49.51 258.79 54.19 257.71C56.29 257.23 58.44 258.01 60.58 260.04C68.58 267.7 71.06 291.42 71.16 292.42L70.16 292.52Z" fill="#0F9AFE"/>
<path d="M65.5 253.37C65.5 253.37 70.02 252.46 70.89 256.37C71.76 260.28 63.37 272.68 63.37 272.68C63.37 272.68 55.75 271.21 55.75 261.19C55.75 251.17 64 251.14 65.5 253.37Z" fill="#0F9AFE"/>
<path opacity="0.2" d="M65.5 253.37C65.5 253.37 70.02 252.46 70.89 256.37C71.76 260.28 63.37 272.68 63.37 272.68C63.37 272.68 55.75 271.21 55.75 261.19C55.75 251.17 64 251.14 65.5 253.37Z" fill="white"/>
<path d="M53.8298 260.93C53.8298 260.93 55.6498 258.93 53.2598 258.44C50.8698 257.95 39.8398 260 41.4498 271C41.4498 271 54.6898 271.11 55.6298 266.67C56.5698 262.23 53.8298 260.93 53.8298 260.93Z" fill="#0F9AFE"/>
<path opacity="0.2" d="M53.8298 260.93C53.8298 260.93 55.6498 258.93 53.2598 258.44C50.8698 257.95 39.8398 260 41.4498 271C41.4498 271 54.6898 271.11 55.6298 266.67C56.5698 262.23 53.8298 260.93 53.8298 260.93Z" fill="white"/>
<path d="M70.83 242.08C70.83 242.08 70.32 240.08 72.1 240.6C73.88 241.12 80.65 246.46 75.59 253.32C75.59 253.32 66.59 248.62 67.59 245.32C68.59 242.02 70.83 242.08 70.83 242.08Z" fill="#0F9AFE"/>
<path opacity="0.2" d="M70.83 242.08C70.83 242.08 70.32 240.08 72.1 240.6C73.88 241.12 80.65 246.46 75.59 253.32C75.59 253.32 66.59 248.62 67.59 245.32C68.59 242.02 70.83 242.08 70.83 242.08Z" fill="white"/>
<path d="M237.18 296.82L236.18 296.55C236.3 296.14 247.84 255.07 268.71 244.01L269.18 244.89C248.72 255.76 237.29 296.41 237.18 296.82Z" fill="#0F9AFE"/>
<path d="M237.37 292.18L236.46 291.76C236.67 291.33 256.58 247.81 249.72 233.99L250.61 233.55C257.69 247.79 238.2 290.38 237.37 292.18Z" fill="#0F9AFE"/>
<path d="M236.59 295.33L235.59 295.04C236.27 292.78 252.26 239.67 262.49 233.14L263.03 233.98C253.15 240.31 236.75 294.78 236.59 295.33Z" fill="#0F9AFE"/>
<path d="M253.32 235.7C253.32 235.7 256.32 236.49 256.75 234.7C257.18 232.91 248 224.19 238.75 228.98C238.75 228.98 240.15 237.64 246.07 239.98C251.99 242.32 253.32 235.7 253.32 235.7Z" fill="#0F9AFE"/>
<path opacity="0.2" d="M253.32 235.7C253.32 235.7 256.32 236.49 256.75 234.7C257.18 232.91 248 224.19 238.75 228.98C238.75 228.98 240.15 237.64 246.07 239.98C251.99 242.32 253.32 235.7 253.32 235.7Z" fill="white"/>
<path d="M260.29 233.51C260.29 233.51 257.21 233.77 257.1 231.89C256.99 230.01 267.55 223.06 275.79 229.39C275.79 229.39 272.89 237.67 266.65 238.98C260.41 240.29 260.29 233.51 260.29 233.51Z" fill="#0F9AFE"/>
<path opacity="0.2" d="M260.29 233.51C260.29 233.51 257.21 233.77 257.1 231.89C256.99 230.01 267.55 223.06 275.79 229.39C275.79 229.39 272.89 237.67 266.65 238.98C260.41 240.29 260.29 233.51 260.29 233.51Z" fill="white"/>
<path d="M270.06 241.82C270.06 241.82 268.7 239.47 271.13 239.51C273.56 239.55 283.95 243.79 280.08 254.2C280.08 254.2 267.08 251.55 267.08 247.02C267.08 242.49 270.06 241.82 270.06 241.82Z" fill="#0F9AFE"/>
<path opacity="0.2" d="M270.06 241.82C270.06 241.82 268.7 239.47 271.13 239.51C273.56 239.55 283.95 243.79 280.08 254.2C280.08 254.2 267.08 251.55 267.08 247.02C267.08 242.49 270.06 241.82 270.06 241.82Z" fill="white"/>
<path d="M260.41 247.7C260.41 247.7 260.98 245.7 262.26 247.06C263.54 248.42 266.73 256.4 258.93 259.82C258.93 259.82 253.48 251.26 255.98 248.82C258.48 246.38 260.41 247.7 260.41 247.7Z" fill="#0F9AFE"/>
<path opacity="0.2" d="M260.41 247.7C260.41 247.7 260.98 245.7 262.26 247.06C263.54 248.42 266.73 256.4 258.93 259.82C258.93 259.82 253.48 251.26 255.98 248.82C258.48 246.38 260.41 247.7 260.41 247.7Z" fill="white"/>
<path d="M49.9298 248.38C49.9298 248.38 50.9298 246.54 49.0598 246.63C47.1898 246.72 39.3298 250.2 42.5398 258.09C42.5398 258.09 52.4198 255.76 52.3098 252.29C52.1998 248.82 49.9298 248.38 49.9298 248.38Z" fill="#0F9AFE"/>
<path opacity="0.2" d="M49.9298 248.38C49.9298 248.38 50.9298 246.54 49.0598 246.63C47.1898 246.72 39.3298 250.2 42.5398 258.09C42.5398 258.09 52.4198 255.76 52.3098 252.29C52.1998 248.82 49.9298 248.38 49.9298 248.38Z" fill="white"/>
<path d="M225.68 316.53C225.68 316.53 219.08 316.27 218.43 302.96C217.78 289.65 229.43 286.1 238.34 287.73C238.34 287.73 237.03 278.25 242.83 278.6C248.63 278.95 248.23 285.28 248.23 285.28C248.23 285.28 250.23 271.84 258.12 271.83C266.01 271.82 258.12 287.73 258.12 287.73C258.12 287.73 269.07 283.85 273.12 287.73C277.17 291.61 268.12 296.15 268.12 296.15C268.12 296.15 282.31 299.56 276.38 310.42C276.38 310.42 286.27 311.56 289.04 316.42C289.04 316.42 288.25 306.61 291.81 307.27C295.37 307.93 294.57 316.53 294.57 316.53C294.57 316.53 300.51 307.08 305.65 310.42C310.79 313.76 303.28 321.76 303.28 321.76C303.28 321.76 313.17 318.22 314.75 322.91C316.33 327.6 309.21 329.36 309.21 329.36C309.21 329.36 319.5 327.6 319.5 336.31C319.5 336.31 339.28 334.91 344.03 342.73H226.08L225.68 316.53Z" fill="#0F9AFE"/>
<path opacity="0.4" d="M225.68 316.53C225.68 316.53 219.08 316.27 218.43 302.96C217.78 289.65 229.43 286.1 238.34 287.73C238.34 287.73 237.03 278.25 242.83 278.6C248.63 278.95 248.23 285.28 248.23 285.28C248.23 285.28 250.23 271.84 258.12 271.83C266.01 271.82 258.12 287.73 258.12 287.73C258.12 287.73 269.07 283.85 273.12 287.73C277.17 291.61 268.12 296.15 268.12 296.15C268.12 296.15 282.31 299.56 276.38 310.42C276.38 310.42 286.27 311.56 289.04 316.42C289.04 316.42 288.25 306.61 291.81 307.27C295.37 307.93 294.57 316.53 294.57 316.53C294.57 316.53 300.51 307.08 305.65 310.42C310.79 313.76 303.28 321.76 303.28 321.76C303.28 321.76 313.17 318.22 314.75 322.91C316.33 327.6 309.21 329.36 309.21 329.36C309.21 329.36 319.5 327.6 319.5 336.31C319.5 336.31 339.28 334.91 344.03 342.73H226.08L225.68 316.53Z" fill="white"/>
<path d="M88.0599 316.53C88.0599 316.53 92.9299 316.27 93.4099 302.96C93.8899 289.65 85.3199 286.1 78.7199 287.73C78.7199 287.73 79.7199 278.25 75.4099 278.6C71.0999 278.95 71.4099 285.28 71.4099 285.28C71.4099 285.28 69.9499 271.84 64.1099 271.83C58.2699 271.82 64.1099 287.73 64.1099 287.73C64.1099 287.73 56.0399 283.85 53.1099 287.73C50.1799 291.61 56.8199 296.15 56.8199 296.15C56.8199 296.15 46.3499 299.56 50.7299 310.42C50.7299 310.42 43.4299 311.56 41.3899 316.42C41.3899 316.42 41.9699 306.61 39.3899 307.27C36.8099 307.93 37.3899 316.53 37.3899 316.53C37.3899 316.53 33.0199 307.08 29.2199 310.42C25.4199 313.76 30.9699 321.76 30.9699 321.76C30.9699 321.76 23.6799 318.22 22.5099 322.91C21.3399 327.6 26.5999 329.36 26.5999 329.36C26.5999 329.36 19.0099 327.6 19.0099 336.31C19.0099 336.31 4.41991 334.91 0.909912 342.73H87.9099L88.0599 316.53Z" fill="#0F9AFE"/>
<path opacity="0.4" d="M88.0599 316.53C88.0599 316.53 92.9299 316.27 93.4099 302.96C93.8899 289.65 85.3199 286.1 78.7199 287.73C78.7199 287.73 79.7199 278.25 75.4099 278.6C71.0999 278.95 71.4099 285.28 71.4099 285.28C71.4099 285.28 69.9499 271.84 64.1099 271.83C58.2699 271.82 64.1099 287.73 64.1099 287.73C64.1099 287.73 56.0399 283.85 53.1099 287.73C50.1799 291.61 56.8199 296.15 56.8199 296.15C56.8199 296.15 46.3499 299.56 50.7299 310.42C50.7299 310.42 43.4299 311.56 41.3899 316.42C41.3899 316.42 41.9699 306.61 39.3899 307.27C36.8099 307.93 37.3899 316.53 37.3899 316.53C37.3899 316.53 33.0199 307.08 29.2199 310.42C25.4199 313.76 30.9699 321.76 30.9699 321.76C30.9699 321.76 23.6799 318.22 22.5099 322.91C21.3399 327.6 26.5999 329.36 26.5999 329.36C26.5999 329.36 19.0099 327.6 19.0099 336.31C19.0099 336.31 4.41991 334.91 0.909912 342.73H87.9099L88.0599 316.53Z" fill="white"/>
<path d="M44.64 340.51C44.64 340.51 64.8 327.44 61 325.24C57.2 323.04 43.7 336.08 43.7 336.08C43.7 336.08 58.56 314.34 54.89 309.98C51.22 305.62 41.33 327.7 41.33 327.7C41.33 327.7 48.05 302.46 43.33 299.7C38.61 296.94 36.84 325 36.84 325C36.84 325 35 294.59 26.29 295C17.58 295.41 30.29 325 30.29 325C30.29 325 18 307.39 13.64 312.39C9.27996 317.39 27.48 331.39 27.48 331.39C27.48 331.39 13.87 325 13 329.76C12.13 334.52 28 339.55 28 339.55C28 339.55 22.88 341.02 21.7 342.73H48.91C48.91 342.73 49.34 341.43 44.64 340.51Z" fill="#0F9AFE"/>
<path opacity="0.6" d="M44.64 340.51C44.64 340.51 64.8 327.44 61 325.24C57.2 323.04 43.7 336.08 43.7 336.08C43.7 336.08 58.56 314.34 54.89 309.98C51.22 305.62 41.33 327.7 41.33 327.7C41.33 327.7 48.05 302.46 43.33 299.7C38.61 296.94 36.84 325 36.84 325C36.84 325 35 294.59 26.29 295C17.58 295.41 30.29 325 30.29 325C30.29 325 18 307.39 13.64 312.39C9.27996 317.39 27.48 331.39 27.48 331.39C27.48 331.39 13.87 325 13 329.76C12.13 334.52 28 339.55 28 339.55C28 339.55 22.88 341.02 21.7 342.73H48.91C48.91 342.73 49.34 341.43 44.64 340.51Z" fill="white"/>
<path d="M54.73 342.73C54.73 342.73 77.93 257.36 82.15 254.2C86.37 251.04 110.44 242.13 110.44 242.13C110.44 242.13 168.99 251.91 177.79 250.94C186.59 249.97 214.87 244.53 218.93 250.94C222.99 257.35 239 295.87 239 295.87L261.49 305.36L275.74 342.73H54.73Z" fill="#0F9AFE"/>
<path opacity="0.6" d="M275.74 342.73H54.74C54.74 342.73 77.83 257.73 82.13 254.21C83.6313 253.227 85.2137 252.374 86.86 251.66C95.22 247.77 110.42 242.15 110.42 242.15C110.42 242.15 168.97 251.93 177.77 250.96C186.57 249.99 214.85 244.54 218.91 250.96C219.77 252.33 221.18 255.15 222.86 258.75C229.08 272 239 295.86 239 295.86L261.49 305.36L275.74 342.73Z" fill="white"/>
<path opacity="0.1" d="M222.88 258.73L214.15 267.37L191.4 262L165.66 267.35L167.31 277.3L157.94 288.46L161.27 277.3L154 265.05C154 265.05 124.38 266.85 116.65 265.05C111.8 263.92 97.1299 256.78 86.9099 251.64C95.2699 247.75 110.47 242.13 110.47 242.13C110.47 242.13 169.02 251.91 177.82 250.94C186.62 249.97 214.9 244.52 218.96 250.94C219.79 252.31 221.2 255.13 222.88 258.73Z" fill="black"/>
<path opacity="0.1" d="M275.74 342.73H54.74C54.74 342.73 77.83 257.73 82.13 254.21L67.89 320.45L75.01 331.45L92.51 318.17L106 325.61L124.62 321.85L126.47 312.85L152.85 295.5L136.29 310.84L142.12 328.34L167.47 332.71H195.47L207 325L203.14 309.3L197.31 300.2L226.86 300.13L214.28 307.92L218.92 321.75L233.15 328.35L249.69 318.14L256.43 337.62L275.74 342.73Z" fill="black"/>
<path d="M246.2 342.73H282.83C282.83 342.73 275.54 331.57 272.43 332.99C268.38 334.83 265.38 324.72 260.9 327.11C259.32 327.96 260.1 330.66 259.1 331.75C257.46 333.55 255.37 333.2 253.39 334.19C249.5 336.13 248.12 338.69 246.2 342.73Z" fill="#0F9AFE"/>
<path opacity="0.2" d="M246.2 342.73H282.83C282.83 342.73 275.54 331.57 272.43 332.99C268.38 334.83 265.38 324.72 260.9 327.11C259.32 327.96 260.1 330.66 259.1 331.75C257.46 333.55 255.37 333.2 253.39 334.19C249.5 336.13 248.12 338.69 246.2 342.73Z" fill="black"/>
<path d="M278.83 339.62C278.83 339.62 276.42 325.67 278.08 323.62C279.74 321.57 280.03 331.23 280.03 331.23C280.03 331.23 285.61 311.07 289.18 310.97C292.75 310.87 285 328.46 285 328.46C285 328.46 300.26 303.52 304.69 305.84C309.12 308.16 288.69 330.27 288.69 330.27C288.69 330.27 299.85 320.66 302.31 323.38C304.77 326.1 289.92 334.38 289.92 334.38C289.92 334.38 296.47 332.91 296.46 335.09C296.45 337.27 285.38 340.86 278.83 339.62Z" fill="#0F9AFE"/>
<path opacity="0.2" d="M278.83 339.62C278.83 339.62 276.42 325.67 278.08 323.62C279.74 321.57 280.03 331.23 280.03 331.23C280.03 331.23 285.61 311.07 289.18 310.97C292.75 310.87 285 328.46 285 328.46C285 328.46 300.26 303.52 304.69 305.84C309.12 308.16 288.69 330.27 288.69 330.27C288.69 330.27 299.85 320.66 302.31 323.38C304.77 326.1 289.92 334.38 289.92 334.38C289.92 334.38 296.47 332.91 296.46 335.09C296.45 337.27 285.38 340.86 278.83 339.62Z" fill="white"/>
<path d="M276.63 337.63C276.63 337.63 265.16 335.55 264.05 333.69C262.94 331.83 270.48 334.33 270.48 334.33C270.48 334.33 256.48 324.33 257.39 321.53C258.3 318.73 269.72 329.74 269.72 329.74C269.72 329.74 254.72 310.9 257.79 308.12C260.86 305.34 272.18 327.38 272.18 327.38C272.18 327.38 267.9 316.03 270.69 314.89C273.48 313.75 275.69 327.59 275.69 327.59C275.69 327.59 276.4 322.11 278.08 322.73C279.76 323.35 279.44 332.91 276.63 337.63Z" fill="#0F9AFE"/>
<path opacity="0.2" d="M276.63 337.63C276.63 337.63 265.16 335.55 264.05 333.69C262.94 331.83 270.48 334.33 270.48 334.33C270.48 334.33 256.48 324.33 257.39 321.53C258.3 318.73 269.72 329.74 269.72 329.74C269.72 329.74 254.72 310.9 257.79 308.12C260.86 305.34 272.18 327.38 272.18 327.38C272.18 327.38 267.9 316.03 270.69 314.89C273.48 313.75 275.69 327.59 275.69 327.59C275.69 327.59 276.4 322.11 278.08 322.73C279.76 323.35 279.44 332.91 276.63 337.63Z" fill="white"/>
<path d="M275.77 336.1C275.77 336.1 264.69 325.01 264.89 322.1C265.09 319.19 271.51 327.74 271.51 327.74C271.51 327.74 263.7 305.93 266.87 303.56C270.04 301.19 274.19 322.1 274.19 322.1C274.19 322.1 272.09 289.78 277.59 289.1C283.09 288.42 278.71 321.4 278.71 321.4C278.71 321.4 282.71 305.59 286.65 306.47C290.59 307.35 282.45 324.34 282.45 324.34C282.45 324.34 287.45 318.83 288.82 320.81C290.19 322.79 282.49 333 275.77 336.1Z" fill="#0F9AFE"/>
<path opacity="0.1" d="M275.77 336.1C275.77 336.1 264.69 325.01 264.89 322.1C265.09 319.19 271.51 327.74 271.51 327.74C271.51 327.74 263.7 305.93 266.87 303.56C270.04 301.19 274.19 322.1 274.19 322.1C274.19 322.1 272.09 289.78 277.59 289.1C283.09 288.42 278.71 321.4 278.71 321.4C278.71 321.4 282.71 305.59 286.65 306.47C290.59 307.35 282.45 324.34 282.45 324.34C282.45 324.34 287.45 318.83 288.82 320.81C290.19 322.79 282.49 333 275.77 336.1Z" fill="white"/>
<path d="M262.34 342.73H291.53C291.53 342.73 285.72 333.84 283.24 334.97C280.02 336.44 277.63 328.38 274.06 330.29C272.8 330.96 273.41 333.11 272.62 333.98C271.31 335.42 269.62 335.14 268.07 335.93C265 337.47 263.87 339.51 262.34 342.73Z" fill="#0F9AFE"/>
<path d="M79.9999 342.73H43.3999C43.3999 342.73 50.6999 331.57 53.8099 332.99C57.8099 334.83 60.8099 324.72 65.3299 327.11C66.9099 327.96 66.1399 330.66 67.1399 331.75C68.7799 333.55 70.8699 333.2 72.8499 334.19C76.7399 336.13 78.1199 338.69 79.9999 342.73Z" fill="#0F9AFE"/>
<path opacity="0.2" d="M79.9999 342.73H43.3999C43.3999 342.73 50.6999 331.57 53.8099 332.99C57.8099 334.83 60.8099 324.72 65.3299 327.11C66.9099 327.96 66.1399 330.66 67.1399 331.75C68.7799 333.55 70.8699 333.2 72.8499 334.19C76.7399 336.13 78.1199 338.69 79.9999 342.73Z" fill="black"/>
<path d="M47.4098 339.62C47.4098 339.62 49.8098 325.67 48.1498 323.62C46.4898 321.57 46.1498 331.23 46.1498 331.23C46.1498 331.23 40.6198 311.07 37.0498 311C33.4798 310.93 41.2898 328.49 41.2898 328.49C41.2898 328.49 25.9998 303.52 21.5898 305.84C17.1798 308.16 37.5898 330.27 37.5898 330.27C37.5898 330.27 26.4198 320.66 23.9598 323.38C21.4998 326.1 36.3598 334.38 36.3598 334.38C36.3598 334.38 29.8098 332.91 29.8198 335.09C29.8298 337.27 40.8498 340.86 47.4098 339.62Z" fill="#0F9AFE"/>
<path opacity="0.2" d="M47.4098 339.62C47.4098 339.62 49.8098 325.67 48.1498 323.62C46.4898 321.57 46.1498 331.23 46.1498 331.23C46.1498 331.23 40.6198 311.07 37.0498 311C33.4798 310.93 41.2898 328.49 41.2898 328.49C41.2898 328.49 25.9998 303.52 21.5898 305.84C17.1798 308.16 37.5898 330.27 37.5898 330.27C37.5898 330.27 26.4198 320.66 23.9598 323.38C21.4998 326.1 36.3598 334.38 36.3598 334.38C36.3598 334.38 29.8098 332.91 29.8198 335.09C29.8298 337.27 40.8498 340.86 47.4098 339.62Z" fill="white"/>
<path d="M58.65 340.28C58.65 340.28 67.38 332.55 67.37 330.38C67.36 328.21 62.2 334.27 62.2 334.27C62.2 334.27 69 318.44 66.76 316.54C64.52 314.64 60.47 330 60.47 330C60.47 330 63.47 306.12 59.47 305.33C55.47 304.54 57.15 329.25 57.15 329.25C57.15 329.25 54.92 317.33 51.95 317.81C48.98 318.29 54.24 331.26 54.24 331.26C54.24 331.26 50.79 326.94 49.67 328.35C48.55 329.76 53.81 337.69 58.65 340.28Z" fill="#0F9AFE"/>
<path opacity="0.2" d="M58.65 340.28C58.65 340.28 67.38 332.55 67.37 330.38C67.36 328.21 62.2 334.27 62.2 334.27C62.2 334.27 69 318.44 66.76 316.54C64.52 314.64 60.47 330 60.47 330C60.47 330 63.47 306.12 59.47 305.33C55.47 304.54 57.15 329.25 57.15 329.25C57.15 329.25 54.92 317.33 51.95 317.81C48.98 318.29 54.24 331.26 54.24 331.26C54.24 331.26 50.79 326.94 49.67 328.35C48.55 329.76 53.81 337.69 58.65 340.28Z" fill="white"/>
<path d="M63.9 342.73H34.7C34.7 342.73 40.52 333.84 43 334.97C46.22 336.44 48.61 328.38 52.18 330.29C53.44 330.96 52.82 333.11 53.61 333.98C54.92 335.42 56.61 335.14 58.17 335.93C61.27 337.47 62.37 339.51 63.9 342.73Z" fill="#0F9AFE"/>
<path d="M132.87 151C132.87 151 99.2499 145.76 92.8699 148.51C86.4899 151.26 84.3399 161.15 84.3399 161.15C84.3399 161.15 83.1899 163.15 86.6699 163.41C86.6699 163.41 72.4399 198.86 76.9399 205.65C81.4399 212.44 126.76 215.16 132.94 211.83C139.12 208.5 153.79 153.53 132.87 151Z" fill="#263238"/>
<path d="M152.67 184.82C152.67 184.82 157.12 195.15 158.12 196.59C159.12 198.03 181.27 208.21 181.27 208.21C183.065 207.959 184.885 207.959 186.68 208.21C189.41 208.64 193.17 209.79 193.51 210.21C193.85 210.63 189.4 217.1 189.4 217.1C189.4 217.1 180.55 217.65 179.4 214.15C179.4 214.15 157.21 205.91 154.63 203.75C152.05 201.59 144.87 188.83 144.87 188.83L152.67 184.82Z" fill="#E4897B"/>
<path d="M146.3 162.2C150.46 164.68 156.97 191.38 158.37 194.55C159.77 197.72 176.77 205.43 176.77 205.43L169.23 212.65C169.23 212.65 152 205 149.86 202.86C147.72 200.72 139.12 178.53 139.12 178.53L146.3 162.2Z" fill="#0F9AFE"/>
<path d="M144.92 223.22C144.92 223.22 215.04 213.15 218.74 228.53C222.65 244.8 166.35 255.77 132.74 256.92C99.1299 258.07 89.4099 250.68 94.8099 209.1L140.21 208.99L144.92 223.22Z" fill="#263238"/>
<path opacity="0.2" d="M144.92 223.22C144.92 223.22 215.04 213.15 218.74 228.53C222.65 244.8 166.35 255.77 132.74 256.92C99.1299 258.07 89.4099 250.68 94.8099 209.1L140.21 208.99L144.92 223.22Z" fill="black"/>
<path d="M208.25 247.06C208.214 247.087 208.17 247.101 208.125 247.101C208.08 247.101 208.036 247.087 208 247.06C207.967 247.038 207.943 247.004 207.932 246.966C207.921 246.928 207.924 246.886 207.94 246.85C208.05 246.48 209.16 243.24 210.29 242.9C210.409 242.872 210.534 242.875 210.652 242.91C210.769 242.945 210.876 243.011 210.96 243.1C211.117 243.23 211.237 243.399 211.308 243.591C211.378 243.782 211.396 243.989 211.36 244.19C211.179 244.795 210.811 245.326 210.31 245.71C209.67 246.228 208.98 246.68 208.25 247.06ZM208.53 246.44C209.579 245.98 210.43 245.161 210.93 244.13C210.959 243.993 210.949 243.85 210.899 243.719C210.849 243.588 210.763 243.473 210.65 243.39C210.618 243.351 210.576 243.323 210.527 243.308C210.479 243.294 210.428 243.295 210.38 243.31C210.286 243.35 210.198 243.404 210.12 243.47C209.417 244.357 208.878 245.363 208.53 246.44Z" fill="#0F9AFE"/>
<path d="M208.19 247.11C208.153 247.121 208.113 247.122 208.076 247.111C208.039 247.101 208.005 247.079 207.98 247.05C207.87 246.95 206.32 244.99 206.57 243.67C206.638 243.34 206.832 243.05 207.11 242.86C207.227 242.744 207.38 242.672 207.544 242.656C207.708 242.64 207.872 242.68 208.01 242.77C208.82 243.35 208.72 245.97 208.32 246.97V247.07L208.19 247.11ZM207.3 243.26C207.162 243.383 207.067 243.548 207.03 243.73C206.87 244.57 207.65 245.83 208.03 246.43C208.29 245.31 208.21 243.43 207.73 243.14C207.68 243.14 207.58 243.03 207.34 243.2L207.26 243.26H207.3Z" fill="#0F9AFE"/>
<path d="M183.96 255.3L198.66 255.31L205.71 255.32L206.55 247.89L200.03 247.02L184.09 244.89L183.96 255.3Z" fill="#E4897B"/>
<path d="M205 247L203.21 255.47C203.188 255.581 203.189 255.695 203.212 255.806C203.235 255.917 203.28 256.022 203.345 256.115C203.409 256.208 203.491 256.288 203.587 256.349C203.682 256.41 203.788 256.451 203.9 256.47L208.12 257.23C208.12 257.23 213.73 258.66 215.31 257.65C219.91 254.71 224.31 236.06 222.47 234.65C221.79 234.15 220.6 234.91 220.01 235.52C218.12 237.45 214.09 242.83 212.49 244.43C210.63 246.29 207.32 246.34 205.87 246.27C205.66 246.263 205.456 246.334 205.295 246.468C205.135 246.603 205.029 246.792 205 247Z" fill="#263238"/>
<path opacity="0.2" d="M183.96 255.3L198.66 255.31L200.03 247.02L184.09 244.89L183.96 255.3Z" fill="black"/>
<path d="M128.45 222.71V224.57C128.452 225.189 128.692 225.783 129.12 226.23C129.548 226.677 130.132 226.942 130.75 226.97H199.14C199.776 226.949 200.382 226.691 200.839 226.247C201.296 225.804 201.571 225.206 201.61 224.57V222.71H128.45Z" fill="#263238"/>
<path opacity="0.2" d="M128.45 222.71V224.57C128.452 225.189 128.692 225.783 129.12 226.23C129.548 226.677 130.132 226.942 130.75 226.97H199.14C199.776 226.949 200.382 226.691 200.839 226.247C201.296 225.804 201.571 225.206 201.61 224.57V222.71H128.45Z" fill="white"/>
<path opacity="0.2" d="M154 222.71V224.57C154.004 225.19 154.247 225.784 154.676 226.231C155.106 226.677 155.691 226.942 156.31 226.97H199.17C199.806 226.949 200.412 226.691 200.869 226.247C201.326 225.804 201.601 225.206 201.64 224.57V222.71H154Z" fill="white"/>
<path d="M156.28 225.26H201.46C202.185 225.224 202.884 224.975 203.469 224.545C204.054 224.115 204.5 223.522 204.75 222.84L215.11 190.34C215.231 190.059 215.278 189.753 215.248 189.449C215.217 189.145 215.11 188.853 214.936 188.602C214.762 188.351 214.527 188.149 214.253 188.014C213.979 187.878 213.675 187.815 213.37 187.83H168.19C167.458 187.883 166.757 188.148 166.174 188.594C165.592 189.04 165.152 189.647 164.91 190.34L154.55 222.8C154.429 223.077 154.382 223.38 154.412 223.681C154.442 223.981 154.55 224.269 154.723 224.516C154.897 224.763 155.132 224.962 155.404 225.092C155.677 225.222 155.979 225.28 156.28 225.26Z" fill="#263238"/>
<path opacity="0.2" d="M156.28 225.26H201.46C202.185 225.224 202.884 224.975 203.469 224.545C204.054 224.115 204.5 223.522 204.75 222.84L215.11 190.34C215.231 190.059 215.278 189.753 215.248 189.449C215.217 189.145 215.11 188.853 214.936 188.602C214.762 188.351 214.527 188.149 214.253 188.014C213.979 187.878 213.675 187.815 213.37 187.83H168.19C167.458 187.883 166.757 188.148 166.174 188.594C165.592 189.04 165.152 189.647 164.91 190.34L154.55 222.8C154.429 223.077 154.382 223.38 154.412 223.681C154.442 223.981 154.55 224.269 154.723 224.516C154.897 224.763 155.132 224.962 155.404 225.092C155.677 225.222 155.979 225.28 156.28 225.26Z" fill="white"/>
<path opacity="0.2" d="M158 225.26H201.48C202.205 225.224 202.904 224.975 203.489 224.545C204.074 224.115 204.519 223.522 204.77 222.84L215.13 190.34C215.251 190.059 215.298 189.753 215.268 189.449C215.237 189.145 215.13 188.853 214.956 188.602C214.782 188.351 214.547 188.149 214.273 188.014C213.999 187.878 213.695 187.815 213.39 187.83H169.89C169.158 187.883 168.457 188.148 167.874 188.594C167.292 189.04 166.852 189.647 166.61 190.34L156.25 222.8C156.128 223.079 156.08 223.384 156.112 223.686C156.143 223.989 156.252 224.278 156.428 224.526C156.604 224.773 156.842 224.971 157.117 225.1C157.393 225.229 157.697 225.284 158 225.26Z" fill="white"/>
<path opacity="0.2" d="M184.42 208C183.86 210.16 184.94 211.92 186.83 211.92C188.72 211.92 190.69 210.16 191.25 208C191.81 205.84 190.73 204.08 188.85 204.08C186.97 204.08 185 205.87 184.42 208Z" fill="white"/>
<path opacity="0.2" d="M205 247L203.21 255.47C203.188 255.581 203.189 255.695 203.212 255.806C203.235 255.917 203.28 256.022 203.345 256.115C203.409 256.208 203.491 256.288 203.587 256.349C203.682 256.41 203.788 256.451 203.9 256.47L208.12 257.23C208.12 257.23 213.73 258.66 215.31 257.65C219.91 254.71 224.31 236.06 222.47 234.65C221.79 234.15 220.6 234.91 220.01 235.52C218.12 237.45 214.09 242.83 212.49 244.43C210.63 246.29 207.32 246.34 205.87 246.27C205.66 246.263 205.456 246.334 205.295 246.468C205.135 246.603 205.029 246.792 205 247Z" fill="white"/>
<path d="M108.26 214.99L94.0798 215.17L94.3498 210.56L108.26 210.26V214.99Z" fill="black"/>
<path d="M136.24 209.65L140.48 209.56L142 214.54L136.24 214.62V209.65Z" fill="black"/>
<path d="M134.43 209.69V214.64L110.44 214.96V210.21L134.43 209.69Z" fill="black"/>
<path d="M120.61 213.78L120.54 211.85C120.512 211.354 120.68 210.867 121.007 210.493C121.334 210.119 121.795 209.888 122.29 209.85L126.63 209.67C126.871 209.661 127.112 209.702 127.338 209.789C127.563 209.877 127.768 210.01 127.94 210.18C128.303 210.541 128.515 211.028 128.53 211.54L128.6 213.46C128.625 213.957 128.455 214.444 128.126 214.818C127.797 215.191 127.336 215.422 126.84 215.46L122.51 215.64H122.43C121.946 215.622 121.487 215.419 121.149 215.073C120.81 214.727 120.617 214.264 120.61 213.78ZM126.81 214.65C127.097 214.622 127.362 214.483 127.549 214.263C127.736 214.043 127.829 213.758 127.81 213.47L127.74 211.55C127.725 211.252 127.601 210.971 127.39 210.76C127.291 210.659 127.173 210.581 127.042 210.529C126.911 210.477 126.77 210.454 126.63 210.46L122.29 210.64C122.001 210.665 121.735 210.804 121.547 211.025C121.36 211.245 121.268 211.531 121.29 211.82L121.36 213.75C121.36 213.895 121.389 214.038 121.445 214.172C121.501 214.305 121.583 214.426 121.686 214.528C121.789 214.629 121.912 214.709 122.047 214.763C122.181 214.816 122.325 214.843 122.47 214.84L126.81 214.65Z" fill="white"/>
<path d="M121.35 213.15H123.53C123.662 213.147 123.787 213.094 123.881 213.001C123.974 212.908 124.027 212.782 124.03 212.65C124.03 212.517 123.977 212.39 123.883 212.296C123.79 212.203 123.662 212.15 123.53 212.15H121.35C121.217 212.15 121.09 212.203 120.996 212.296C120.903 212.39 120.85 212.517 120.85 212.65C120.852 212.782 120.906 212.908 120.999 213.001C121.092 213.094 121.218 213.147 121.35 213.15Z" fill="white"/>
<path d="M146.3 162.2C146.3 162.2 140.83 196.79 143.12 209.2L92.53 210.67C92.53 210.67 98.53 174.94 106.48 161.46C106.48 161.42 119.69 139.36 146.3 162.2Z" fill="#0F9AFE"/>
<path opacity="0.6" d="M146.3 162.2C146.3 162.2 140.83 196.79 143.12 209.2L92.53 210.67C92.53 210.67 98.53 174.94 106.48 161.46C106.48 161.42 119.69 139.36 146.3 162.2Z" fill="white"/>
<path d="M116.62 154.5C116.62 154.5 125.01 162.7 129.86 161.36C134.71 160.02 136.53 157.55 136.53 157.55C136.53 157.55 132.63 155.84 133.06 154.91C133.11 154.81 133.23 154.62 133.4 154.34C134.85 152.14 139.99 145.12 139.99 145.12L128.99 138.93C128.99 138.93 128.09 141.06 126.99 143.6C125.5 146.98 123.64 151.07 122.99 151.83C121.85 153.17 116.62 154.5 116.62 154.5Z" fill="#E4897B"/>
<path opacity="0.2" d="M126.94 143.6C127.63 147.5 129.33 152.09 133.4 154.34C134.85 152.14 139.99 145.12 139.99 145.12L128.99 138.93C128.99 138.93 128.05 141.06 126.94 143.6Z" fill="black"/>
<path d="M124.73 136C124.116 137.94 123.816 139.965 123.84 142C124.05 144.48 121.29 145.31 120.94 143.81C120.94 143.81 120.99 147.46 123.36 146.91C123.36 146.91 123.36 149.44 125.48 149.48C127.283 146.993 128.218 143.981 128.14 140.91C127.81 136.1 124.73 136 124.73 136Z" fill="#263238"/>
<path d="M143.74 123.84C140.14 125.33 140.74 133.69 146.74 140.84C150.41 137.68 152.08 130.38 151.21 127.5C149.81 122.89 146.87 122.55 143.74 123.84Z" fill="#263238"/>
<path d="M149 144.19C148.677 145.145 148.296 146.08 147.86 146.99C144.31 154.22 134.1 155.63 129.58 148.48L129.53 148.41C126.53 143.59 127.66 139.1 128.91 131.31C129.184 129.499 129.916 127.789 131.035 126.339C132.155 124.89 133.625 123.75 135.308 123.028C136.991 122.305 138.83 122.023 140.652 122.209C142.474 122.395 144.218 123.042 145.72 124.09C151.61 128.24 151.26 137.54 149 144.19Z" fill="#E4897B"/>
<path d="M139.88 136C139.74 136.63 139.96 137.21 140.36 137.3C140.76 137.39 141.21 136.96 141.36 136.3C141.51 135.64 141.29 135.09 140.88 135C140.47 134.91 140.06 135.42 139.88 136Z" fill="#263238"/>
<path d="M147 137.63C146.86 138.25 147.08 138.83 147.49 138.92C147.9 139.01 148.34 138.59 148.49 137.92C148.64 137.25 148.41 136.71 148 136.62C147.59 136.53 147.12 137 147 137.63Z" fill="#263238"/>
<path d="M144.59 137.4C144.911 139.472 145.513 141.491 146.38 143.4C145.885 143.609 145.349 143.707 144.812 143.686C144.274 143.665 143.748 143.527 143.27 143.28L144.59 137.4Z" fill="#DE5753"/>
<path d="M138.44 133.35C138.358 133.34 138.282 133.305 138.22 133.25C138.15 133.177 138.111 133.081 138.111 132.98C138.111 132.879 138.15 132.783 138.22 132.71C138.666 132.312 139.202 132.028 139.782 131.881C140.362 131.735 140.968 131.731 141.55 131.87C141.596 131.882 141.639 131.902 141.677 131.931C141.715 131.959 141.747 131.995 141.772 132.036C141.796 132.077 141.812 132.122 141.818 132.169C141.825 132.216 141.822 132.264 141.81 132.31C141.78 132.405 141.714 132.485 141.627 132.534C141.539 132.582 141.437 132.595 141.34 132.57C140.88 132.466 140.402 132.475 139.946 132.595C139.49 132.715 139.069 132.943 138.72 133.26C138.682 133.293 138.637 133.318 138.589 133.333C138.541 133.349 138.49 133.354 138.44 133.35Z" fill="#263238"/>
<path d="M150.75 136C150.681 135.98 150.618 135.944 150.567 135.893C150.516 135.842 150.479 135.779 150.46 135.71C150.364 135.249 150.162 134.817 149.868 134.448C149.574 134.08 149.198 133.786 148.77 133.59C148.676 133.556 148.6 133.487 148.557 133.397C148.514 133.307 148.508 133.204 148.54 133.11C148.574 133.016 148.643 132.94 148.733 132.897C148.823 132.854 148.926 132.848 149.02 132.88C149.568 133.117 150.051 133.483 150.429 133.946C150.807 134.408 151.068 134.955 151.19 135.54C151.202 135.587 151.204 135.636 151.197 135.685C151.19 135.733 151.174 135.779 151.149 135.821C151.123 135.863 151.09 135.899 151.051 135.928C151.012 135.957 150.967 135.978 150.92 135.99C150.865 136.005 150.807 136.008 150.75 136Z" fill="#263238"/>
<path d="M141.79 147.12C140.729 147.016 139.718 146.618 138.87 145.972C138.022 145.325 137.371 144.456 136.99 143.46C136.971 143.39 136.981 143.315 137.016 143.252C137.052 143.188 137.11 143.141 137.18 143.12C137.251 143.101 137.328 143.11 137.393 143.145C137.458 143.181 137.507 143.24 137.53 143.31C137.53 143.42 138.35 145.96 141.88 146.57C141.951 146.585 142.015 146.626 142.058 146.685C142.1 146.744 142.119 146.818 142.11 146.89C142.098 146.963 142.057 147.028 141.997 147.071C141.937 147.114 141.863 147.132 141.79 147.12Z" fill="#263238"/>
<path d="M150.51 130.07C150.51 130.07 152.83 128.29 152.74 126.21C152.66 124.896 152.243 123.625 151.528 122.52C150.813 121.414 149.825 120.512 148.66 119.9C146.449 118.62 143.945 117.931 141.39 117.9C132.53 117.38 127.71 120.04 126.19 124.77C125.25 126.45 125.27 129.57 126.11 132.49C126.115 132.506 126.115 132.524 126.11 132.54C126.564 134.206 127.35 135.764 128.42 137.12C133.82 132.44 135.83 129.12 134.98 126.92C135.16 126.87 137.84 124.47 139.03 124.41C140.75 124.32 143.92 125.95 146.49 127.48C147.9 128.31 149.35 126.98 149.35 126.98L150.51 130.07Z" fill="#263238"/>
<path d="M123.85 136.67C123.906 137.652 124.154 138.612 124.581 139.498C125.009 140.383 125.606 141.176 126.34 141.83C128.34 143.55 130.44 142.05 130.83 139.6C131.19 137.39 130.59 133.82 128.15 133.04C125.71 132.26 123.71 134.24 123.85 136.67Z" fill="#E4897B"/>
<path d="M123.84 141.93C123.84 141.93 127.12 129.18 135.23 124.43C143.34 119.68 151.75 123 151.75 123C151.662 121.721 151.478 120.451 151.2 119.2C150.96 118.8 146.94 117.42 146.94 117.42C146.94 117.42 144.65 114.05 141.47 112.97C138.29 111.89 128.79 111.58 125.47 114.35C122.15 117.12 119.96 122.76 121.36 122.86C122.76 122.96 123.83 122.96 123.83 122.96C123.83 122.96 121.21 132.01 122.33 133.37C122.34 133.36 120.4 139.66 123.84 141.93Z" fill="#0F9AFE"/>
<path d="M140.11 258.74C140.136 258.705 140.171 258.677 140.212 258.659C140.252 258.641 140.296 258.635 140.34 258.64C140.379 258.645 140.415 258.664 140.44 258.693C140.466 258.723 140.48 258.761 140.48 258.8C140.56 259.18 141.08 262.56 140.24 263.39C140.148 263.47 140.037 263.524 139.918 263.549C139.799 263.573 139.676 263.567 139.56 263.53C139.36 263.489 139.175 263.395 139.023 263.258C138.872 263.12 138.76 262.945 138.7 262.75C138.579 262.132 138.656 261.492 138.92 260.92C139.241 260.155 139.64 259.424 140.11 258.74ZM140.11 259.43C139.412 260.331 139.058 261.451 139.11 262.59C139.147 262.725 139.223 262.845 139.328 262.938C139.432 263.03 139.562 263.09 139.7 263.11C139.745 263.13 139.795 263.136 139.843 263.127C139.891 263.118 139.936 263.095 139.97 263.06C140.042 262.986 140.096 262.897 140.13 262.8C140.338 261.687 140.342 260.545 140.14 259.43H140.11Z" fill="#0F9AFE"/>
<path d="M162.49 242.19L148.55 246.82L141.85 249.05L143.4 256.36L149.87 255.13L165.66 252.11L162.49 242.19Z" fill="#E4897B"/>
<path d="M145.21 256.74L144.21 248.14C144.198 248.023 144.162 247.909 144.104 247.807C144.047 247.704 143.969 247.614 143.875 247.543C143.781 247.472 143.674 247.421 143.559 247.393C143.445 247.365 143.326 247.36 143.21 247.38L139 248C139 248 133.23 248.42 132.05 249.87C128.61 254.12 130.3 273.21 132.52 273.93C133.33 274.19 134.21 273.09 134.58 272.33C135.76 269.9 137.89 263.52 138.89 261.5C140.07 259.15 143.19 258.05 144.59 257.66C144.786 257.606 144.957 257.484 145.071 257.315C145.185 257.146 145.234 256.942 145.21 256.74Z" fill="#263238"/>
<path d="M140.14 258.68C140.171 258.656 140.21 258.642 140.25 258.642C140.29 258.642 140.328 258.656 140.36 258.68C140.49 258.68 142.78 259.68 143.17 261.01C143.225 261.174 143.245 261.348 143.228 261.521C143.21 261.693 143.157 261.86 143.07 262.01C143.019 262.164 142.917 262.297 142.78 262.386C142.644 262.475 142.482 262.515 142.32 262.5C141.32 262.37 140.2 260 140.09 258.94V258.83C140.086 258.803 140.089 258.775 140.098 258.749C140.106 258.723 140.121 258.7 140.14 258.68ZM142.72 261.68C142.78 261.505 142.78 261.315 142.72 261.14C142.48 260.32 141.2 259.57 140.55 259.24C140.84 260.35 141.77 261.94 142.35 262.01C142.41 262.01 142.53 262.01 142.66 261.77L142.71 261.68H142.72Z" fill="#0F9AFE"/>
<path opacity="0.2" d="M162.49 242.19L148.55 246.82L149.87 255.13L165.66 252.11L162.49 242.19Z" fill="black"/>
<path d="M152.29 256.42L156.27 256.79L153.89 243.04L149.32 245.44L152.29 256.42Z" fill="#0F9AFE"/>
<path opacity="0.6" d="M152.29 256.42L156.27 256.79L153.89 243.04L149.32 245.44L152.29 256.42Z" fill="white"/>
<path opacity="0.2" d="M145.21 256.74L144.21 248.14C144.198 248.023 144.162 247.909 144.104 247.807C144.047 247.704 143.969 247.614 143.875 247.543C143.781 247.472 143.674 247.421 143.559 247.393C143.445 247.365 143.326 247.36 143.21 247.38L139 248C139 248 133.23 248.42 132.05 249.87C128.61 254.12 130.3 273.21 132.52 273.93C133.33 274.19 134.21 273.09 134.58 272.33C135.76 269.9 137.89 263.52 138.89 261.5C140.07 259.15 143.19 258.05 144.59 257.66C144.786 257.606 144.957 257.484 145.071 257.315C145.185 257.146 145.234 256.942 145.21 256.74Z" fill="white"/>
<path d="M197.32 245.94C197.32 245.94 132.08 220.6 112.11 224.83C92.14 229.06 92.03 239.52 102.11 249.27C112.19 259.02 127.37 255.27 127.37 255.27C127.37 255.27 115.48 248.15 116.31 243.75C117.14 239.35 124.7 249.41 124.7 249.41C124.7 249.41 164.12 259.05 196.7 256.51L197.32 245.94Z" fill="#263238"/>
<path d="M198.11 244.88L194.45 243.2L192.34 256.93L197.44 256.1L198.11 244.88Z" fill="#0F9AFE"/>
<path opacity="0.6" d="M198.11 244.88L194.45 243.2L192.34 256.93L197.44 256.1L198.11 244.88Z" fill="white"/>
<path d="M112.48 151.84C112.48 151.84 121.31 175.84 120.85 181.23C120.39 186.62 102.2 227 102.2 227L87.2 233C87.2 233 90.2899 173.69 112.48 151.84Z" fill="#0F9AFE"/>
<path opacity="0.2" d="M112.48 151.84C112.48 151.84 121.31 175.84 120.85 181.23C120.39 186.62 102.2 227 102.2 227L87.2 233C87.2 233 90.2899 173.69 112.48 151.84Z" fill="black"/>
<path d="M144.35 221.51C144.35 221.51 139.63 210.32 138.12 204.12C136.61 197.92 141.89 166.07 139.05 155.38L146.3 162.2L143.23 202L144.35 221.51Z" fill="#0F9AFE"/>
<path opacity="0.2" d="M144.35 221.51C144.35 221.51 139.63 210.32 138.12 204.12C136.61 197.92 141.89 166.07 139.05 155.38L146.3 162.2L143.23 202L144.35 221.51Z" fill="black"/>
<path d="M90.8201 204.12C90.8201 204.12 122.11 210.12 117.16 152.96L112.07 152.52C112.07 152.52 115.17 174.24 109.46 188.45C103.75 202.66 90.29 202 90.29 202L90.8201 204.12Z" fill="#263238"/>
<path d="M120.67 178.72L110.17 154.34L107 158.53C107 158.53 106.44 152.62 108.28 150.9C110.12 149.18 115.28 151.33 117.28 151.84C119.28 152.35 120.67 178.72 120.67 178.72Z" fill="#0F9AFE"/>
<path d="M137.22 155.76C137.22 155.76 141.27 167.76 140.61 186.54C139.95 205.32 143.33 203.76 143.33 203.76L143.81 201.99C143.81 201.99 141.92 201.77 142.07 195.44C142.22 189.11 143.07 163.56 140.61 156.85L137.22 155.76Z" fill="#263238"/>
<path d="M139.34 178C139.34 178 140.34 160 135.28 154.73C135.28 154.73 139.07 153.31 140.61 154.73C142.15 156.15 142.53 169.86 139.51 178.73" fill="#0F9AFE"/>
<path d="M113.93 185.36C113.93 185.36 118.51 195.99 119.54 197.47C120.57 198.95 143.36 209.47 143.36 209.47C145.208 209.213 147.082 209.213 148.93 209.47C151.74 209.91 155.61 211.09 155.93 211.54C156.25 211.99 151.7 218.63 151.7 218.63C151.7 218.63 142.59 219.19 141.46 215.63C141.46 215.63 118.62 207.15 115.97 204.93C113.32 202.71 106 189.49 106 189.49L113.93 185.36Z" fill="#E4897B"/>
<path d="M108.26 161.51C113.14 161.51 119.99 191.3 121.26 195.34C122.53 199.38 142.77 208 142.77 208L136.34 215.61C136.34 215.61 114.46 207.71 111.89 204.08C109.32 200.45 101.53 179.78 101.17 175C100.81 170.22 105 161.5 108.26 161.51Z" fill="#0F9AFE"/>
</g>
<defs>
<clipPath id="clip0_102_312">
<rect width="408" height="343" fill="white"/>
</clipPath>
</defs>
</svg>
